  0
SECTION
  2
HEADER
  9
$ACADVER
  1
AC1024
  9
$ACADMAINTVER
 70
     6
  9
$DWGCODEPAGE
  3
ANSI_1252
  9
$INSBASE
 10
0.0
 20
0.0
 30
0.0
  9
$EXTMIN
 10
163561.596020997792948
 20
125776.001460601502913
 30
96.516449629206178
  9
$EXTMAX
 10
163605.475116920424625
 20
125893.95277828759572
 30
97.621995000802585
  9
$LIMMIN
 10
163561.596020997792948
 20
125776.001460601502913
  9
$LIMMAX
 10
163605.475116920424625
 20
125893.95277828759572
  9
$ORTHOMODE
 70
     0
  9
$REGENMODE
 70
     1
  9
$FILLMODE
 70
     1
  9
$LTSCALE
 40
1.0
  9
$TEXTSIZE
 40
0.2
  9
$TEXTSTYLE
  7
Standard
  9
$CLAYER
  8
0
  9
$DIMSTYLE
  2
Standard
  9
$LUNITS
 70
     2
  9
$LUPREC
 70
     6
  9
$AUNITS
 70
     0
  9
$AUPREC
 70
     0
  9
$INSUNITS
 70
     6
  9
$PSLTSCALE
 70
     1
  9
$TREEDEPTH
 70
  3020
  9
$PROXYGRAPHICS
 70
     1
  9
$MEASUREMENT
 70
     1
  9
$CELWEIGHT
 370
    -1
  9
$ENDCAPS
 280
     0
  9
$JOINSTYLE
 280
     0
  9
$LWDISPLAY
 290
     0
  9
$PSTYLEMODE
 290
     1
  9
$STYLESHEET
  1

  9
$XEDIT
 290
     1
  9
$CEPSNTYPE
 380
     0
  9
$HANDSEED
  5
142
  0
ENDSEC
  0
SECTION
  2
CLASSES
  0
ENDSEC
  0
SECTION
  2
TABLES
  0
TABLE
  2
VPORT
  5
8
330
0
100
AcDbSymbolTable
 70
     1
  0
VPORT
  5
23
330
8
100
AcDbSymbolTableRecord
100
AcDbViewportTableRecord
  2
*Active
 70
     0
 10
0.0
 20
0.0
 11
1.0
 21
1.0
 12
163583.535568959108787
 22
125834.977119444549317
 13
0.0
 23
0.0
 14
0.5
 24
0.5
 15
0.5
 25
0.5
 16
0.0
 26
0.0
 36
1.0
 17
0.0
 27
0.0
 37
0.0
 40
117.951317686092807
 41
1.0
 42
50.0
 43
0.0
 44
0.0
 50
0.0
 51
0.0
 71
     0
 72
  1000
 73
     1
 74
     3
 75
     0
 76
     0
 77
     0
 78
     0
 281
     0
 65
     1
 110
0.0
 120
0.0
 130
0.0
 111
1.0
 121
0.0
 131
0.0
 112
0.0
 122
1.0
 132
0.0
 79
     0
 146
0.0
  0
ENDTAB
  0
TABLE
  2
LTYPE
  5
5
330
0
100
AcDbSymbolTable
 70
     3
  0
LTYPE
  5
14
330
5
100
AcDbSymbolTableRecord
100
AcDbLinetypeTableRecord
  2
ByBlock
 70
     0
  3

 72
    65
 73
     0
 40
0.0
  0
LTYPE
  5
15
330
5
100
AcDbSymbolTableRecord
100
AcDbLinetypeTableRecord
  2
ByLayer
 70
     0
  3

 72
    65
 73
     0
 40
0.0
  0
LTYPE
  5
16
330
5
100
AcDbSymbolTableRecord
100
AcDbLinetypeTableRecord
  2
Continuous
 70
     0
  3
Solid line
 72
    65
 73
     0
 40
0.0
  0
ENDTAB
  0
TABLE
  2
LAYER
  5
2
330
0
100
AcDbSymbolTable
 70
     3
  0
LAYER
  5
10
330
2
100
AcDbSymbolTableRecord
100
AcDbLayerTableRecord
  2
0
 70
     0
 62
     7
  6
Continuous
370
    -3
390
F
  0
LAYER
  5
100
330
2
100
AcDbSymbolTableRecord
100
AcDbLayerTableRecord
  2
BES-Projet Chambre de visite
 70
     0
 62
     1
  6
Continuous
370
     9
390
F
  0
LAYER
  5
101
330
2
100
AcDbSymbolTableRecord
100
AcDbLayerTableRecord
  2
BES-Projet Dalle
 70
     0
 62
     2
  6
Continuous
370
     9
390
F
  0
ENDTAB
  0
TABLE
  2
STYLE
  5
3
330
0
100
AcDbSymbolTable
 70
     1
  0
STYLE
  5
11
330
3
100
AcDbSymbolTableRecord
100
AcDbTextStyleTableRecord
  2
Standard
 70
     0
 40
0.0
 41
1.0
 50
0.0
 71
     0
 42
0.2
  3
txt
  4

  0
ENDTAB
  0
TABLE
  2
VIEW
  5
6
330
0
100
AcDbSymbolTable
 70
     0
  0
ENDTAB
  0
TABLE
  2
UCS
  5
7
330
0
100
AcDbSymbolTable
 70
     0
  0
ENDTAB
  0
TABLE
  2
APPID
  5
9
330
0
100
AcDbSymbolTable
 70
     1
  0
APPID
  5
12
330
9
100
AcDbSymbolTableRecord
100
AcDbRegAppTableRecord
  2
ACAD
 70
     0
  0
ENDTAB
  0
TABLE
  2
DIMSTYLE
  5
A
330
0
100
AcDbSymbolTable
 70
     1
100
AcDbDimStyleTable
  0
DIMSTYLE
105
27
330
A
100
AcDbSymbolTableRecord
100
AcDbDimStyleTableRecord
  2
Standard
 70
     0
178
     0
340
11
  0
ENDTAB
  0
TABLE
  2
BLOCK_RECORD
  5
1
330
0
100
AcDbSymbolTable
 70
     2
  0
BLOCK_RECORD
  5
1F
330
1
100
AcDbSymbolTableRecord
100
AcDbBlockTableRecord
  2
*Model_Space
340
22
 70
     0
280
     1
281
     0
  0
BLOCK_RECORD
  5
1B
330
1
100
AcDbSymbolTableRecord
100
AcDbBlockTableRecord
  2
*Paper_Space
340
1E
 70
     0
280
     1
281
     0
  0
ENDTAB
  0
ENDSEC
  0
SECTION
  2
BLOCKS
  0
BLOCK
  5
20
330
1F
100
AcDbEntity
  8
0
100
AcDbBlockBegin
  2
*Model_Space
 70
     0
 10
0.0
 20
0.0
 30
0.0
  3
*Model_Space
  1

  0
ENDBLK
  5
21
330
1F
100
AcDbEntity
  8
0
100
AcDbBlockEnd
  0
BLOCK
  5
1C
330
1B
100
AcDbEntity
 67
     1
  8
0
100
AcDbBlockBegin
  2
*Paper_Space
 70
     0
 10
0.0
 20
0.0
 30
0.0
  3
*Paper_Space
  1

  0
ENDBLK
  5
1D
330
1B
100
AcDbEntity
 67
     1
  8
0
100
AcDbBlockEnd
  0
ENDSEC
  0
SECTION
  2
ENTITIES
  0
POLYLINE
  5
102
330
1F
100
AcDbEntity
  8
BES-Projet Chambre de visite
100
AcDb3dPolyline
 66
     1
 10
0.0
 20
0.0
 30
0.0
 70
     8
  0
VERTEX
  5
103
330
102
100
AcDbEntity
  8
BES-Projet Chambre de visite
100
AcDbVertex
100
AcDb3dPolylineVertex
 10
163579.76296158592
 20
125855.8683868615
 30
97.57200000000009
 70
    32
  0
VERTEX
  5
104
330
102
100
AcDbEntity
  8
BES-Projet Chambre de visite
100
AcDbVertex
100
AcDb3dPolylineVertex
 10
163581.65026238712
 20
125850.33612462951
 30
97.49053281973512
 70
    32
  0
VERTEX
  5
105
330
102
100
AcDbEntity
  8
BES-Projet Chambre de visite
100
AcDbVertex
100
AcDb3dPolylineVertex
 10
163584.21449104472
 20
125842.8195775328
 30
97.38464444458101
 70
    32
  0
VERTEX
  5
106
330
102
100
AcDbEntity
  8
BES-Projet Chambre de visite
100
AcDbVertex
100
AcDb3dPolylineVertex
 10
163586.78834312392
 20
125835.274821212
 30
97.27154602038004
 70
    32
  0
VERTEX
  5
107
330
102
100
AcDbEntity
  8
BES-Projet Chambre de visite
100
AcDbVertex
100
AcDb3dPolylineVertex
 10
163589.2466689774
 20
125828.0687079812
 30
97.13850096823911
 70
    32
  0
VERTEX
  5
108
330
102
100
AcDbEntity
  8
BES-Projet Chambre de visite
100
AcDbVertex
100
AcDb3dPolylineVertex
 10
163591.24521848792
 20
125822.2103413822
 30
97.10737008742765
 70
    32
  0
VERTEX
  5
109
330
102
100
AcDbEntity
  8
BES-Projet Chambre de visite
100
AcDbVertex
100
AcDb3dPolylineVertex
 10
163593.80673593952
 20
125814.7017416688
 30
96.99577157565722
 70
    32
  0
VERTEX
  5
10A
330
102
100
AcDbEntity
  8
BES-Projet Chambre de visite
100
AcDbVertex
100
AcDb3dPolylineVertex
 10
163596.2199507013
 20
125807.62786299671
 30
96.86925934041253
 70
    32
  0
VERTEX
  5
10B
330
102
100
AcDbEntity
  8
BES-Projet Chambre de visite
100
AcDbVertex
100
AcDb3dPolylineVertex
 10
163598.4884073724
 20
125800.9783150502
 30
96.77472968264487
 70
    32
  0
VERTEX
  5
10C
330
102
100
AcDbEntity
  8
BES-Projet Chambre de visite
100
AcDbVertex
100
AcDb3dPolylineVertex
 10
163600.0422074137
 20
125796.42364666921
 30
96.718833059133
 70
    32
  0
VERTEX
  5
10D
330
102
100
AcDbEntity
  8
BES-Projet Chambre de visite
100
AcDbVertex
100
AcDb3dPolylineVertex
 10
163601.83506269022
 20
125791.1682334738
 30
96.66059563997418
 70
    32
  0
VERTEX
  5
10E
330
102
100
AcDbEntity
  8
BES-Projet Chambre de visite
100
AcDbVertex
100
AcDb3dPolylineVertex
 10
163603.8841114029
 20
125785.1618380979
 30
96.7019986331154
 70
    32
  0
VERTEX
  5
10F
330
102
100
AcDbEntity
  8
BES-Projet Chambre de visite
100
AcDbVertex
100
AcDb3dPolylineVertex
 10
163605.47511692042
 20
125780.82942181091
 30
97.1
 70
    32
  0
VERTEX
  5
110
330
102
100
AcDbEntity
  8
BES-Projet Chambre de visite
100
AcDbVertex
100
AcDb3dPolylineVertex
 10
163597.97782782672
 20
125776.0014606015
 30
97.1
 70
    32
  0
VERTEX
  5
111
330
102
100
AcDbEntity
  8
BES-Projet Chambre de visite
100
AcDbVertex
100
AcDb3dPolylineVertex
 10
163595.69287102012
 20
125782.4980481419
 30
96.56
 70
    32
  0
VERTEX
  5
112
330
102
100
AcDbEntity
  8
BES-Projet Chambre de visite
100
AcDbVertex
100
AcDb3dPolylineVertex
 10
163592.3303551239
 20
125781.24377633931
 30
96.62
 70
    32
  0
VERTEX
  5
113
330
102
100
AcDbEntity
  8
BES-Projet Chambre de visite
100
AcDbVertex
100
AcDb3dPolylineVertex
 10
163591.2830564405
 20
125784.313732622
 30
96.51644962920618
 70
    32
  0
VERTEX
  5
114
330
102
100
AcDbEntity
  8
BES-Projet Chambre de visite
100
AcDbVertex
100
AcDb3dPolylineVertex
 10
163590.2884687994
 20
125787.2291765408
 30
96.5385956399741
 70
    32
  0
VERTEX
  5
115
330
102
100
AcDbEntity
  8
BES-Projet Chambre de visite
100
AcDbVertex
100
AcDb3dPolylineVertex
 10
163588.49561352291
 20
125792.48458973621
 30
96.59683305913298
 70
    32
  0
VERTEX
  5
116
330
102
100
AcDbEntity
  8
BES-Projet Chambre de visite
100
AcDbVertex
100
AcDb3dPolylineVertex
 10
163586.94181348162
 20
125797.03925811731
 30
96.65272968264487
 70
    32
  0
VERTEX
  5
117
330
102
100
AcDbEntity
  8
BES-Projet Chambre de visite
100
AcDbVertex
100
AcDb3dPolylineVertex
 10
163584.67335681053
 20
125803.6888060638
 30
96.74725934041255
 70
    32
  0
VERTEX
  5
118
330
102
100
AcDbEntity
  8
BES-Projet Chambre de visite
100
AcDbVertex
100
AcDb3dPolylineVertex
 10
163582.2601420487
 20
125810.7626847358
 30
96.87377157565712
 70
    32
  0
VERTEX
  5
119
330
102
100
AcDbEntity
  8
BES-Projet Chambre de visite
100
AcDbVertex
100
AcDb3dPolylineVertex
 10
163579.69862459702
 20
125818.2712844493
 30
96.9853700874275
 70
    32
  0
VERTEX
  5
11A
330
102
100
AcDbEntity
  8
BES-Projet Chambre de visite
100
AcDbVertex
100
AcDb3dPolylineVertex
 10
163577.7000750867
 20
125824.1296510482
 30
97.01650096823914
 70
    32
  0
VERTEX
  5
11B
330
102
100
AcDbEntity
  8
BES-Projet Chambre de visite
100
AcDbVertex
100
AcDb3dPolylineVertex
 10
163575.2417492331
 20
125831.33576427911
 30
97.14954602038001
 70
    32
  0
VERTEX
  5
11C
330
102
100
AcDbEntity
  8
BES-Projet Chambre de visite
100
AcDbVertex
100
AcDb3dPolylineVertex
 10
163572.6678971539
 20
125838.88052059991
 30
97.26264444458104
 70
    32
  0
VERTEX
  5
11D
330
102
100
AcDbEntity
  8
BES-Projet Chambre de visite
100
AcDbVertex
100
AcDb3dPolylineVertex
 10
163570.1036684963
 20
125846.39706769651
 30
97.3685328197351
 70
    32
  0
VERTEX
  5
11E
330
102
100
AcDbEntity
  8
BES-Projet Chambre de visite
100
AcDbVertex
100
AcDb3dPolylineVertex
 10
163568.2163676951
 20
125851.9293299285
 30
97.45
 70
    32
  0
SEQEND
  5
11F
330
102
100
AcDbEntity
  8
BES-Projet Chambre de visite
  0
POLYLINE
  5
120
330
1F
100
AcDbEntity
  8
BES-Projet Dalle
100
AcDb3dPolyline
 66
     1
 10
0.0
 20
0.0
 30
0.0
 70
     8
  0
VERTEX
  5
121
330
120
100
AcDbEntity
  8
BES-Projet Dalle
100
AcDbVertex
100
AcDb3dPolylineVertex
 10
163574.8457375684
 20
125893.9527782876
 30
97.62199500080258
 70
    32
  0
VERTEX
  5
122
330
120
100
AcDbEntity
  8
BES-Projet Dalle
100
AcDbVertex
100
AcDb3dPolylineVertex
 10
163576.137656928
 20
125890.1673115139
 30
97.57200000000009
 70
    32
  0
VERTEX
  5
123
330
120
100
AcDbEntity
  8
BES-Projet Dalle
100
AcDbVertex
100
AcDb3dPolylineVertex
 10
163578.0250303803
 20
125884.6348363624
 30
97.49053281973512
 70
    32
  0
VERTEX
  5
124
330
120
100
AcDbEntity
  8
BES-Projet Dalle
100
AcDbVertex
100
AcDb3dPolylineVertex
 10
163580.5892590379
 20
125877.1182892657
 30
97.38464444458101
 70
    32
  0
VERTEX
  5
125
330
120
100
AcDbEntity
  8
BES-Projet Dalle
100
AcDbVertex
100
AcDb3dPolylineVertex
 10
163583.1631111171
 20
125869.5735329449
 30
97.27154602038004
 70
    32
  0
VERTEX
  5
126
330
120
100
AcDbEntity
  8
BES-Projet Dalle
100
AcDbVertex
100
AcDb3dPolylineVertex
 10
163585.6214369707
 20
125862.367419714
 30
97.13850096823911
 70
    32
  0
VERTEX
  5
127
330
120
100
AcDbEntity
  8
BES-Projet Dalle
100
AcDbVertex
100
AcDb3dPolylineVertex
 10
163587.6199864811
 20
125856.5090531151
 30
97.10737008742765
 70
    32
  0
VERTEX
  5
128
330
120
100
AcDbEntity
  8
BES-Projet Dalle
100
AcDbVertex
100
AcDb3dPolylineVertex
 10
163590.1815039327
 20
125849.0004534017
 30
96.99577157565722
 70
    32
  0
VERTEX
  5
129
330
120
100
AcDbEntity
  8
BES-Projet Dalle
100
AcDbVertex
100
AcDb3dPolylineVertex
 10
163592.5947186946
 20
125841.9265747296
 30
96.86925934041253
 70
    32
  0
VERTEX
  5
12A
330
120
100
AcDbEntity
  8
BES-Projet Dalle
100
AcDbVertex
100
AcDb3dPolylineVertex
 10
163594.8631753657
 20
125835.2770267831
 30
96.77472968264487
 70
    32
  0
VERTEX
  5
12B
330
120
100
AcDbEntity
  8
BES-Projet Dalle
100
AcDbVertex
100
AcDb3dPolylineVertex
 10
163596.4169754069
 20
125830.7223584021
 30
96.718833059133
 70
    32
  0
VERTEX
  5
12C
330
120
100
AcDbEntity
  8
BES-Projet Dalle
100
AcDbVertex
100
AcDb3dPolylineVertex
 10
163598.2098306834
 20
125825.4669452066
 30
96.66059563997418
 70
    32
  0
VERTEX
  5
12D
330
120
100
AcDbEntity
  8
BES-Projet Dalle
100
AcDbVertex
100
AcDb3dPolylineVertex
 10
163600.2521433869
 20
125819.4802951564
 30
96.69
 70
    32
  0
VERTEX
  5
12E
330
120
100
AcDbEntity
  8
BES-Projet Dalle
100
AcDbVertex
100
AcDb3dPolylineVertex
 10
163601.7024116907
 20
125815.5490433543
 30
97.1
 70
    32
  0
VERTEX
  5
12F
330
120
100
AcDbEntity
  8
BES-Projet Dalle
100
AcDbVertex
100
AcDb3dPolylineVertex
 10
163600.1462890937
 20
125814.5469612095
 30
97.1
 70
    32
  0
VERTEX
  5
130
330
120
100
AcDbEntity
  8
BES-Projet Dalle
100
AcDbVertex
100
AcDb3dPolylineVertex
 10
163598.5552835762
 20
125818.8793774964
 30
96.69
 70
    32
  0
VERTEX
  5
131
330
120
100
AcDbEntity
  8
BES-Projet Dalle
100
AcDbVertex
100
AcDb3dPolylineVertex
 10
163596.5062348635
 20
125824.8857728723
 30
96.66059563997418
 70
    32
  0
VERTEX
  5
132
330
120
100
AcDbEntity
  8
BES-Projet Dalle
100
AcDbVertex
100
AcDb3dPolylineVertex
 10
163594.713379587
 20
125830.1411860677
 30
96.718833059133
 70
    32
  0
VERTEX
  5
133
330
120
100
AcDbEntity
  8
BES-Projet Dalle
100
AcDbVertex
100
AcDb3dPolylineVertex
 10
163593.1595795457
 20
125834.6958544487
 30
96.77472968264487
 70
    32
  0
VERTEX
  5
134
330
120
100
AcDbEntity
  8
BES-Projet Dalle
100
AcDbVertex
100
AcDb3dPolylineVertex
 10
163590.8911228746
 20
125841.3454023952
 30
96.86925934041253
 70
    32
  0
VERTEX
  5
135
330
120
100
AcDbEntity
  8
BES-Projet Dalle
100
AcDbVertex
100
AcDb3dPolylineVertex
 10
163588.4779081128
 20
125848.4192810673
 30
96.99577157565722
 70
    32
  0
VERTEX
  5
136
330
120
100
AcDbEntity
  8
BES-Projet Dalle
100
AcDbVertex
100
AcDb3dPolylineVertex
 10
163585.9163906612
 20
125855.9278807807
 30
97.10737008742765
 70
    32
  0
VERTEX
  5
137
330
120
100
AcDbEntity
  8
BES-Projet Dalle
100
AcDbVertex
100
AcDb3dPolylineVertex
 10
163583.9178411507
 20
125861.7862473797
 30
97.13850096823911
 70
    32
  0
VERTEX
  5
138
330
120
100
AcDbEntity
  8
BES-Projet Dalle
100
AcDbVertex
100
AcDb3dPolylineVertex
 10
163581.4595152972
 20
125868.9923606105
 30
97.27154602038004
 70
    32
  0
VERTEX
  5
139
330
120
100
AcDbEntity
  8
BES-Projet Dalle
100
AcDbVertex
100
AcDb3dPolylineVertex
 10
163578.885663218
 20
125876.5371169313
 30
97.38464444458101
 70
    32
  0
VERTEX
  5
13A
330
120
100
AcDbEntity
  8
BES-Projet Dalle
100
AcDbVertex
100
AcDb3dPolylineVertex
 10
163576.3214345604
 20
125884.053664028
 30
97.49053281973512
 70
    32
  0
VERTEX
  5
13B
330
120
100
AcDbEntity
  8
BES-Projet Dalle
100
AcDbVertex
100
AcDb3dPolylineVertex
 10
163574.4341337592
 20
125889.58592626
 30
97.57200000000009
 70
    32
  0
VERTEX
  5
13C
330
120
100
AcDbEntity
  8
BES-Projet Dalle
100
AcDbVertex
100
AcDb3dPolylineVertex
 10
163573.1422143996
 20
125893.3713930337
 30
97.62199500080258
 70
    32
  0
VERTEX
  5
13D
330
120
100
AcDbEntity
  8
BES-Projet Dalle
100
AcDbVertex
100
AcDb3dPolylineVertex
 10
163561.5960209978
 20
125889.4327104954
 30
97.5
 70
    32
  0
VERTEX
  5
13E
330
120
100
AcDbEntity
  8
BES-Projet Dalle
100
AcDbVertex
100
AcDb3dPolylineVertex
 10
163562.8875150742
 20
125885.6469420066
 30
97.45
 70
    32
  0
VERTEX
  5
13F
330
120
100
AcDbEntity
  8
BES-Projet Dalle
100
AcDbVertex
100
AcDb3dPolylineVertex
 10
163574.4341337592
 20
125889.58592626
 30
97.57200000000009
 70
    32
  0
VERTEX
  5
140
330
120
100
AcDbEntity
  8
BES-Projet Dalle
100
AcDbVertex
100
AcDb3dPolylineVertex
 10
163573.1422143996
 20
125893.3713930337
 30
97.62199500080258
 70
    32
  0
SEQEND
  5
141
330
120
100
AcDbEntity
  8
BES-Projet Dalle
  0
ENDSEC
  0
SECTION
  2
OBJECTS
  0
DICTIONARY
  5
C
330
0
100
AcDbDictionary
281
     1
  3
ACAD_GROUP
350
D
  3
ACAD_LAYOUT
350
1A
  3
ACAD_MLINESTYLE
350
17
  3
ACAD_PLOTSTYLENAME
350
E
  0
DICTIONARY
  5
D
330
C
100
AcDbDictionary
281
     1
  0
DICTIONARY
  5
1A
330
C
100
AcDbDictionary
281
     1
  0
DICTIONARY
  5
17
330
C
100
AcDbDictionary
281
     1
  0
ACDBDICTIONARYWDFLT
  5
E
330
C
100
AcDbDictionary
281
     1
  3
Normal
350
F
100
AcDbDictionaryWithDefault
340
F
  0
ACDBPLACEHOLDER
  5
F
330
E
  0
ENDSEC
  0
EOF
