  0
SECTION
  2
HEADER
  9
$ACADVER
  1
AC1024
  9
$ACADMAINTVER
 70
     6
  9
$DWGCODEPAGE
  3
ANSI_1252
  9
$LASTSAVEDBY
  1
vince
  9
$INSBASE
 10
0.0
 20
0.0
 30
0.0
  9
$EXTMIN
 10
212796.511059415410273
 20
60406.194086162977328
 30
429.5
  9
$EXTMAX
 10
212837.789877597795567
 20
60433.972530985658523
 30
430.962779095612291
  9
$LIMMIN
 10
212796.511059415410273
 20
60406.194086162977328
  9
$LIMMAX
 10
212837.789877597795567
 20
60433.972530985658523
  9
$ORTHOMODE
 70
     0
  9
$REGENMODE
 70
     1
  9
$FILLMODE
 70
     1
  9
$QTEXTMODE
 70
     0
  9
$MIRRTEXT
 70
     1
  9
$LTSCALE
 40
1.0
  9
$ATTMODE
 70
     1
  9
$TEXTSIZE
 40
0.2
  9
$TRACEWID
 40
0.05
  9
$TEXTSTYLE
  7
Standard
  9
$CLAYER
  8
0
  9
$CELTYPE
  6
ByLayer
  9
$CECOLOR
 62
   256
  9
$CELTSCALE
 40
1.0
  9
$DISPSILH
 70
     0
  9
$DIMSCALE
 40
1.0
  9
$DIMASZ
 40
0.18
  9
$DIMEXO
 40
0.0625
  9
$DIMDLI
 40
0.38
  9
$DIMRND
 40
0.0
  9
$DIMDLE
 40
0.0
  9
$DIMEXE
 40
0.18
  9
$DIMTP
 40
0.0
  9
$DIMTM
 40
0.0
  9
$DIMTXT
 40
0.18
  9
$DIMCEN
 40
0.09
  9
$DIMTSZ
 40
0.0
  9
$DIMTOL
 70
     0
  9
$DIMLIM
 70
     0
  9
$DIMTIH
 70
     1
  9
$DIMTOH
 70
     1
  9
$DIMSE1
 70
     0
  9
$DIMSE2
 70
     0
  9
$DIMTAD
 70
     0
  9
$DIMZIN
 70
     0
  9
$DIMBLK
  1

  9
$DIMASO
 70
     1
  9
$DIMSHO
 70
     1
  9
$DIMPOST
  1

  9
$DIMAPOST
  1

  9
$DIMALT
 70
     0
  9
$DIMALTD
 70
     2
  9
$DIMALTF
 40
25.4
  9
$DIMLFAC
 40
1.0
  9
$DIMTOFL
 70
     0
  9
$DIMTVP
 40
0.0
  9
$DIMTIX
 70
     0
  9
$DIMSOXD
 70
     0
  9
$DIMSAH
 70
     0
  9
$DIMBLK1
  1

  9
$DIMBLK2
  1

  9
$DIMSTYLE
  2
Standard
  9
$DIMCLRD
 70
     0
  9
$DIMCLRE
 70
     0
  9
$DIMCLRT
 70
     0
  9
$DIMTFAC
 40
1.0
  9
$DIMGAP
 40
0.09
  9
$DIMJUST
 70
     0
  9
$DIMSD1
 70
     0
  9
$DIMSD2
 70
     0
  9
$DIMTOLJ
 70
     1
  9
$DIMTZIN
 70
     0
  9
$DIMALTZ
 70
     0
  9
$DIMALTTZ
 70
     0
  9
$DIMUPT
 70
     0
  9
$DIMDEC
 70
     4
  9
$DIMTDEC
 70
     4
  9
$DIMALTU
 70
     2
  9
$DIMALTTD
 70
     2
  9
$DIMTXSTY
  7
Standard
  9
$DIMAUNIT
 70
     0
  9
$DIMADEC
 70
     0
  9
$DIMALTRND
 40
0.0
  9
$DIMAZIN
 70
     0
  9
$DIMDSEP
 70
    46
  9
$DIMATFIT
 70
     3
  9
$DIMFRAC
 70
     0
  9
$DIMLDRBLK
  1

  9
$DIMLUNIT
 70
     2
  9
$DIMLWD
 70
    -2
  9
$DIMLWE
 70
    -2
  9
$DIMTMOVE
 70
     0
  9
$DIMFXL
 40
1.0
  9
$DIMFXLON
 70
     0
  9
$DIMJOGANG
 40
0.7853981633974483
  9
$DIMTFILL
 70
     0
  9
$DIMTFILLCLR
 70
     0
  9
$DIMARCSYM
 70
     0
  9
$DIMLTYPE
  6

  9
$DIMLTEX1
  6

  9
$DIMLTEX2
  6

  9
$DIMTXTDIRECTION
 70
     0
  9
$LUNITS
 70
     2
  9
$LUPREC
 70
     4
  9
$SKETCHINC
 40
0.1
  9
$FILLETRAD
 40
0.5
  9
$AUNITS
 70
     0
  9
$AUPREC
 70
     0
  9
$MENU
  1
.
  9
$ELEVATION
 40
0.0
  9
$PELEVATION
 40
0.0
  9
$THICKNESS
 40
0.0
  9
$LIMCHECK
 70
     0
  9
$CHAMFERA
 40
0.0
  9
$CHAMFERB
 40
0.0
  9
$CHAMFERC
 40
0.0
  9
$CHAMFERD
 40
0.0
  9
$SKPOLY
 70
     0
  9
$TDCREATE
 40
2461108.688566736
  9
$TDUCREATE
 40
2461108.64690007
  9
$TDUPDATE
 40
2461108.688566933
  9
$TDUUPDATE
 40
2461108.646900267
  9
$TDINDWG
 40
0.0000000116
  9
$TDUSRTIMER
 40
0.0000000116
  9
$USRTIMER
 70
     1
  9
$ANGBASE
 50
0.0
  9
$ANGDIR
 70
     0
  9
$PDMODE
 70
     0
  9
$PDSIZE
 40
0.0
  9
$PLINEWID
 40
0.0
  9
$SPLFRAME
 70
     0
  9
$SPLINETYPE
 70
     6
  9
$SPLINESEGS
 70
     8
  9
$HANDSEED
  5
101C8
  9
$SURFTAB1
 70
     6
  9
$SURFTAB2
 70
     6
  9
$SURFTYPE
 70
     6
  9
$SURFU
 70
     6
  9
$SURFV
 70
     6
  9
$UCSBASE
  2

  9
$UCSNAME
  2

  9
$UCSORG
 10
0.0
 20
0.0
 30
0.0
  9
$UCSXDIR
 10
1.0
 20
0.0
 30
0.0
  9
$UCSYDIR
 10
0.0
 20
1.0
 30
0.0
  9
$UCSORTHOREF
  2

  9
$UCSORTHOVIEW
 70
     0
  9
$UCSORGTOP
 10
0.0
 20
0.0
 30
0.0
  9
$UCSORGBOTTOM
 10
0.0
 20
0.0
 30
0.0
  9
$UCSORGLEFT
 10
0.0
 20
0.0
 30
0.0
  9
$UCSORGRIGHT
 10
0.0
 20
0.0
 30
0.0
  9
$UCSORGFRONT
 10
0.0
 20
0.0
 30
0.0
  9
$UCSORGBACK
 10
0.0
 20
0.0
 30
0.0
  9
$PUCSBASE
  2

  9
$PUCSNAME
  2

  9
$PUCSORG
 10
0.0
 20
0.0
 30
0.0
  9
$PUCSXDIR
 10
1.0
 20
0.0
 30
0.0
  9
$PUCSYDIR
 10
0.0
 20
1.0
 30
0.0
  9
$PUCSORTHOREF
  2

  9
$PUCSORTHOVIEW
 70
     0
  9
$PUCSORGTOP
 10
0.0
 20
0.0
 30
0.0
  9
$PUCSORGBOTTOM
 10
0.0
 20
0.0
 30
0.0
  9
$PUCSORGLEFT
 10
0.0
 20
0.0
 30
0.0
  9
$PUCSORGRIGHT
 10
0.0
 20
0.0
 30
0.0
  9
$PUCSORGFRONT
 10
0.0
 20
0.0
 30
0.0
  9
$PUCSORGBACK
 10
0.0
 20
0.0
 30
0.0
  9
$USERI1
 70
     0
  9
$USERI2
 70
     0
  9
$USERI3
 70
     0
  9
$USERI4
 70
     0
  9
$USERI5
 70
     0
  9
$USERR1
 40
0.0
  9
$USERR2
 40
0.0
  9
$USERR3
 40
0.0
  9
$USERR4
 40
0.0
  9
$USERR5
 40
0.0
  9
$WORLDVIEW
 70
     1
  9
$SHADEDGE
 70
     3
  9
$SHADEDIF
 70
    70
  9
$TILEMODE
 70
     1
  9
$MAXACTVP
 70
    64
  9
$PINSBASE
 10
0.0
 20
0.0
 30
0.0
  9
$PLIMCHECK
 70
     0
  9
$PEXTMIN
 10
1.000000000000000E+20
 20
1.000000000000000E+20
 30
1.000000000000000E+20
  9
$PEXTMAX
 10
-1.000000000000000E+20
 20
-1.000000000000000E+20
 30
-1.000000000000000E+20
  9
$PLIMMIN
 10
0.0
 20
0.0
  9
$PLIMMAX
 10
12.0
 20
9.0
  9
$UNITMODE
 70
     0
  9
$VISRETAIN
 70
     0
  9
$PLINEGEN
 70
     1
  9
$PSLTSCALE
 70
     0
  9
$TREEDEPTH
 70
  3020
  9
$CMLSTYLE
  2
Standard
  9
$CMLJUST
 70
     0
  9
$CMLSCALE
 40
1.0
  9
$PROXYGRAPHICS
 70
     1
  9
$MEASUREMENT
 70
     1
  9
$CELWEIGHT
370
    -1
  9
$ENDCAPS
280
     0
  9
$JOINSTYLE
280
     0
  9
$LWDISPLAY
290
     0
  9
$INSUNITS
 70
     6
  9
$HYPERLINKBASE
  1

  9
$STYLESHEET
  1

  9
$XEDIT
290
     1
  9
$CEPSNTYPE
380
     0
  9
$PSTYLEMODE
290
     1
  9
$FINGERPRINTGUID
  2
{6bd7263f-968f-4ac4-9a52-b90b7cc32f8f}
  9
$VERSIONGUID
  2
{FAEB1C32-E019-11D5-929B-00C0DF256EC4}
  9
$EXTNAMES
290
     1
  9
$PSVPSCALE
 40
0.0
  9
$OLESTARTUP
290
     0
  9
$SORTENTS
280
   127
  9
$INDEXCTL
280
     0
  9
$HIDETEXT
280
     1
  9
$XCLIPFRAME
280
     2
  9
$HALOGAP
280
     0
  9
$OBSCOLOR
 70
   257
  9
$OBSLTYPE
280
     0
  9
$INTERSECTIONDISPLAY
280
     0
  9
$INTERSECTIONCOLOR
 70
   257
  9
$DIMASSOC
280
     2
  9
$PROJECTNAME
  1

  9
$CAMERADISPLAY
290
     0
  9
$LENSLENGTH
 40
50.0
  9
$CAMERAHEIGHT
 40
0.0
  9
$STEPSPERSEC
 40
2.0
  9
$STEPSIZE
 40
6.0
  9
$3DDWFPREC
 40
2.0
  9
$PSOLWIDTH
 40
0.25
  9
$PSOLHEIGHT
 40
4.0
  9
$LOFTANG1
 40
1.570796326794897
  9
$LOFTANG2
 40
1.570796326794897
  9
$LOFTMAG1
 40
0.0
  9
$LOFTMAG2
 40
0.0
  9
$LOFTPARAM
 70
     7
  9
$LOFTNORMALS
280
     1
  9
$LATITUDE
 40
37.795
  9
$LONGITUDE
 40
-122.394
  9
$NORTHDIRECTION
 40
0.0
  9
$TIMEZONE
 70
 -8000
  9
$LIGHTGLYPHDISPLAY
280
     1
  9
$TILEMODELIGHTSYNCH
280
     1
  9
$CMATERIAL
347
44
  9
$SOLIDHIST
280
     0
  9
$SHOWHIST
280
     1
  9
$DWFFRAME
280
     2
  9
$DGNFRAME
280
     2
  9
$REALWORLDSCALE
290
     1
  9
$INTERFERECOLOR
 62
   256
  9
$CSHADOW
280
     0
  9
$SHADOWPLANELOCATION
 40
0.0
  0
ENDSEC
  0
SECTION
  2
CLASSES
  0
CLASS
  1
ACDBDICTIONARYWDFLT
  2
AcDbDictionaryWithDefault
  3
ObjectDBX Classes
 90
        0
 91
        3
280
     0
281
     0
  0
CLASS
  1
VISUALSTYLE
  2
AcDbVisualStyle
  3
ObjectDBX Classes
 90
     4095
 91
        3
280
     0
281
     0
  0
CLASS
  1
MATERIAL
  2
AcDbMaterial
  3
ObjectDBX Classes
 90
     1153
 91
        3
280
     0
281
     0
  0
CLASS
  1
SCALE
  2
AcDbScale
  3
ObjectDBX Classes
 90
     1153
 91
        3
280
     0
281
     0
  0
CLASS
  1
TABLESTYLE
  2
AcDbTableStyle
  3
ObjectDBX Classes
 90
     4095
 91
        3
280
     0
281
     0
  0
CLASS
  1
MLEADERSTYLE
  2
AcDbMLeaderStyle
  3
ACDB_MLEADERSTYLE_CLASS
 90
     4095
 91
        3
280
     0
281
     0
  0
CLASS
  1
SUN
  2
AcDbSun
  3
SCENEOE
 90
     1153
 91
        3
280
     0
281
     0
  0
CLASS
  1
DICTIONARYVAR
  2
AcDbDictionaryVar
  3
ObjectDBX Classes
 90
        0
 91
        3
280
     0
281
     0
  0
CLASS
  1
CELLSTYLEMAP
  2
AcDbCellStyleMap
  3
ObjectDBX Classes
 90
     1152
 91
        3
280
     0
281
     0
  0
ENDSEC
  0
SECTION
  2
TABLES
  0
TABLE
  2
VPORT
  5
8
330
0
100
AcDbSymbolTable
 70
     1
  0
VPORT
  5
29
330
8
100
AcDbSymbolTableRecord
100
AcDbViewportTableRecord
  2
*Active
 70
     0
 10
0.0
 20
0.0
 11
1.0
 21
1.0
 12
212817.1504685066
 22
60420.08330857432
 13
0.0
 23
0.0
 14
0.5
 24
0.5
 15
0.5
 25
0.5
 16
0.0
 26
0.0
 36
1.0
 17
0.0
 27
0.0
 37
0.0
 40
28.3340137191274
 41
1.486001770290643
 42
50.0
 43
0.0
 44
0.0
 50
0.0
 51
0.0
 71
     0
 72
   100
 73
     1
 74
     3
 75
     0
 76
     0
 77
     0
 78
     0
281
     0
 65
     1
110
0.0
120
0.0
130
0.0
111
1.0
121
0.0
131
0.0
112
0.0
122
1.0
132
0.0
 79
     0
146
0.0
348
2F
 60
     3
 61
     5
292
     1
282
     1
141
0.0
142
0.0
 63
   250
361
5D
  0
ENDTAB
  0
TABLE
  2
LTYPE
  5
5
330
0
100
AcDbSymbolTable
 70
     6
  0
LTYPE
  5
14
330
5
100
AcDbSymbolTableRecord
100
AcDbLinetypeTableRecord
  2
ByBlock
 70
     0
  3

 72
    65
 73
     0
 40
0.0
  0
LTYPE
  5
15
330
5
100
AcDbSymbolTableRecord
100
AcDbLinetypeTableRecord
  2
ByLayer
 70
     0
  3

 72
    65
 73
     0
 40
0.0
  0
LTYPE
  5
16
330
5
100
AcDbSymbolTableRecord
100
AcDbLinetypeTableRecord
  2
Continuous
 70
     0
  3
Solid line
 72
    65
 73
     0
 40
0.0
  0
LTYPE
  5
60
330
5
100
AcDbSymbolTableRecord
100
AcDbLinetypeTableRecord
  2
INVISIBLE
 70
     0
  3
.    .    .     
 72
    65
 73
     2
 40
1.25
 49
0.0
 74
     0
 49
-1.25
 74
     0
  0
LTYPE
  5
61
330
5
100
AcDbSymbolTableRecord
100
AcDbLinetypeTableRecord
  2
DASHED
 70
     0
  3
__ __ __ __ __ __ __ __ __ __ __ __ __ __ __
 72
    65
 73
     2
 40
2.25
 49
2.0
 74
     0
 49
-0.25
 74
     0
  0
LTYPE
  5
62
330
5
100
AcDbSymbolTableRecord
100
AcDbLinetypeTableRecord
  2
DOT
 70
     0
  3
. . . . . . . . . . . . . . .
 72
    65
 73
     2
 40
0.25
 49
0.0
 74
     0
 49
-0.25
 74
     0
  0
LTYPE
  5
63
330
5
100
AcDbSymbolTableRecord
100
AcDbLinetypeTableRecord
  2
DASHDOT
 70
     0
  3
- . - . - . - . 
 72
    65
 73
     4
 40
2.5
 49
2.0
 74
     0
 49
-0.25
 74
     0
 49
0.0
 74
     0
 49
-0.25
 74
     0
  0
LTYPE
  5
64
330
5
100
AcDbSymbolTableRecord
100
AcDbLinetypeTableRecord
  2
DASHDOTDOT
 70
     0
  3
- .. - .. - .. - .. 
 72
    65
 73
     6
 40
2.75
 49
2.0
 74
     0
 49
-0.25
 74
     0
 49
0.0
 74
     0
 49
-0.25
 74
     0
 49
0.0
 74
     0
 49
-0.25
 74
     0
  0
ENDTAB
  0
TABLE
  2
LAYER
  5
2
330
0
100
AcDbSymbolTable
 70
     2
  0
LAYER
  5
10
330
2
100
AcDbSymbolTableRecord
100
AcDbLayerTableRecord
  2
0
 70
     0
 62
     7
  6
Continuous
370
    -3
390
F
347
46
  0
LAYER
  5
10000
330
2
100
AcDbSymbolTableRecord
100
AcDbLayerTableRecord
  2
Velddata
 70
     0
 62
     1
  6
Continuous
370
     9
390
F
347
46
  0
ENDTAB
  0
TABLE
  2
STYLE
  5
3
330
0
100
AcDbSymbolTable
 70
     1
  0
STYLE
  5
11
330
3
100
AcDbSymbolTableRecord
100
AcDbTextStyleTableRecord
  2
Standard
 70
     0
 40
0.0
 41
1.0
 50
0.0
 71
     0
 42
0.2
  3
txt
  4

  0
ENDTAB
  0
TABLE
  2
VIEW
  5
6
330
0
100
AcDbSymbolTable
 70
     0
  0
ENDTAB
  0
TABLE
  2
UCS
  5
7
330
0
100
AcDbSymbolTable
 70
     0
  0
ENDTAB
  0
TABLE
  2
APPID
  5
9
330
0
100
AcDbSymbolTable
 70
     1
  0
APPID
  5
12
330
9
100
AcDbSymbolTableRecord
100
AcDbRegAppTableRecord
  2
ACAD
 70
     0
  0
ENDTAB
  0
TABLE
  2
DIMSTYLE
  5
A
330
0
100
AcDbSymbolTable
 70
     1
100
AcDbDimStyleTable
  0
DIMSTYLE
105
27
330
A
100
AcDbSymbolTableRecord
100
AcDbDimStyleTableRecord
  2
Standard
 70
     0
178
     0
340
11
  0
ENDTAB
  0
TABLE
  2
BLOCK_RECORD
  5
1
330
0
100
AcDbSymbolTable
 70
     1
  0
BLOCK_RECORD
  5
1F
330
1
100
AcDbSymbolTableRecord
100
AcDbBlockTableRecord
  2
*Model_Space
340
22
 70
     0
280
     1
281
     0
  0
BLOCK_RECORD
  5
1B
330
1
100
AcDbSymbolTableRecord
100
AcDbBlockTableRecord
  2
*Paper_Space
340
1E
 70
     0
280
     1
281
     0
  0
BLOCK_RECORD
  5
66
330
1
100
AcDbSymbolTableRecord
100
AcDbBlockTableRecord
  2
ARROW
340
0
 70
     0
280
     1
281
     0
  0
ENDTAB
  0
ENDSEC
  0
SECTION
  2
BLOCKS
  0
BLOCK
  5
20
330
1F
100
AcDbEntity
  8
0
100
AcDbBlockBegin
  2
*Model_Space
 70
     0
 10
0.0
 20
0.0
 30
0.0
  3
*Model_Space
  1

  0
ENDBLK
  5
21
330
1F
100
AcDbEntity
  8
0
100
AcDbBlockEnd
  0
BLOCK
  5
1C
330
1B
100
AcDbEntity
 67
     1
  8
0
100
AcDbBlockBegin
  2
*Paper_Space
 70
     0
 10
0.0
 20
0.0
 30
0.0
  3
*Paper_Space
  1

  0
ENDBLK
  5
1D
330
1B
100
AcDbEntity
 67
     1
  8
0
100
AcDbBlockEnd
  0
BLOCK
  5
6A
330
66
100
AcDbEntity
  8
0
100
AcDbBlockBegin
  2
ARROW
 70
     0
 10
0.0
 20
0.0
 30
0.0
  3
ARROW
  1

  0
LINE
  5
67
330
66
100
AcDbEntity
  8
0
  6
Continuous
 62
     0
370
     9
100
AcDbLine
 10
-0.3499999999999999
 20
0.0833333333333333
 30
0.0
 11
0.0
 21
0.0
 31
0.0
  0
LINE
  5
68
330
66
100
AcDbEntity
  8
0
  6
Continuous
 62
     0
370
     9
100
AcDbLine
 10
0.0
 20
0.0
 30
0.0
 11
-0.3499999999999999
 21
-0.0833333333333333
 31
0.0
  0
HATCH
  5
69
330
66
100
AcDbEntity
  8
0
  6
Continuous
 62
     0
370
     9
100
AcDbHatch
 10
0.0
 20
0.0
 30
0.0
210
0.0
220
0.0
230
1.0
  2
SOLID
 70
     1
 71
     0
 91
        1
 92
        1
 93
        4
 72
     1
 10
0.0
 20
0.0
 11
-0.35
 21
-0.083333333333
 72
     1
 10
-0.35
 20
-0.083333333333
 11
-0.3
 21
0.0
 72
     1
 10
-0.3
 20
0.0
 11
-0.35
 21
0.083333333333
 72
     1
 10
-0.35
 20
0.083333333333
 11
0.0
 21
0.0
 97
        0
 75
     0
 76
     1
 98
        1
 10
0.0
 20
0.0
1001
ACAD
1010
0.0
1020
0.0
1030
0.0
  0
ENDBLK
  5
6B
330
66
100
AcDbEntity
  8
0
100
AcDbBlockEnd
  0
ENDSEC
  0
SECTION
  2
ENTITIES
  0
LINE
  5
10001
330
1F
100
AcDbEntity
  8
Velddata
100
AcDbLine
 10
212798.4816719992
 20
60417.02000292094
 30
429.5
 11
212801.478024277
 21
60421.01578496994
 31
429.5
  0
LINE
  5
10002
330
1F
100
AcDbEntity
  8
Velddata
100
AcDbLine
 10
212801.478024277
 20
60421.01578496994
 30
429.5
 11
212801.478024277
 21
60421.01578496994
 31
429.5
  0
LINE
  5
10003
330
1F
100
AcDbEntity
  8
Velddata
100
AcDbLine
 10
212801.478024277
 20
60421.01578496994
 30
429.5
 11
212802.5897111781
 21
60420.18226471504
 31
429.5
  0
LINE
  5
10004
330
1F
100
AcDbEntity
  8
Velddata
100
AcDbLine
 10
212802.5897111781
 20
60420.18226471504
 30
429.5
 11
212802.5897111781
 21
60420.18226471504
 31
429.5
  0
LINE
  5
10005
330
1F
100
AcDbEntity
  8
Velddata
100
AcDbLine
 10
212802.5897111781
 20
60420.18226471504
 30
429.5
 11
212802.4690032144
 21
60420.02127347171
 31
429.5
  0
LINE
  5
10006
330
1F
100
AcDbEntity
  8
Velddata
100
AcDbLine
 10
212802.4690032144
 20
60420.02127347171
 30
429.5
 11
212807.8282254311
 21
60417.26134893634
 31
429.5
  0
LINE
  5
10007
330
1F
100
AcDbEntity
  8
Velddata
100
AcDbLine
 10
212807.8282254311
 20
60417.26134893634
 30
429.5
 11
212807.7643091174
 21
60417.17607267276
 31
429.5
  0
LINE
  5
10008
330
1F
100
AcDbEntity
  8
Velddata
100
AcDbLine
 10
212807.7643091174
 20
60417.17607267276
 30
429.5
 11
212802.4690032144
 21
60420.02127347171
 31
429.5
  0
LINE
  5
10009
330
1F
100
AcDbEntity
  8
Velddata
100
AcDbLine
 10
212802.4690032144
 20
60420.02127347171
 30
429.5
 11
212803.9421630364
 21
60418.91672816385
 31
429.5
  0
LINE
  5
1000A
330
1F
100
AcDbEntity
  8
Velddata
100
AcDbLine
 10
212803.9421630364
 20
60418.91672816385
 30
429.5
 11
212806.9880802161
 21
60416.14043878629
 31
429.5
  0
LINE
  5
1000B
330
1F
100
AcDbEntity
  8
Velddata
100
AcDbLine
 10
212806.9880802161
 20
60416.14043878629
 30
429.5
 11
212808.1089475544
 21
60415.30003522602
 31
429.5
  0
LINE
  5
1000C
330
1F
100
AcDbEntity
  8
Velddata
100
AcDbLine
 10
212808.1089475544
 20
60415.30003522602
 30
429.5
 11
212808.1089475544
 21
60415.30003522602
 31
429.5
  0
LINE
  5
1000D
330
1F
100
AcDbEntity
  8
Velddata
100
AcDbLine
 10
212808.1089475544
 20
60415.30003522602
 30
429.5
 11
212808.4049920857
 21
60415.69501375359
 31
429.5
  0
LINE
  5
1000E
330
1F
100
AcDbEntity
  8
Velddata
100
AcDbLine
 10
212808.4049920857
 20
60415.69501375359
 30
429.5
 11
212805.0582018231
 21
60418.20436910355
 31
429.5
  0
LINE
  5
1000F
330
1F
100
AcDbEntity
  8
Velddata
100
AcDbLine
 10
212805.0582018231
 20
60418.20436910355
 30
429.5
 11
212807.2841247473
 21
60416.53541731385
 31
429.5
  0
LINE
  5
10010
330
1F
100
AcDbEntity
  8
Velddata
100
AcDbLine
 10
212807.2841247473
 20
60416.53541731385
 30
429.5
 11
212811.3527366686
 21
60413.48485474777
 31
429.5
  0
LINE
  5
10011
330
1F
100
AcDbEntity
  8
Velddata
100
AcDbLine
 10
212811.3527366686
 20
60413.48485474777
 30
429.5
 11
212810.9931539977
 21
60413.00527030719
 31
429.5
  0
LINE
  5
10012
330
1F
100
AcDbEntity
  8
Velddata
100
AcDbLine
 10
212810.9931539977
 20
60413.00527030719
 30
429.5
 11
212810.9931539977
 21
60413.00527030719
 31
429.5
  0
LINE
  5
10013
330
1F
100
AcDbEntity
  8
Velddata
100
AcDbLine
 10
212810.9931539977
 20
60413.00527030719
 30
429.5
 11
212812.5945932073
 21
60411.80454372046
 31
429.5
  0
LINE
  5
10014
330
1F
100
AcDbEntity
  8
Velddata
100
AcDbLine
 10
212812.5945932073
 20
60411.80454372046
 30
429.5
 11
212812.5945932073
 21
60411.80454372046
 31
429.5
  0
LINE
  5
10015
330
1F
100
AcDbEntity
  8
Velddata
100
AcDbLine
 10
212812.5945932073
 20
60411.80454372046
 30
429.5
 11
212810.0115784812
 21
60408.37511326675
 31
429.5
  0
LINE
  5
10016
330
1F
100
AcDbEntity
  8
Velddata
100
AcDbLine
 10
212810.0115784812
 20
60408.37511326675
 30
429.5
 11
212810.0115784812
 21
60408.37511326675
 31
429.5
  0
LINE
  5
10017
330
1F
100
AcDbEntity
  8
Velddata
100
AcDbLine
 10
212810.0115784812
 20
60408.37511326675
 30
429.5
 11
212798.4816719992
 21
60417.02000292094
 31
429.5
  0
LINE
  5
10018
330
1F
100
AcDbEntity
  8
Velddata
100
AcDbLine
 10
212798.4816719992
 20
60417.02000292094
 30
429.5
 11
212797.6270640819
 21
60416.89907971309
 31
429.92
  0
LINE
  5
10019
330
1F
100
AcDbEntity
  8
Velddata
100
AcDbLine
 10
212797.6270640819
 20
60416.89907971309
 30
429.92
 11
212801.3543258885
 21
60421.87022240939
 31
429.92
  0
LINE
  5
1001A
330
1F
100
AcDbEntity
  8
Velddata
100
AcDbLine
 10
212801.3543258885
 20
60421.87022240939
 30
429.92
 11
212801.3543258885
 21
60421.87022240939
 31
429.92
  0
LINE
  5
1001B
330
1F
100
AcDbEntity
  8
Velddata
100
AcDbLine
 10
212801.3543258885
 20
60421.87022240939
 30
429.92
 11
212802.9472918748
 21
60420.67584887342
 31
429.92
  0
LINE
  5
1001C
330
1F
100
AcDbEntity
  8
Velddata
100
AcDbLine
 10
212802.9472918748
 20
60420.67584887342
 30
429.92
 11
212802.9472918748
 21
60420.67584887342
 31
429.92
  0
LINE
  5
1001D
330
1F
100
AcDbEntity
  8
Velddata
100
AcDbLine
 10
212802.9472918748
 20
60420.67584887342
 30
429.92
 11
212803.0667292285
 21
60420.83514547203
 31
429.92
  0
LINE
  5
1001E
330
1F
100
AcDbEntity
  8
Velddata
100
AcDbLine
 10
212803.0667292285
 20
60420.83514547203
 30
429.92
 11
212803.0667292285
 21
60420.83514547203
 31
429.92
  0
LINE
  5
1001F
330
1F
100
AcDbEntity
  8
Velddata
100
AcDbLine
 10
212803.0667292285
 20
60420.83514547203
 30
429.92
 11
212804.5398890505
 21
60419.73060016419
 31
429.92
  0
LINE
  5
10020
330
1F
100
AcDbEntity
  8
Velddata
100
AcDbLine
 10
212804.5398890505
 20
60419.73060016419
 30
429.92
 11
212810.1734626865
 21
60424.72611335353
 31
429.92
  0
LINE
  5
10021
330
1F
100
AcDbEntity
  8
Velddata
100
AcDbLine
 10
212810.1734626865
 20
60424.72611335353
 30
429.92
 11
212809.8014259599
 21
60424.22991862623
 31
429.92
  0
LINE
  5
10022
330
1F
100
AcDbEntity
  8
Velddata
100
AcDbLine
 10
212809.8014259599
 20
60424.22991862623
 30
429.92
 11
212805.6275319769
 21
60420.74799852104
 31
429.92
  0
LINE
  5
10023
330
1F
100
AcDbEntity
  8
Velddata
100
AcDbLine
 10
212805.6275319769
 20
60420.74799852104
 30
429.92
 11
212808.8007528924
 21
60424.9802029639
 31
429.92
  0
LINE
  5
10024
330
1F
100
AcDbEntity
  8
Velddata
100
AcDbLine
 10
212808.8007528924
 20
60424.9802029639
 30
429.92
 11
212810.1714607122
 21
60424.74011307137
 31
429.5
  0
LINE
  5
10025
330
1F
100
AcDbEntity
  8
Velddata
100
AcDbLine
 10
212810.1714607122
 20
60424.74011307137
 30
429.5
 11
212809.7994239857
 21
60424.24391834405
 31
429.5
  0
LINE
  5
10026
330
1F
100
AcDbEntity
  8
Velddata
100
AcDbLine
 10
212809.7994239857
 20
60424.24391834405
 30
429.5
 11
212808.8147526103
 21
60424.98220493813
 31
429.5
  0
LINE
  5
10027
330
1F
100
AcDbEntity
  8
Velddata
100
AcDbLine
 10
212808.8147526103
 20
60424.98220493813
 30
429.5
 11
212808.4785384128
 21
60425.23429151329
 31
429.5
  0
LINE
  5
10028
330
1F
100
AcDbEntity
  8
Velddata
100
AcDbLine
 10
212808.4785384128
 20
60425.23429151329
 30
429.5
 11
212798.4956722247
 21
60417.02200451445
 31
429.92
  0
LINE
  5
10029
330
1F
100
AcDbEntity
  8
Velddata
100
AcDbLine
 10
212798.4956722247
 20
60417.02200451445
 30
429.92
 11
212801.4800257436
 21
60421.00178563271
 31
429.92
  0
LINE
  5
1002A
330
1F
100
AcDbEntity
  8
Velddata
100
AcDbLine
 10
212801.4800257436
 20
60421.00178563271
 30
429.92
 11
212801.4800257436
 21
60421.00178563271
 31
429.92
  0
LINE
  5
1002B
330
1F
100
AcDbEntity
  8
Velddata
100
AcDbLine
 10
212801.4800257436
 20
60421.00178563271
 30
429.92
 11
212802.5757114603
 21
60420.18026274082
 31
429.92
  0
LINE
  5
1002C
330
1F
100
AcDbEntity
  8
Velddata
100
AcDbLine
 10
212802.5757114603
 20
60420.18026274082
 30
429.92
 11
212802.5757114603
 21
60420.18026274082
 31
429.92
  0
LINE
  5
1002D
330
1F
100
AcDbEntity
  8
Velddata
100
AcDbLine
 10
212802.5757114603
 20
60420.18026274082
 30
429.92
 11
212802.4550034965
 21
60420.01927149748
 31
429.92
  0
LINE
  5
1002E
330
1F
100
AcDbEntity
  8
Velddata
100
AcDbLine
 10
212802.4550034965
 20
60420.01927149748
 30
429.92
 11
212808.9490927695
 21
60416.42094537608
 31
429.5
  0
LINE
  5
1002F
330
1F
100
AcDbEntity
  8
Velddata
100
AcDbLine
 10
212808.9490927695
 20
60416.42094537608
 30
429.5
 11
212807.8282254311
 21
60417.26134893634
 31
429.5
  0
LINE
  5
10030
330
1F
100
AcDbEntity
  8
Velddata
100
AcDbLine
 10
212807.8282254311
 20
60417.26134893634
 30
429.5
 11
212802.4550034965
 21
60420.01927149748
 31
429.92
  0
LINE
  5
10031
330
1F
100
AcDbEntity
  8
Velddata
100
AcDbLine
 10
212802.4550034965
 20
60420.01927149748
 30
429.92
 11
212803.9281633186
 21
60418.9147261897
 31
429.92
  0
LINE
  5
10032
330
1F
100
AcDbEntity
  8
Velddata
100
AcDbLine
 10
212803.9281633186
 20
60418.9147261897
 30
429.92
 11
212809.4688521763
 21
60426.55509785514
 31
429.5
  0
LINE
  5
10033
330
1F
100
AcDbEntity
  8
Velddata
100
AcDbLine
 10
212809.4688521763
 20
60426.55509785514
 30
429.5
 11
212809.7305020198
 21
60426.35891811782
 31
429.5
  0
LINE
  5
10034
330
1F
100
AcDbEntity
  8
Velddata
100
AcDbLine
 10
212809.7305020198
 20
60426.35891811782
 30
429.5
 11
212810.7897377492
 21
60425.56472468591
 31
429.5
  0
LINE
  5
10035
330
1F
100
AcDbEntity
  8
Velddata
100
AcDbLine
 10
212810.7897377492
 20
60425.56472468591
 30
429.5
 11
212810.651751347
 21
60425.38068875524
 31
429.5
  0
LINE
  5
10036
330
1F
100
AcDbEntity
  8
Velddata
100
AcDbLine
 10
212810.651751347
 20
60425.38068875524
 30
429.5
 11
212805.0602037973
 21
60418.19036938574
 31
429.92
  0
LINE
  5
10037
330
1F
100
AcDbEntity
  8
Velddata
100
AcDbLine
 10
212805.0602037973
 20
60418.19036938574
 30
429.92
 11
212807.2701263567
 21
60416.53341434458
 31
429.92
  0
LINE
  5
10038
330
1F
100
AcDbEntity
  8
Velddata
100
AcDbLine
 10
212807.2701263567
 20
60416.53341434458
 30
429.92
 11
212811.3387369508
 21
60413.48285277355
 31
429.92
  0
LINE
  5
10039
330
1F
100
AcDbEntity
  8
Velddata
100
AcDbLine
 10
212811.3387369508
 20
60413.48285277355
 30
429.92
 11
212810.9791542798
 21
60413.00326833299
 31
429.92
  0
LINE
  5
1003A
330
1F
100
AcDbEntity
  8
Velddata
100
AcDbLine
 10
212810.9791542798
 20
60413.00326833299
 30
429.92
 11
212810.9791542798
 21
60413.00326833299
 31
429.92
  0
LINE
  5
1003B
330
1F
100
AcDbEntity
  8
Velddata
100
AcDbLine
 10
212810.9791542798
 20
60413.00326833299
 30
429.92
 11
212812.5805760297
 21
60411.80255483728
 31
429.92
  0
LINE
  5
1003C
330
1F
100
AcDbEntity
  8
Velddata
100
AcDbLine
 10
212812.5805760297
 20
60411.80255483728
 30
429.92
 11
212812.5805760297
 21
60411.80255483728
 31
429.92
  0
LINE
  5
1003D
330
1F
100
AcDbEntity
  8
Velddata
100
AcDbLine
 10
212812.5805760297
 20
60411.80255483728
 30
429.92
 11
212810.0095939287
 21
60408.38909992208
 31
429.92
  0
LINE
  5
1003E
330
1F
100
AcDbEntity
  8
Velddata
100
AcDbLine
 10
212810.0095939287
 20
60408.38909992208
 30
429.92
 11
212810.0095939287
 21
60408.38909992208
 31
429.92
  0
LINE
  5
1003F
330
1F
100
AcDbEntity
  8
Velddata
100
AcDbLine
 10
212810.0095939287
 20
60408.38909992208
 30
429.92
 11
212798.4956722247
 21
60417.02200451445
 31
429.92
  0
LINE
  5
10040
330
1F
100
AcDbEntity
  8
Velddata
100
AcDbLine
 10
212798.4956722247
 20
60417.02200451445
 30
429.92
 11
212809.7285000457
 21
60426.3729178356
 31
429.92
  0
LINE
  5
10041
330
1F
100
AcDbEntity
  8
Velddata
100
AcDbLine
 10
212809.7285000457
 20
60426.3729178356
 30
429.92
 11
212811.9881302144
 21
60429.38664326453
 31
429.92
  0
LINE
  5
10042
330
1F
100
AcDbEntity
  8
Velddata
100
AcDbLine
 10
212811.9881302144
 20
60429.38664326453
 30
429.92
 11
212810.1734626865
 21
60424.72611335353
 31
429.92
  0
LINE
  5
10043
330
1F
100
AcDbEntity
  8
Velddata
100
AcDbLine
 10
212810.1734626865
 20
60424.72611335353
 30
429.92
 11
212812.8806721488
 21
60422.6963026947
 31
429.92
  0
LINE
  5
10044
330
1F
100
AcDbEntity
  8
Velddata
100
AcDbLine
 10
212812.8806721488
 20
60422.6963026947
 30
429.92
 11
212812.8806721488
 21
60422.6963026947
 31
429.92
  0
LINE
  5
10045
330
1F
100
AcDbEntity
  8
Velddata
100
AcDbLine
 10
212812.8806721488
 20
60422.6963026947
 30
429.92
 11
212808.7384830772
 21
60417.17176108257
 31
429.92
  0
LINE
  5
10046
330
1F
100
AcDbEntity
  8
Velddata
100
AcDbLine
 10
212808.7384830772
 20
60417.17176108257
 30
429.92
 11
212808.7384830772
 21
60417.17176108257
 31
429.92
  0
LINE
  5
10047
330
1F
100
AcDbEntity
  8
Velddata
100
AcDbLine
 10
212808.7384830772
 20
60417.17176108257
 30
429.92
 11
212809.3950604531
 21
60416.67947270427
 31
429.92
  0
LINE
  5
10048
330
1F
100
AcDbEntity
  8
Velddata
100
AcDbLine
 10
212809.3950604531
 20
60416.67947270427
 30
429.92
 11
212809.3950604531
 21
60416.67947270427
 31
429.92
  0
LINE
  5
10049
330
1F
100
AcDbEntity
  8
Velddata
100
AcDbLine
 10
212809.3950604531
 20
60416.67947270427
 30
429.92
 11
212809.815632411
 21
60417.24040008878
 31
429.92
  0
LINE
  5
1004A
330
1F
100
AcDbEntity
  8
Velddata
100
AcDbLine
 10
212809.815632411
 20
60417.24040008878
 30
429.92
 11
212809.815632411
 21
60417.24040008878
 31
429.92
  0
LINE
  5
1004B
330
1F
100
AcDbEntity
  8
Velddata
100
AcDbLine
 10
212809.815632411
 20
60417.24040008878
 30
429.92
 11
212814.1955389833
 21
60413.95643511713
 31
429.92
  0
LINE
  5
1004C
330
1F
100
AcDbEntity
  8
Velddata
100
AcDbLine
 10
212814.1955389833
 20
60413.95643511713
 30
429.92
 11
212814.1955389833
 21
60413.95643511713
 31
429.92
  0
LINE
  5
1004D
330
1F
100
AcDbEntity
  8
Velddata
100
AcDbLine
 10
212814.1955389833
 20
60413.95643511713
 30
429.92
 11
212813.0728818678
 21
60412.45911912218
 31
429.92
  0
LINE
  5
1004E
330
1F
100
AcDbEntity
  8
Velddata
100
AcDbLine
 10
212813.0728818678
 20
60412.45911912218
 30
429.92
 11
212813.0728818678
 21
60412.45911912218
 31
429.92
  0
LINE
  5
1004F
330
1F
100
AcDbEntity
  8
Velddata
100
AcDbLine
 10
212813.0728818678
 20
60412.45911912218
 30
429.92
 11
212812.128020034
 21
60413.16755733056
 31
429.92
  0
LINE
  5
10050
330
1F
100
AcDbEntity
  8
Velddata
100
AcDbLine
 10
212812.128020034
 20
60413.16755733056
 30
429.92
 11
212812.128020034
 21
60413.16755733056
 31
429.92
  0
LINE
  5
10051
330
1F
100
AcDbEntity
  8
Velddata
100
AcDbLine
 10
212812.128020034
 20
60413.16755733056
 30
429.92
 11
212812.4876027049
 21
60413.64714177113
 31
429.92
  0
LINE
  5
10052
330
1F
100
AcDbEntity
  8
Velddata
100
AcDbLine
 10
212812.4876027049
 20
60413.64714177113
 30
429.92
 11
212812.4876027049
 21
60413.64714177113
 31
429.92
  0
LINE
  5
10053
330
1F
100
AcDbEntity
  8
Velddata
100
AcDbLine
 10
212812.4876027049
 20
60413.64714177113
 30
429.92
 11
212808.8991748465
 21
60416.33767208175
 31
429.92
  0
LINE
  5
10054
330
1F
100
AcDbEntity
  8
Velddata
100
AcDbLine
 10
212808.8991748465
 20
60416.33767208175
 30
429.92
 11
212806.2841093528
 21
60420.25571014271
 31
429.92
  0
LINE
  5
10055
330
1F
100
AcDbEntity
  8
Velddata
100
AcDbLine
 10
212806.2841093528
 20
60420.25571014271
 30
429.92
 11
212809.4573302683
 21
60424.48791458559
 31
429.92
  0
LINE
  5
10056
330
1F
100
AcDbEntity
  8
Velddata
100
AcDbLine
 10
212809.4573302683
 20
60424.48791458559
 30
429.92
 11
212810.1872128256
 21
60417.73598622139
 31
429.92
  0
LINE
  5
10057
330
1F
100
AcDbEntity
  8
Velddata
100
AcDbLine
 10
212810.1872128256
 20
60417.73598622139
 30
429.92
 11
212811.9705872164
 21
60420.11451744283
 31
429.92
  0
LINE
  5
10058
330
1F
100
AcDbEntity
  8
Velddata
100
AcDbLine
 10
212811.9705872164
 20
60420.11451744283
 30
429.92
 11
212811.9705872164
 21
60420.11451744283
 31
429.92
  0
LINE
  5
10059
330
1F
100
AcDbEntity
  8
Velddata
100
AcDbLine
 10
212811.9705872164
 20
60420.11451744283
 30
429.92
 11
212814.8287028783
 21
60417.97156038111
 31
429.92
  0
LINE
  5
1005A
330
1F
100
AcDbEntity
  8
Velddata
100
AcDbLine
 10
212814.8287028783
 20
60417.97156038111
 30
429.92
 11
212814.8287028783
 21
60417.97156038111
 31
429.92
  0
LINE
  5
1005B
330
1F
100
AcDbEntity
  8
Velddata
100
AcDbLine
 10
212814.8287028783
 20
60417.97156038111
 30
429.92
 11
212813.0453284876
 21
60415.59302915966
 31
429.92
  0
LINE
  5
1005C
330
1F
100
AcDbEntity
  8
Velddata
100
AcDbLine
 10
212813.0453284876
 20
60415.59302915966
 30
429.92
 11
212813.0453284876
 21
60415.59302915966
 31
429.92
  0
LINE
  5
1005D
330
1F
100
AcDbEntity
  8
Velddata
100
AcDbLine
 10
212813.0453284876
 20
60415.59302915966
 30
429.92
 11
212810.1872128256
 21
60417.73598622139
 31
429.92
  0
LINE
  5
1005E
330
1F
100
AcDbEntity
  8
Velddata
100
AcDbLine
 10
212810.1872128256
 20
60417.73598622139
 30
429.92
 11
212811.9881302144
 21
60429.38664326453
 31
429.92
  0
LINE
  5
1005F
330
1F
100
AcDbEntity
  8
Velddata
100
AcDbLine
 10
212811.9881302144
 20
60429.38664326453
 30
429.92
 11
212815.8477141537
 21
60426.48757353117
 31
429.92
  0
LINE
  5
10060
330
1F
100
AcDbEntity
  8
Velddata
100
AcDbLine
 10
212815.8477141537
 20
60426.48757353117
 30
429.92
 11
212812.4628755947
 21
60420.77109481872
 31
429.92
  0
LINE
  5
10061
330
1F
100
AcDbEntity
  8
Velddata
100
AcDbLine
 10
212812.4628755947
 20
60420.77109481872
 30
429.92
 11
212815.9920683241
 21
60425.47806781167
 31
429.92
  0
LINE
  5
10062
330
1F
100
AcDbEntity
  8
Velddata
100
AcDbLine
 10
212815.9920683241
 20
60425.47806781167
 30
429.92
 11
212815.9920683241
 21
60425.47806781167
 31
429.92
  0
LINE
  5
10063
330
1F
100
AcDbEntity
  8
Velddata
100
AcDbLine
 10
212815.9920683241
 20
60425.47806781167
 30
429.92
 11
212820.3719748966
 21
60422.19410284004
 31
429.92
  0
LINE
  5
10064
330
1F
100
AcDbEntity
  8
Velddata
100
AcDbLine
 10
212820.3719748966
 20
60422.19410284004
 30
429.92
 11
212820.3719748966
 21
60422.19410284004
 31
429.92
  0
LINE
  5
10065
330
1F
100
AcDbEntity
  8
Velddata
100
AcDbLine
 10
212820.3719748966
 20
60422.19410284004
 30
429.92
 11
212816.8427821669
 21
60417.4871298471
 31
429.92
  0
LINE
  5
10066
330
1F
100
AcDbEntity
  8
Velddata
100
AcDbLine
 10
212816.8427821669
 20
60417.4871298471
 30
429.92
 11
212816.8427821669
 21
60417.4871298471
 31
429.92
  0
LINE
  5
10067
330
1F
100
AcDbEntity
  8
Velddata
100
AcDbLine
 10
212816.8427821669
 20
60417.4871298471
 30
429.92
 11
212812.4628755947
 21
60420.77109481872
 31
429.92
  0
LINE
  5
10068
330
1F
100
AcDbEntity
  8
Velddata
100
AcDbLine
 10
212812.4628755947
 20
60420.77109481872
 30
429.92
 11
212810.5443740087
 21
60425.76119211234
 31
429.92
  0
LINE
  5
10069
330
1F
100
AcDbEntity
  8
Velddata
100
AcDbLine
 10
212810.5443740087
 20
60425.76119211234
 30
429.92
 11
212812.4286367044
 21
60428.27428060027
 31
429.92
  0
LINE
  5
1006A
330
1F
100
AcDbEntity
  8
Velddata
100
AcDbLine
 10
212812.4286367044
 20
60428.27428060027
 30
429.92
 11
212812.4286367044
 21
60428.27428060027
 31
429.92
  0
LINE
  5
1006B
330
1F
100
AcDbEntity
  8
Velddata
100
AcDbLine
 10
212812.4286367044
 20
60428.27428060027
 30
429.92
 11
212815.3952096251
 21
60426.0500044893
 31
429.92
  0
LINE
  5
1006C
330
1F
100
AcDbEntity
  8
Velddata
100
AcDbLine
 10
212815.3952096251
 20
60426.0500044893
 30
429.92
 11
212815.3952096251
 21
60426.0500044893
 31
429.92
  0
LINE
  5
1006D
330
1F
100
AcDbEntity
  8
Velddata
100
AcDbLine
 10
212815.3952096251
 20
60426.0500044893
 30
429.92
 11
212813.3729605271
 21
60423.35288007058
 31
429.92
  0
LINE
  5
1006E
330
1F
100
AcDbEntity
  8
Velddata
100
AcDbLine
 10
212813.3729605271
 20
60423.35288007058
 30
429.92
 11
212813.3729605271
 21
60423.35288007058
 31
429.92
  0
LINE
  5
1006F
330
1F
100
AcDbEntity
  8
Velddata
100
AcDbLine
 10
212813.3729605271
 20
60423.35288007058
 30
429.92
 11
212810.6657510647
 21
60425.38269072941
 31
429.92
  0
LINE
  5
10070
330
1F
100
AcDbEntity
  8
Velddata
100
AcDbLine
 10
212810.6657510647
 20
60425.38269072941
 30
429.92
 11
212815.8477141537
 21
60426.48757353117
 31
429.92
  0
LINE
  5
10071
330
1F
100
AcDbEntity
  8
Velddata
100
AcDbLine
 10
212815.8477141537
 20
60426.48757353117
 30
429.92
 11
212819.5629730121
 21
60431.44270759403
 31
429.92
  0
LINE
  5
10072
330
1F
100
AcDbEntity
  8
Velddata
100
AcDbLine
 10
212819.5629730121
 20
60431.44270759403
 30
429.92
 11
212816.3921086571
 21
60426.1925620876
 31
429.92
  0
LINE
  5
10073
330
1F
100
AcDbEntity
  8
Velddata
100
AcDbLine
 10
212816.3921086571
 20
60426.1925620876
 30
429.92
 11
212819.6856009879
 21
60430.58517553808
 31
429.92
  0
LINE
  5
10074
330
1F
100
AcDbEntity
  8
Velddata
100
AcDbLine
 10
212819.6856009879
 20
60430.58517553808
 30
429.92
 11
212819.6856009879
 21
60430.58517553808
 31
429.92
  0
LINE
  5
10075
330
1F
100
AcDbEntity
  8
Velddata
100
AcDbLine
 10
212819.6856009879
 20
60430.58517553808
 30
429.92
 11
212834.9205510134
 21
60419.16231950176
 31
429.92
  0
LINE
  5
10076
330
1F
100
AcDbEntity
  8
Velddata
100
AcDbLine
 10
212834.9205510134
 20
60419.16231950176
 30
429.92
 11
212834.9205510134
 21
60419.16231950176
 31
429.92
  0
LINE
  5
10077
330
1F
100
AcDbEntity
  8
Velddata
100
AcDbLine
 10
212834.9205510134
 20
60419.16231950176
 30
429.92
 11
212831.5673400059
 21
60414.69005775196
 31
429.92
  0
LINE
  5
10078
330
1F
100
AcDbEntity
  8
Velddata
100
AcDbLine
 10
212831.5673400059
 20
60414.69005775196
 30
429.92
 11
212831.5673400059
 21
60414.69005775196
 31
429.92
  0
LINE
  5
10079
330
1F
100
AcDbEntity
  8
Velddata
100
AcDbLine
 10
212831.5673400059
 20
60414.69005775196
 30
429.92
 11
212821.2163559086
 21
60422.45101535134
 31
429.92
  0
LINE
  5
1007A
330
1F
100
AcDbEntity
  8
Velddata
100
AcDbLine
 10
212821.2163559086
 20
60422.45101535134
 30
429.92
 11
212821.2163559086
 21
60422.45101535134
 31
429.92
  0
LINE
  5
1007B
330
1F
100
AcDbEntity
  8
Velddata
100
AcDbLine
 10
212821.2163559086
 20
60422.45101535134
 30
429.92
 11
212821.2760745854
 21
60422.53066365065
 31
429.92
  0
LINE
  5
1007C
330
1F
100
AcDbEntity
  8
Velddata
100
AcDbLine
 10
212821.2760745854
 20
60422.53066365065
 30
429.92
 11
212821.2760745854
 21
60422.53066365065
 31
429.92
  0
LINE
  5
1007D
330
1F
100
AcDbEntity
  8
Velddata
100
AcDbLine
 10
212821.2760745854
 20
60422.53066365065
 30
429.92
 11
212816.3921086571
 21
60426.1925620876
 31
429.92
  0
LINE
  5
1007E
330
1F
100
AcDbEntity
  8
Velddata
100
AcDbLine
 10
212816.3921086571
 20
60426.1925620876
 30
429.92
 11
212819.5629730121
 21
60431.44270759403
 31
429.92
  0
LINE
  5
1007F
330
1F
100
AcDbEntity
  8
Velddata
100
AcDbLine
 10
212835.7780830693
 20
60419.28494747754
 30
429.92
 11
212835.7780830693
 21
60419.28494747754
 31
429.92
  0
LINE
  5
10080
330
1F
100
AcDbEntity
  8
Velddata
100
AcDbLine
 10
212835.7780830693
 20
60419.28494747754
 30
429.92
 11
212831.6899679816
 21
60413.83252569602
 31
429.92
  0
LINE
  5
10081
330
1F
100
AcDbEntity
  8
Velddata
100
AcDbLine
 10
212831.6899679816
 20
60413.83252569602
 30
429.92
 11
212831.6899679816
 21
60413.83252569602
 31
429.92
  0
LINE
  5
10082
330
1F
100
AcDbEntity
  8
Velddata
100
AcDbLine
 10
212831.6899679816
 20
60413.83252569602
 30
429.92
 11
212820.927279706
 21
60421.90217072478
 31
429.92
  0
LINE
  5
10083
330
1F
100
AcDbEntity
  8
Velddata
100
AcDbLine
 10
212820.927279706
 20
60421.90217072478
 30
429.92
 11
212820.927279706
 21
60421.90217072478
 31
429.92
  0
LINE
  5
10084
330
1F
100
AcDbEntity
  8
Velddata
100
AcDbLine
 10
212820.927279706
 20
60421.90217072478
 30
429.92
 11
212816.8460799213
 21
60416.45897205666
 31
429.92
  0
LINE
  5
10085
330
1F
100
AcDbEntity
  8
Velddata
100
AcDbLine
 10
212816.8460799213
 20
60416.45897205666
 30
429.92
 11
212816.8460799213
 21
60416.45897205666
 31
429.92
  0
LINE
  5
10086
330
1F
100
AcDbEntity
  8
Velddata
100
AcDbLine
 10
212816.8460799213
 20
60416.45897205666
 30
429.92
 11
212815.3259836556
 21
60417.59870935638
 31
429.92
  0
LINE
  5
10087
330
1F
100
AcDbEntity
  8
Velddata
100
AcDbLine
 10
212815.3259836556
 20
60417.59870935638
 30
429.92
 11
212815.3259836556
 21
60417.59870935638
 31
429.92
  0
LINE
  5
10088
330
1F
100
AcDbEntity
  8
Velddata
100
AcDbLine
 10
212815.3259836556
 20
60417.59870935638
 30
429.92
 11
212813.5426092649
 21
60415.22017813496
 31
429.92
  0
LINE
  5
10089
330
1F
100
AcDbEntity
  8
Velddata
100
AcDbLine
 10
212813.5426092649
 20
60415.22017813496
 30
429.92
 11
212813.5426092649
 21
60415.22017813496
 31
429.92
  0
LINE
  5
1008A
330
1F
100
AcDbEntity
  8
Velddata
100
AcDbLine
 10
212813.5426092649
 20
60415.22017813496
 30
429.92
 11
212815.0627055305
 21
60414.08044083516
 31
429.92
  0
LINE
  5
1008B
330
1F
100
AcDbEntity
  8
Velddata
100
AcDbLine
 10
212815.0627055305
 20
60414.08044083516
 30
429.92
 11
212815.0627055305
 21
60414.08044083516
 31
429.92
  0
LINE
  5
1008C
330
1F
100
AcDbEntity
  8
Velddata
100
AcDbLine
 10
212815.0627055305
 20
60414.08044083516
 30
429.92
 11
212810.1410701879
 21
60407.51633215256
 31
429.92
  0
LINE
  5
1008D
330
1F
100
AcDbEntity
  8
Velddata
100
AcDbLine
 10
212810.1410701879
 20
60407.51633215256
 30
429.92
 11
212810.1410701879
 21
60407.51633215256
 31
429.92
  0
LINE
  5
1008E
330
1F
100
AcDbEntity
  8
Velddata
100
AcDbLine
 10
212810.1410701879
 20
60407.51633215256
 30
429.92
 11
212797.6270640819
 21
60416.89907971309
 31
429.92
  0
LINE
  5
1008F
330
1F
100
AcDbEntity
  8
Velddata
100
AcDbLine
 10
212797.6270640819
 20
60416.89907971309
 30
429.92
 11
212796.5210863734
 21
60416.74092375063
 31
429.92
  0
LINE
  5
10090
330
1F
100
AcDbEntity
  8
Velddata
100
AcDbLine
 10
212796.5210863734
 20
60416.74092375063
 30
429.92
 11
212801.1961699261
 21
60422.97620011784
 31
429.92
  0
LINE
  5
10091
330
1F
100
AcDbEntity
  8
Velddata
100
AcDbLine
 10
212801.1961699261
 20
60422.97620011784
 30
429.92
 11
212801.1961699261
 21
60422.97620011784
 31
429.92
  0
LINE
  5
10092
330
1F
100
AcDbEntity
  8
Velddata
100
AcDbLine
 10
212801.1961699261
 20
60422.97620011784
 30
429.92
 11
212802.7891359123
 21
60421.7818265819
 31
429.92
  0
LINE
  5
10093
330
1F
100
AcDbEntity
  8
Velddata
100
AcDbLine
 10
212802.7891359123
 20
60421.7818265819
 30
429.92
 11
212802.7891359123
 21
60421.7818265819
 31
429.92
  0
LINE
  5
10094
330
1F
100
AcDbEntity
  8
Velddata
100
AcDbLine
 10
212802.7891359123
 20
60421.7818265819
 30
429.92
 11
212802.9085732659
 21
60421.94112318055
 31
429.92
  0
LINE
  5
10095
330
1F
100
AcDbEntity
  8
Velddata
100
AcDbLine
 10
212802.9085732659
 20
60421.94112318055
 30
429.92
 11
212802.9085732659
 21
60421.94112318055
 31
429.92
  0
LINE
  5
10096
330
1F
100
AcDbEntity
  8
Velddata
100
AcDbLine
 10
212802.9085732659
 20
60421.94112318055
 30
429.92
 11
212804.373732242
 21
60420.84257674438
 31
429.92
  0
LINE
  5
10097
330
1F
100
AcDbEntity
  8
Velddata
100
AcDbLine
 10
212804.373732242
 20
60420.84257674438
 30
429.92
 11
212805.4753748864
 21
60421.86197707546
 31
429.92
  0
LINE
  5
10098
330
1F
100
AcDbEntity
  8
Velddata
100
AcDbLine
 10
212805.4753748864
 20
60421.86197707546
 30
429.92
 11
212807.6887763122
 21
60424.81404615544
 31
429.92
  0
LINE
  5
10099
330
1F
100
AcDbEntity
  8
Velddata
100
AcDbLine
 10
212807.6887763122
 20
60424.81404615544
 30
429.92
 11
212809.5763429638
 21
60427.48689638342
 31
429.92
  0
LINE
  5
1009A
330
1F
100
AcDbEntity
  8
Velddata
100
AcDbLine
 10
212809.5763429638
 20
60427.48689638342
 30
429.92
 11
212811.8303854198
 21
60430.49316933974
 31
429.92
  0
LINE
  5
1009B
330
1F
100
AcDbEntity
  8
Velddata
100
AcDbLine
 10
212811.8303854198
 20
60430.49316933974
 30
429.92
 11
212811.8303854198
 21
60430.49316933974
 31
429.92
  0
LINE
  5
1009C
330
1F
100
AcDbEntity
  8
Velddata
100
AcDbLine
 10
212811.8303854198
 20
60430.49316933974
 30
429.92
 11
212815.6899693504
 21
60427.59409961297
 31
429.92
  0
LINE
  5
1009D
330
1F
100
AcDbEntity
  8
Velddata
100
AcDbLine
 10
212815.6899693504
 20
60427.59409961297
 30
429.92
 11
212815.6899693504
 21
60427.59409961297
 31
429.92
  0
LINE
  5
1009E
330
1F
100
AcDbEntity
  8
Velddata
100
AcDbLine
 10
212815.6899693504
 20
60427.59409961297
 30
429.92
 11
212819.4048170497
 21
60432.54868530248
 31
429.92
  0
LINE
  5
1009F
330
1F
100
AcDbEntity
  8
Velddata
100
AcDbLine
 10
212819.4048170497
 20
60432.54868530248
 30
429.92
 11
212819.4048170497
 21
60432.54868530248
 31
429.92
  0
LINE
  5
100A0
330
1F
100
AcDbEntity
  8
Velddata
100
AcDbLine
 10
212836.8840607778
 20
60419.44310344001
 30
429.92
 11
212836.8840607778
 21
60419.44310344001
 31
429.92
  0
LINE
  5
100A1
330
1F
100
AcDbEntity
  8
Velddata
100
AcDbLine
 10
212836.8840607778
 20
60419.44310344001
 30
429.92
 11
212831.8481239441
 21
60412.72654798759
 31
429.92
  0
LINE
  5
100A2
330
1F
100
AcDbEntity
  8
Velddata
100
AcDbLine
 10
212831.8481239441
 20
60412.72654798759
 30
429.92
 11
212831.8481239441
 21
60412.72654798759
 31
429.92
  0
LINE
  5
100A3
330
1F
100
AcDbEntity
  8
Velddata
100
AcDbLine
 10
212831.8481239441
 20
60412.72654798759
 30
429.92
 11
212821.0854356685
 21
60420.79619301634
 31
429.92
  0
LINE
  5
100A4
330
1F
100
AcDbEntity
  8
Velddata
100
AcDbLine
 10
212821.0854356685
 20
60420.79619301634
 30
429.92
 11
212821.0854356685
 21
60420.79619301634
 31
429.92
  0
LINE
  5
100A5
330
1F
100
AcDbEntity
  8
Velddata
100
AcDbLine
 10
212821.0854356685
 20
60420.79619301634
 30
429.92
 11
212817.0042358838
 21
60415.35299434818
 31
429.92
  0
LINE
  5
100A6
330
1F
100
AcDbEntity
  8
Velddata
100
AcDbLine
 10
212817.0042358838
 20
60415.35299434818
 30
429.92
 11
212817.0042358838
 21
60415.35299434818
 31
429.92
  0
LINE
  5
100A7
330
1F
100
AcDbEntity
  8
Velddata
100
AcDbLine
 10
212817.0042358838
 20
60415.35299434818
 30
429.92
 11
212815.484139618
 21
60416.49273164795
 31
429.92
  0
LINE
  5
100A8
330
1F
100
AcDbEntity
  8
Velddata
100
AcDbLine
 10
212815.484139618
 20
60416.49273164795
 30
429.92
 11
212815.484139618
 21
60416.49273164795
 31
429.92
  0
LINE
  5
100A9
330
1F
100
AcDbEntity
  8
Velddata
100
AcDbLine
 10
212815.484139618
 20
60416.49273164795
 30
429.92
 11
212814.6485869733
 21
60415.3783340974
 31
429.92
  0
LINE
  5
100AA
330
1F
100
AcDbEntity
  8
Velddata
100
AcDbLine
 10
212814.6485869733
 20
60415.3783340974
 30
429.92
 11
212814.6485869733
 21
60415.3783340974
 31
429.92
  0
LINE
  5
100AB
330
1F
100
AcDbEntity
  8
Velddata
100
AcDbLine
 10
212814.6485869733
 20
60415.3783340974
 30
429.92
 11
212816.1686832389
 21
60414.23859679763
 31
429.92
  0
LINE
  5
100AC
330
1F
100
AcDbEntity
  8
Velddata
100
AcDbLine
 10
212816.1686832389
 20
60414.23859679763
 30
429.92
 11
212816.1686832389
 21
60414.23859679763
 31
429.92
  0
LINE
  5
100AD
330
1F
100
AcDbEntity
  8
Velddata
100
AcDbLine
 10
212816.1686832389
 20
60414.23859679763
 30
429.92
 11
212810.2992261504
 21
60406.41035444411
 31
429.92
  0
LINE
  5
100AE
330
1F
100
AcDbEntity
  8
Velddata
100
AcDbLine
 10
212810.2992261504
 20
60406.41035444411
 30
429.92
 11
212810.2992261504
 21
60406.41035444411
 31
429.92
  0
LINE
  5
100AF
330
1F
100
AcDbEntity
  8
Velddata
100
AcDbLine
 10
212810.2992261504
 20
60406.41035444411
 30
429.92
 11
212796.5210863734
 21
60416.74092375063
 31
429.92
  0
LINE
  5
100B0
330
1F
100
AcDbEntity
  8
Velddata
100
AcDbLine
 10
212796.5210863734
 20
60416.74092375063
 30
429.92
 11
212810.1714607122
 21
60424.74011307137
 31
429.5
  0
LINE
  5
100B1
330
1F
100
AcDbEntity
  8
Velddata
100
AcDbLine
 10
212810.1714607122
 20
60424.74011307137
 30
429.5
 11
212812.8946718667
 21
60422.69830466892
 31
429.5
  0
LINE
  5
100B2
330
1F
100
AcDbEntity
  8
Velddata
100
AcDbLine
 10
212812.8946718667
 20
60422.69830466892
 30
429.5
 11
212812.8946718667
 21
60422.69830466892
 31
429.5
  0
LINE
  5
100B3
330
1F
100
AcDbEntity
  8
Velddata
100
AcDbLine
 10
212812.8946718667
 20
60422.69830466892
 30
429.5
 11
212808.752482795
 21
60417.17376305678
 31
429.5
  0
LINE
  5
100B4
330
1F
100
AcDbEntity
  8
Velddata
100
AcDbLine
 10
212808.752482795
 20
60417.17376305678
 30
429.5
 11
212808.752482795
 21
60417.17376305678
 31
429.5
  0
LINE
  5
100B5
330
1F
100
AcDbEntity
  8
Velddata
100
AcDbLine
 10
212808.752482795
 20
60417.17376305678
 30
429.5
 11
212809.393058479
 21
60416.69347242211
 31
429.5
  0
LINE
  5
100B6
330
1F
100
AcDbEntity
  8
Velddata
100
AcDbLine
 10
212809.393058479
 20
60416.69347242211
 30
429.5
 11
212809.393058479
 21
60416.69347242211
 31
429.5
  0
LINE
  5
100B7
330
1F
100
AcDbEntity
  8
Velddata
100
AcDbLine
 10
212809.393058479
 20
60416.69347242211
 30
429.5
 11
212809.8136304367
 21
60417.25439980662
 31
429.5
  0
LINE
  5
100B8
330
1F
100
AcDbEntity
  8
Velddata
100
AcDbLine
 10
212809.8136304367
 20
60417.25439980662
 30
429.5
 11
212809.8136304367
 21
60417.25439980662
 31
429.5
  0
LINE
  5
100B9
330
1F
100
AcDbEntity
  8
Velddata
100
AcDbLine
 10
212809.8136304367
 20
60417.25439980662
 30
429.5
 11
212814.2095387012
 21
60413.95843709134
 31
429.5
  0
LINE
  5
100BA
330
1F
100
AcDbEntity
  8
Velddata
100
AcDbLine
 10
212814.2095387012
 20
60413.95843709134
 30
429.5
 11
212814.2095387012
 21
60413.95843709134
 31
429.5
  0
LINE
  5
100BB
330
1F
100
AcDbEntity
  8
Velddata
100
AcDbLine
 10
212814.2095387012
 20
60413.95843709134
 30
429.5
 11
212813.074883842
 21
60412.44511940436
 31
429.5
  0
LINE
  5
100BC
330
1F
100
AcDbEntity
  8
Velddata
100
AcDbLine
 10
212813.074883842
 20
60412.44511940436
 30
429.5
 11
212813.074883842
 21
60412.44511940436
 31
429.5
  0
LINE
  5
100BD
330
1F
100
AcDbEntity
  8
Velddata
100
AcDbLine
 10
212813.074883842
 20
60412.44511940436
 30
429.5
 11
212812.1140203162
 21
60413.16555535635
 31
429.5
  0
LINE
  5
100BE
330
1F
100
AcDbEntity
  8
Velddata
100
AcDbLine
 10
212812.1140203162
 20
60413.16555535635
 30
429.5
 11
212812.1140203162
 21
60413.16555535635
 31
429.5
  0
LINE
  5
100BF
330
1F
100
AcDbEntity
  8
Velddata
100
AcDbLine
 10
212812.1140203162
 20
60413.16555535635
 30
429.5
 11
212812.473602987
 21
60413.64513979693
 31
429.5
  0
LINE
  5
100C0
330
1F
100
AcDbEntity
  8
Velddata
100
AcDbLine
 10
212812.473602987
 20
60413.64513979693
 30
429.5
 11
212812.473602987
 21
60413.64513979693
 31
429.5
  0
LINE
  5
100C1
330
1F
100
AcDbEntity
  8
Velddata
100
AcDbLine
 10
212812.473602987
 20
60413.64513979693
 30
429.5
 11
212808.8851764558
 21
60416.33566911248
 31
429.5
  0
LINE
  5
100C2
330
1F
100
AcDbEntity
  8
Velddata
100
AcDbLine
 10
212808.8851764558
 20
60416.33566911248
 30
429.5
 11
212806.270109635
 21
60420.25370816854
 31
429.5
  0
LINE
  5
100C3
330
1F
100
AcDbEntity
  8
Velddata
100
AcDbLine
 10
212806.270109635
 20
60420.25370816854
 30
429.5
 11
212809.4553282941
 21
60424.50191430344
 31
429.5
  0
LINE
  5
100C4
330
1F
100
AcDbEntity
  8
Velddata
100
AcDbLine
 10
212809.4553282941
 20
60424.50191430344
 30
429.5
 11
212804.5398890505
 21
60419.73060016419
 31
429.92
  0
LINE
  5
100C5
330
1F
100
AcDbEntity
  8
Velddata
100
AcDbLine
 10
212804.5398890505
 20
60419.73060016419
 30
429.92
 11
212805.4196042901
 21
60420.90389847667
 31
429.92
  0
LINE
  5
100C6
330
1F
100
AcDbEntity
  8
Velddata
100
AcDbLine
 10
212805.4196042901
 20
60420.90389847667
 30
429.92
 11
212810.181966466
 21
60417.74565882098
 31
429.5
  0
LINE
  5
100C7
330
1F
100
AcDbEntity
  8
Velddata
100
AcDbLine
 10
212810.181966466
 20
60417.74565882098
 30
429.5
 11
212811.9685852422
 21
60420.12851716068
 31
429.5
  0
LINE
  5
100C8
330
1F
100
AcDbEntity
  8
Velddata
100
AcDbLine
 10
212811.9685852422
 20
60420.12851716068
 30
429.5
 11
212811.9685852422
 21
60420.12851716068
 31
429.5
  0
LINE
  5
100C9
330
1F
100
AcDbEntity
  8
Velddata
100
AcDbLine
 10
212811.9685852422
 20
60420.12851716068
 30
429.5
 11
212814.8427025962
 21
60417.97356235531
 31
429.5
  0
LINE
  5
100CA
330
1F
100
AcDbEntity
  8
Velddata
100
AcDbLine
 10
212814.8427025962
 20
60417.97356235531
 30
429.5
 11
212814.8427025962
 21
60417.97356235531
 31
429.5
  0
LINE
  5
100CB
330
1F
100
AcDbEntity
  8
Velddata
100
AcDbLine
 10
212814.8427025962
 20
60417.97356235531
 30
429.5
 11
212813.0473304618
 21
60415.57902944183
 31
429.5
  0
LINE
  5
100CC
330
1F
100
AcDbEntity
  8
Velddata
100
AcDbLine
 10
212813.0473304618
 20
60415.57902944183
 30
429.5
 11
212813.0473304618
 21
60415.57902944183
 31
429.5
  0
LINE
  5
100CD
330
1F
100
AcDbEntity
  8
Velddata
100
AcDbLine
 10
212813.0473304618
 20
60415.57902944183
 30
429.5
 11
212810.1841794245
 21
60417.72576192565
 31
429.5
  0
LINE
  5
100CE
330
1F
100
AcDbEntity
  8
Velddata
100
AcDbLine
 10
212810.1841794245
 20
60417.72576192565
 30
429.5
 11
212812.4488758769
 21
60420.76909284452
 31
429.5
  0
LINE
  5
100CF
330
1F
100
AcDbEntity
  8
Velddata
100
AcDbLine
 10
212812.4488758769
 20
60420.76909284452
 30
429.5
 11
212815.99006635
 21
60425.4920675295
 31
429.5
  0
LINE
  5
100D0
330
1F
100
AcDbEntity
  8
Velddata
100
AcDbLine
 10
212815.99006635
 20
60425.4920675295
 30
429.5
 11
212815.99006635
 21
60425.4920675295
 31
429.5
  0
LINE
  5
100D1
330
1F
100
AcDbEntity
  8
Velddata
100
AcDbLine
 10
212815.99006635
 20
60425.4920675295
 30
429.5
 11
212820.3859746144
 21
60422.19610481424
 31
429.5
  0
LINE
  5
100D2
330
1F
100
AcDbEntity
  8
Velddata
100
AcDbLine
 10
212820.3859746144
 20
60422.19610481424
 30
429.5
 11
212820.3859746144
 21
60422.19610481424
 31
429.5
  0
LINE
  5
100D3
330
1F
100
AcDbEntity
  8
Velddata
100
AcDbLine
 10
212820.3859746144
 20
60422.19610481424
 30
429.5
 11
212816.8447841411
 21
60417.47313012927
 31
429.5
  0
LINE
  5
100D4
330
1F
100
AcDbEntity
  8
Velddata
100
AcDbLine
 10
212816.8447841411
 20
60417.47313012927
 30
429.5
 11
212816.8447841411
 21
60417.47313012927
 31
429.5
  0
LINE
  5
100D5
330
1F
100
AcDbEntity
  8
Velddata
100
AcDbLine
 10
212816.8447841411
 20
60417.47313012927
 30
429.5
 11
212812.4488758769
 21
60420.76909284452
 31
429.5
  0
LINE
  5
100D6
330
1F
100
AcDbEntity
  8
Velddata
100
AcDbLine
 10
212812.4488758769
 20
60420.76909284452
 30
429.5
 11
212804.7881092926
 21
60417.82747011
 31
429.92
  0
LINE
  5
100D7
330
1F
100
AcDbEntity
  8
Velddata
100
AcDbLine
 10
212804.7881092926
 20
60417.82747011
 30
429.92
 11
212805.0602037973
 21
60418.19036938574
 31
429.92
  0
LINE
  5
100D8
330
1F
100
AcDbEntity
  8
Velddata
100
AcDbLine
 10
212805.0602037973
 20
60418.19036938574
 30
429.92
 11
212810.5303742908
 21
60425.75919013807
 31
429.5
  0
LINE
  5
100D9
330
1F
100
AcDbEntity
  8
Velddata
100
AcDbLine
 10
212810.5303742908
 20
60425.75919013807
 30
429.5
 11
212812.4266347303
 21
60428.28828031812
 31
429.5
  0
LINE
  5
100DA
330
1F
100
AcDbEntity
  8
Velddata
100
AcDbLine
 10
212812.4266347303
 20
60428.28828031812
 30
429.5
 11
212812.4266347303
 21
60428.28828031812
 31
429.5
  0
LINE
  5
100DB
330
1F
100
AcDbEntity
  8
Velddata
100
AcDbLine
 10
212812.4266347303
 20
60428.28828031812
 30
429.5
 11
212815.409209343
 21
60426.05200646351
 31
429.5
  0
LINE
  5
100DC
330
1F
100
AcDbEntity
  8
Velddata
100
AcDbLine
 10
212815.409209343
 20
60426.05200646351
 30
429.5
 11
212815.409209343
 21
60426.05200646351
 31
429.5
  0
LINE
  5
100DD
330
1F
100
AcDbEntity
  8
Velddata
100
AcDbLine
 10
212815.409209343
 20
60426.05200646351
 30
429.5
 11
212813.3749625013
 21
60423.33888035275
 31
429.5
  0
LINE
  5
100DE
330
1F
100
AcDbEntity
  8
Velddata
100
AcDbLine
 10
212813.3749625013
 20
60423.33888035275
 30
429.5
 11
212813.3749625013
 21
60423.33888035275
 31
429.5
  0
LINE
  5
100DF
330
1F
100
AcDbEntity
  8
Velddata
100
AcDbLine
 10
212813.3749625013
 20
60423.33888035275
 30
429.5
 11
212810.651751347
 21
60425.38068875524
 31
429.5
  0
LINE
  5
100E0
330
1F
100
AcDbEntity
  8
Velddata
100
AcDbLine
 10
212810.651751347
 20
60425.38068875524
 30
429.5
 11
212806.270109635
 21
60420.25370816854
 31
429.5
  0
LINE
  5
100E1
330
1F
100
AcDbEntity
  8
Velddata
100
AcDbLine
 10
212806.270109635
 20
60420.25370816854
 30
429.5
 11
212806.4779263742
 21
60420.09789139921
 31
429.5
  0
LINE
  5
100E2
330
1F
100
AcDbEntity
  8
Velddata
100
AcDbLine
 10
212806.4779263742
 20
60420.09789139921
 30
429.5
 11
212806.4779263742
 21
60420.09789139921
 31
429.5
  0
LINE
  5
100E3
330
1F
100
AcDbEntity
  8
Velddata
100
AcDbLine
 10
212806.4779263742
 20
60420.09789139921
 30
429.5
 11
212805.5384924578
 21
60418.84494478741
 31
429.5
  0
LINE
  5
100E4
330
1F
100
AcDbEntity
  8
Velddata
100
AcDbLine
 10
212805.5384924578
 20
60418.84494478741
 30
429.5
 11
212816.3781089393
 21
60426.19056011341
 31
429.5
  0
LINE
  5
100E5
330
1F
100
AcDbEntity
  8
Velddata
100
AcDbLine
 10
212816.3781089393
 20
60426.19056011341
 30
429.5
 11
212819.6835990137
 21
60430.5991752559
 31
429.5
  0
LINE
  5
100E6
330
1F
100
AcDbEntity
  8
Velddata
100
AcDbLine
 10
212819.6835990137
 20
60430.5991752559
 30
429.5
 11
212819.6835990137
 21
60430.5991752559
 31
429.5
  0
LINE
  5
100E7
330
1F
100
AcDbEntity
  8
Velddata
100
AcDbLine
 10
212819.6835990137
 20
60430.5991752559
 30
429.5
 11
212834.9345507313
 21
60419.16432147598
 31
429.5
  0
LINE
  5
100E8
330
1F
100
AcDbEntity
  8
Velddata
100
AcDbLine
 10
212834.9345507313
 20
60419.16432147598
 30
429.5
 11
212834.9345507313
 21
60419.16432147598
 31
429.5
  0
LINE
  5
100E9
330
1F
100
AcDbEntity
  8
Velddata
100
AcDbLine
 10
212834.9345507313
 20
60419.16432147598
 30
429.5
 11
212831.5693419801
 21
60414.67605803412
 31
429.5
  0
LINE
  5
100EA
330
1F
100
AcDbEntity
  8
Velddata
100
AcDbLine
 10
212831.5693419801
 20
60414.67605803412
 30
429.5
 11
212831.5693419801
 21
60414.67605803412
 31
429.5
  0
LINE
  5
100EB
330
1F
100
AcDbEntity
  8
Velddata
100
AcDbLine
 10
212831.5693419801
 20
60414.67605803412
 30
429.5
 11
212821.2023561908
 21
60422.44901337714
 31
429.5
  0
LINE
  5
100EC
330
1F
100
AcDbEntity
  8
Velddata
100
AcDbLine
 10
212821.2023561908
 20
60422.44901337714
 30
429.5
 11
212821.2023561908
 21
60422.44901337714
 31
429.5
  0
LINE
  5
100ED
330
1F
100
AcDbEntity
  8
Velddata
100
AcDbLine
 10
212821.2023561908
 20
60422.44901337714
 30
429.5
 11
212821.2620748676
 21
60422.52866167644
 31
429.5
  0
LINE
  5
100EE
330
1F
100
AcDbEntity
  8
Velddata
100
AcDbLine
 10
212821.2620748676
 20
60422.52866167644
 30
429.5
 11
212804.7861073184
 21
60417.84146982783
 31
429.5
  0
LINE
  5
100EF
330
1F
100
AcDbEntity
  8
Velddata
100
AcDbLine
 10
212804.7861073184
 20
60417.84146982783
 30
429.5
 11
212803.7297872085
 21
60418.63347718745
 31
429.5
  0
LINE
  5
100F0
330
1F
100
AcDbEntity
  8
Velddata
100
AcDbLine
 10
212803.7297872085
 20
60418.63347718745
 30
429.5
 11
212821.2620748676
 21
60422.52866167644
 31
429.5
  0
LINE
  5
100F1
330
1F
100
AcDbEntity
  8
Velddata
100
AcDbLine
 10
212821.2620748676
 20
60422.52866167644
 30
429.5
 11
212816.3781089393
 21
60426.19056011341
 31
429.5
  0
LINE
  5
100F2
330
1F
100
AcDbEntity
  8
Velddata
100
AcDbLine
 10
212816.3781089393
 20
60426.19056011341
 30
429.5
 11
212803.7297872085
 21
60418.63347718745
 31
429.5
  0
LINE
  5
100F3
330
1F
100
AcDbEntity
  8
Velddata
100
AcDbLine
 10
212803.7297872085
 20
60418.63347718745
 30
429.5
 11
212803.9421630364
 21
60418.91672816385
 31
429.5
  0
LINE
  5
100F4
330
1F
100
AcDbEntity
  8
Velddata
100
AcDbLine
 10
212803.9421630364
 20
60418.91672816385
 30
429.5
 11
212797.6410637997
 21
60416.90108168734
 31
429.5
  0
LINE
  5
100F5
330
1F
100
AcDbEntity
  8
Velddata
100
AcDbLine
 10
212797.6410637997
 20
60416.90108168734
 30
429.5
 11
212810.1390682137
 21
60407.53033187037
 31
429.5
  0
LINE
  5
100F6
330
1F
100
AcDbEntity
  8
Velddata
100
AcDbLine
 10
212810.1390682137
 20
60407.53033187037
 30
429.5
 11
212810.1390682137
 21
60407.53033187037
 31
429.5
  0
LINE
  5
100F7
330
1F
100
AcDbEntity
  8
Velddata
100
AcDbLine
 10
212810.1390682137
 20
60407.53033187037
 30
429.5
 11
212815.0487058126
 21
60414.07843886096
 31
429.5
  0
LINE
  5
100F8
330
1F
100
AcDbEntity
  8
Velddata
100
AcDbLine
 10
212815.0487058126
 20
60414.07843886096
 30
429.5
 11
212815.0487058126
 21
60414.07843886096
 31
429.5
  0
LINE
  5
100F9
330
1F
100
AcDbEntity
  8
Velddata
100
AcDbLine
 10
212815.0487058126
 20
60414.07843886096
 30
429.5
 11
212813.528609547
 21
60415.21817616076
 31
429.5
  0
LINE
  5
100FA
330
1F
100
AcDbEntity
  8
Velddata
100
AcDbLine
 10
212813.528609547
 20
60415.21817616076
 30
429.5
 11
212813.528609547
 21
60415.21817616076
 31
429.5
  0
LINE
  5
100FB
330
1F
100
AcDbEntity
  8
Velddata
100
AcDbLine
 10
212813.528609547
 20
60415.21817616076
 30
429.5
 11
212815.3239816814
 21
60417.61270907422
 31
429.5
  0
LINE
  5
100FC
330
1F
100
AcDbEntity
  8
Velddata
100
AcDbLine
 10
212815.3239816814
 20
60417.61270907422
 30
429.5
 11
212815.3239816814
 21
60417.61270907422
 31
429.5
  0
LINE
  5
100FD
330
1F
100
AcDbEntity
  8
Velddata
100
AcDbLine
 10
212815.3239816814
 20
60417.61270907422
 30
429.5
 11
212816.8440779471
 21
60416.47297177449
 31
429.5
  0
LINE
  5
100FE
330
1F
100
AcDbEntity
  8
Velddata
100
AcDbLine
 10
212816.8440779471
 20
60416.47297177449
 30
429.5
 11
212816.8440779471
 21
60416.47297177449
 31
429.5
  0
LINE
  5
100FF
330
1F
100
AcDbEntity
  8
Velddata
100
AcDbLine
 10
212816.8440779471
 20
60416.47297177449
 30
429.5
 11
212820.9252777318
 21
60421.91617044259
 31
429.5
  0
LINE
  5
10100
330
1F
100
AcDbEntity
  8
Velddata
100
AcDbLine
 10
212820.9252777318
 20
60421.91617044259
 30
429.5
 11
212820.9252777318
 21
60421.91617044259
 31
429.5
  0
LINE
  5
10101
330
1F
100
AcDbEntity
  8
Velddata
100
AcDbLine
 10
212820.9252777318
 20
60421.91617044259
 30
429.5
 11
212831.6879660073
 21
60413.84652541383
 31
429.5
  0
LINE
  5
10102
330
1F
100
AcDbEntity
  8
Velddata
100
AcDbLine
 10
212831.6879660073
 20
60413.84652541383
 30
429.5
 11
212831.6879660073
 21
60413.84652541383
 31
429.5
  0
LINE
  5
10103
330
1F
100
AcDbEntity
  8
Velddata
100
AcDbLine
 10
212831.6879660073
 20
60413.84652541383
 30
429.5
 11
212835.7640833515
 21
60419.28294550332
 31
429.5
  0
LINE
  5
10104
330
1F
100
AcDbEntity
  8
Velddata
100
AcDbLine
 10
212835.7640833515
 20
60419.28294550332
 30
429.5
 11
212835.7640833515
 21
60419.28294550332
 31
429.5
  0
LINE
  5
10105
330
1F
100
AcDbEntity
  8
Velddata
100
AcDbLine
 10
212819.5649749863
 20
60431.42870787619
 30
429.5
 11
212819.5649749863
 21
60431.42870787619
 31
429.5
  0
LINE
  5
10106
330
1F
100
AcDbEntity
  8
Velddata
100
AcDbLine
 10
212819.5649749863
 20
60431.42870787619
 30
429.5
 11
212815.8497109233
 21
60426.47356687187
 31
429.5
  0
LINE
  5
10107
330
1F
100
AcDbEntity
  8
Velddata
100
AcDbLine
 10
212815.8497109233
 20
60426.47356687187
 30
429.5
 11
212815.8497109233
 21
60426.47356687187
 31
429.5
  0
LINE
  5
10108
330
1F
100
AcDbEntity
  8
Velddata
100
AcDbLine
 10
212815.8497109233
 20
60426.47356687187
 30
429.5
 11
212811.990126984
 21
60429.37263660534
 31
429.5
  0
LINE
  5
10109
330
1F
100
AcDbEntity
  8
Velddata
100
AcDbLine
 10
212811.990126984
 20
60429.37263660534
 30
429.5
 11
212811.990126984
 21
60429.37263660534
 31
429.5
  0
LINE
  5
1010A
330
1F
100
AcDbEntity
  8
Velddata
100
AcDbLine
 10
212811.990126984
 20
60429.37263660534
 30
429.5
 11
212809.7305020198
 21
60426.35891811782
 31
429.5
  0
LINE
  5
1010B
330
1F
100
AcDbEntity
  8
Velddata
100
AcDbLine
 10
212809.7305020198
 20
60426.35891811782
 30
429.5
 11
212809.7994239857
 21
60424.24391834405
 31
429.5
  0
LINE
  5
1010C
330
1F
100
AcDbEntity
  8
Velddata
100
AcDbLine
 10
212809.7994239857
 20
60424.24391834405
 30
429.5
 11
212809.4553282941
 21
60424.50191430344
 31
429.5
  0
LINE
  5
1010D
330
1F
100
AcDbEntity
  8
Velddata
100
AcDbLine
 10
212809.4553282941
 20
60424.50191430344
 30
429.5
 11
212808.8147526103
 21
60424.98220493813
 31
429.5
  0
LINE
  5
1010E
330
1F
100
AcDbEntity
  8
Velddata
100
AcDbLine
 10
212808.8147526103
 20
60424.98220493813
 30
429.5
 11
212805.6295339512
 21
60420.7339988032
 31
429.5
  0
LINE
  5
1010F
330
1F
100
AcDbEntity
  8
Velddata
100
AcDbLine
 10
212805.6295339512
 20
60420.7339988032
 30
429.5
 11
212804.5418910247
 21
60419.71660044636
 31
429.5
  0
LINE
  5
10110
330
1F
100
AcDbEntity
  8
Velddata
100
AcDbLine
 10
212804.5418910247
 20
60419.71660044636
 30
429.5
 11
212803.0687312027
 21
60420.82114575419
 31
429.5
  0
LINE
  5
10111
330
1F
100
AcDbEntity
  8
Velddata
100
AcDbLine
 10
212803.0687312027
 20
60420.82114575419
 30
429.5
 11
212803.0687312027
 21
60420.82114575419
 31
429.5
  0
LINE
  5
10112
330
1F
100
AcDbEntity
  8
Velddata
100
AcDbLine
 10
212803.0687312027
 20
60420.82114575419
 30
429.5
 11
212802.949293849
 21
60420.66184915558
 31
429.5
  0
LINE
  5
10113
330
1F
100
AcDbEntity
  8
Velddata
100
AcDbLine
 10
212802.949293849
 20
60420.66184915558
 30
429.5
 11
212802.949293849
 21
60420.66184915558
 31
429.5
  0
LINE
  5
10114
330
1F
100
AcDbEntity
  8
Velddata
100
AcDbLine
 10
212802.949293849
 20
60420.66184915558
 30
429.5
 11
212801.3563278627
 21
60421.85622269156
 31
429.5
  0
LINE
  5
10115
330
1F
100
AcDbEntity
  8
Velddata
100
AcDbLine
 10
212801.3563278627
 20
60421.85622269156
 30
429.5
 11
212806.2841093528
 21
60420.25571014271
 31
429.92
  0
LINE
  5
10116
330
1F
100
AcDbEntity
  8
Velddata
100
AcDbLine
 10
212806.2841093528
 20
60420.25571014271
 30
429.92
 11
212806.491926092
 21
60420.09989337339
 31
429.92
  0
LINE
  5
10117
330
1F
100
AcDbEntity
  8
Velddata
100
AcDbLine
 10
212806.491926092
 20
60420.09989337339
 30
429.92
 11
212806.491926092
 21
60420.09989337339
 31
429.92
  0
LINE
  5
10118
330
1F
100
AcDbEntity
  8
Velddata
100
AcDbLine
 10
212806.491926092
 20
60420.09989337339
 30
429.92
 11
212805.5524921756
 21
60418.84694676162
 31
429.92
  0
LINE
  5
10119
330
1F
100
AcDbEntity
  8
Velddata
100
AcDbLine
 10
212805.5524921756
 20
60418.84694676162
 30
429.92
 11
212804.7881092926
 21
60417.82747011
 31
429.92
  0
LINE
  5
1011A
330
1F
100
AcDbEntity
  8
Velddata
100
AcDbLine
 10
212804.7881092926
 20
60417.82747011
 30
429.92
 11
212803.7157874906
 21
60418.63147521327
 31
429.92
  0
LINE
  5
1011B
330
1F
100
AcDbEntity
  8
Velddata
100
AcDbLine
 10
212803.7157874906
 20
60418.63147521327
 30
429.92
 11
212803.7157874906
 21
60418.63147521327
 31
429.92
  0
LINE
  5
1011C
330
1F
100
AcDbEntity
  8
Velddata
100
AcDbLine
 10
212803.7157874906
 20
60418.63147521327
 30
429.92
 11
212803.9281633186
 21
60418.9147261897
 31
429.92
  0
LINE
  5
1011D
330
1F
100
AcDbEntity
  8
Velddata
100
AcDbLine
 10
212803.9281633186
 20
60418.9147261897
 30
429.92
 11
212804.7861073184
 21
60417.84146982783
 31
429.5
  0
LINE
  5
1011E
330
1F
100
AcDbEntity
  8
Velddata
100
AcDbLine
 10
212804.7861073184
 20
60417.84146982783
 30
429.5
 11
212805.0582018231
 21
60418.20436910355
 31
429.5
  0
LINE
  5
1011F
330
1F
100
AcDbEntity
  8
Velddata
100
AcDbLine
 10
212805.0582018231
 20
60418.20436910355
 30
429.5
 11
212805.4196042901
 21
60420.90389847667
 31
429.92
  0
LINE
  5
10120
330
1F
100
AcDbEntity
  8
Velddata
100
AcDbLine
 10
212805.4196042901
 20
60420.90389847667
 30
429.92
 11
212805.6275319769
 21
60420.74799852104
 31
429.92
  0
LINE
  5
10121
330
1F
100
AcDbEntity
  8
Velddata
100
AcDbLine
 10
212805.6275319769
 20
60420.74799852104
 30
429.92
 11
212805.4216062643
 21
60420.88989875888
 31
429.5
  0
LINE
  5
10122
330
1F
100
AcDbEntity
  8
Velddata
100
AcDbLine
 10
212805.4216062643
 20
60420.88989875888
 30
429.5
 11
212804.5418910247
 21
60419.71660044636
 31
429.5
  0
LINE
  5
10123
330
1F
100
AcDbEntity
  8
Velddata
100
AcDbLine
 10
212804.5418910247
 20
60419.71660044636
 30
429.5
 11
212808.4785384128
 21
60425.23429151329
 31
429.5
  0
LINE
  5
10124
330
1F
100
AcDbEntity
  8
Velddata
100
AcDbLine
 10
212808.4785384128
 20
60425.23429151329
 30
429.5
 11
212809.4688521763
 21
60426.55509785514
 31
429.5
  0
LINE
  5
10125
330
1F
100
AcDbEntity
  8
Velddata
100
AcDbLine
 10
212809.4688521763
 20
60426.55509785514
 30
429.5
 11
212805.4216062643
 21
60420.88989875888
 31
429.5
  0
LINE
  5
10126
330
1F
100
AcDbEntity
  8
Velddata
100
AcDbLine
 10
212805.4216062643
 20
60420.88989875888
 30
429.5
 11
212805.6295339512
 21
60420.7339988032
 31
429.5
  0
LINE
  5
10127
330
1F
100
AcDbEntity
  8
Velddata
100
AcDbLine
 10
212805.6295339512
 20
60420.7339988032
 30
429.5
 11
212808.4645386949
 21
60425.2322895391
 31
429.92
  0
LINE
  5
10128
330
1F
100
AcDbEntity
  8
Velddata
100
AcDbLine
 10
212808.4645386949
 20
60425.2322895391
 30
429.92
 11
212809.4668502021
 21
60426.56909757298
 31
429.92
  0
LINE
  5
10129
330
1F
100
AcDbEntity
  8
Velddata
100
AcDbLine
 10
212809.4668502021
 20
60426.56909757298
 30
429.92
 11
212809.4668502021
 21
60426.56909757298
 31
429.92
  0
LINE
  5
1012A
330
1F
100
AcDbEntity
  8
Velddata
100
AcDbLine
 10
212809.4668502021
 20
60426.56909757298
 30
429.92
 11
212809.7285000457
 21
60426.3729178356
 31
429.92
  0
LINE
  5
1012B
330
1F
100
AcDbEntity
  8
Velddata
100
AcDbLine
 10
212809.7285000457
 20
60426.3729178356
 30
429.92
 11
212810.803737467
 21
60425.56672666012
 31
429.92
  0
LINE
  5
1012C
330
1F
100
AcDbEntity
  8
Velddata
100
AcDbLine
 10
212810.803737467
 20
60425.56672666012
 30
429.92
 11
212810.6657510647
 21
60425.38269072941
 31
429.92
  0
LINE
  5
1012D
330
1F
100
AcDbEntity
  8
Velddata
100
AcDbLine
 10
212810.6657510647
 20
60425.38269072941
 30
429.92
 11
212808.8007528924
 21
60424.9802029639
 31
429.92
  0
LINE
  5
1012E
330
1F
100
AcDbEntity
  8
Velddata
100
AcDbLine
 10
212808.8007528924
 20
60424.9802029639
 30
429.92
 11
212808.4645386949
 21
60425.2322895391
 31
429.92
  0
LINE
  5
1012F
330
1F
100
AcDbEntity
  8
Velddata
100
AcDbLine
 10
212808.4645386949
 20
60425.2322895391
 30
429.92
 11
212808.9630911602
 21
60416.42294834536
 31
429.92
  0
LINE
  5
10130
330
1F
100
AcDbEntity
  8
Velddata
100
AcDbLine
 10
212808.9630911602
 20
60416.42294834536
 30
429.92
 11
212807.8262221295
 21
60417.2753496494
 31
429.92
  0
LINE
  5
10131
330
1F
100
AcDbEntity
  8
Velddata
100
AcDbLine
 10
212807.8262221295
 20
60417.2753496494
 30
429.92
 11
212807.8262221295
 21
60417.2753496494
 31
429.92
  0
LINE
  5
10132
330
1F
100
AcDbEntity
  8
Velddata
100
AcDbLine
 10
212807.8262221295
 20
60417.2753496494
 30
429.92
 11
212807.7623058158
 21
60417.19007338581
 31
429.92
  0
LINE
  5
10133
330
1F
100
AcDbEntity
  8
Velddata
100
AcDbLine
 10
212807.7623058158
 20
60417.19007338581
 30
429.92
 11
212806.9740818254
 21
60416.13843581699
 31
429.92
  0
LINE
  5
10134
330
1F
100
AcDbEntity
  8
Velddata
100
AcDbLine
 10
212806.9740818254
 20
60416.13843581699
 30
429.92
 11
212808.110950856
 21
60415.28603451296
 31
429.92
  0
LINE
  5
10135
330
1F
100
AcDbEntity
  8
Velddata
100
AcDbLine
 10
212808.110950856
 20
60415.28603451296
 30
429.92
 11
212808.110950856
 21
60415.28603451296
 31
429.92
  0
LINE
  5
10136
330
1F
100
AcDbEntity
  8
Velddata
100
AcDbLine
 10
212808.110950856
 20
60415.28603451296
 30
429.92
 11
212808.4069953874
 21
60415.68101304052
 31
429.92
  0
LINE
  5
10137
330
1F
100
AcDbEntity
  8
Velddata
100
AcDbLine
 10
212808.4069953874
 20
60415.68101304052
 30
429.92
 11
212807.2701263567
 21
60416.53341434458
 31
429.92
  0
LINE
  5
10138
330
1F
100
AcDbEntity
  8
Velddata
100
AcDbLine
 10
212807.2701263567
 20
60416.53341434458
 30
429.92
 11
212806.9740818254
 21
60416.13843581699
 31
429.92
  0
LINE
  5
10139
330
1F
100
AcDbEntity
  8
Velddata
100
AcDbLine
 10
212806.9740818254
 20
60416.13843581699
 30
429.92
 11
212807.7623058158
 21
60417.19007338581
 31
429.92
  0
LINE
  5
1013A
330
1F
100
AcDbEntity
  8
Velddata
100
AcDbLine
 10
212807.7623058158
 20
60417.19007338581
 30
429.92
 11
212805.5524921756
 21
60418.84694676162
 31
429.92
  0
LINE
  5
1013B
330
1F
100
AcDbEntity
  8
Velddata
100
AcDbLine
 10
212805.5524921756
 20
60418.84694676162
 30
429.92
 11
212808.8991748465
 21
60416.33767208175
 31
429.92
  0
LINE
  5
1013C
330
1F
100
AcDbEntity
  8
Velddata
100
AcDbLine
 10
212808.8991748465
 20
60416.33767208175
 30
429.92
 11
212808.9630911602
 21
60416.42294834536
 31
429.92
  0
LINE
  5
1013D
330
1F
100
AcDbEntity
  8
Velddata
100
AcDbLine
 10
212808.9630911602
 20
60416.42294834536
 30
429.92
 11
212808.4069953874
 21
60415.68101304052
 31
429.92
  0
LINE
  5
1013E
330
1F
100
AcDbEntity
  8
Velddata
100
AcDbLine
 10
212808.4069953874
 20
60415.68101304052
 30
429.92
 11
212811.3387369508
 21
60413.48285277355
 31
429.92
  0
LINE
  5
1013F
330
1F
100
AcDbEntity
  8
Velddata
100
AcDbLine
 10
212811.3387369508
 20
60413.48285277355
 30
429.92
 11
212808.4049920857
 21
60415.69501375359
 31
429.5
  0
LINE
  5
10140
330
1F
100
AcDbEntity
  8
Velddata
100
AcDbLine
 10
212808.4049920857
 20
60415.69501375359
 30
429.5
 11
212811.3527366686
 21
60413.48485474777
 31
429.5
  0
LINE
  5
10141
330
1F
100
AcDbEntity
  8
Velddata
100
AcDbLine
 10
212811.3527366686
 20
60413.48485474777
 30
429.5
 11
212807.7643091174
 21
60417.17607267276
 31
429.5
  0
LINE
  5
10142
330
1F
100
AcDbEntity
  8
Velddata
100
AcDbLine
 10
212807.7643091174
 20
60417.17607267276
 30
429.5
 11
212805.5384924578
 21
60418.84494478741
 31
429.5
  0
LINE
  5
10143
330
1F
100
AcDbEntity
  8
Velddata
100
AcDbLine
 10
212805.5384924578
 20
60418.84494478741
 30
429.5
 11
212807.2841247473
 21
60416.53541731385
 31
429.5
  0
LINE
  5
10144
330
1F
100
AcDbEntity
  8
Velddata
100
AcDbLine
 10
212807.2841247473
 20
60416.53541731385
 30
429.5
 11
212806.9880802161
 21
60416.14043878629
 31
429.5
  0
LINE
  5
10145
330
1F
100
AcDbEntity
  8
Velddata
100
AcDbLine
 10
212806.9880802161
 20
60416.14043878629
 30
429.5
 11
212808.8851764558
 21
60416.33566911248
 31
429.5
  0
LINE
  5
10146
330
1F
100
AcDbEntity
  8
Velddata
100
AcDbLine
 10
212808.8851764558
 20
60416.33566911248
 30
429.5
 11
212808.9490927695
 21
60416.42094537608
 31
429.5
  0
LINE
  5
10147
330
1F
100
AcDbEntity
  8
Velddata
100
AcDbLine
 10
212808.9490927695
 20
60416.42094537608
 30
429.5
 11
212810.5303742908
 21
60425.75919013807
 31
429.5
  0
LINE
  5
10148
330
1F
100
AcDbEntity
  8
Velddata
100
AcDbLine
 10
212810.5303742908
 20
60425.75919013807
 30
429.5
 11
212810.7897377492
 21
60425.56472468591
 31
429.5
  0
LINE
  5
10149
330
1F
100
AcDbEntity
  8
Velddata
100
AcDbLine
 10
212810.7897377492
 20
60425.56472468591
 30
429.5
 11
212810.5443740087
 21
60425.76119211234
 31
429.92
  0
LINE
  5
1014A
330
1F
100
AcDbEntity
  8
Velddata
100
AcDbLine
 10
212810.5443740087
 20
60425.76119211234
 30
429.92
 11
212810.803737467
 21
60425.56672666012
 31
429.92
  0
LINE
  5
1014B
330
1F
100
AcDbEntity
  8
Velddata
100
AcDbLine
 10
212810.803737467
 20
60425.56672666012
 30
429.92
 11
212804.373732242
 21
60420.84257674438
 31
429.92
  0
LINE
  5
1014C
330
1F
100
AcDbEntity
  8
Velddata
100
AcDbLine
 10
212804.373732242
 20
60420.84257674438
 30
429.92
 11
212805.2594463535
 21
60422.02387590289
 31
429.92
  0
LINE
  5
1014D
330
1F
100
AcDbEntity
  8
Velddata
100
AcDbLine
 10
212805.2594463535
 20
60422.02387590289
 30
429.92
 11
212805.2594463535
 21
60422.02387590289
 31
429.92
  0
LINE
  5
1014E
330
1F
100
AcDbEntity
  8
Velddata
100
AcDbLine
 10
212805.2594463535
 20
60422.02387590289
 30
429.92
 11
212805.4753748864
 21
60421.86197707546
 31
429.92
  0
LINE
  5
1014F
330
1F
100
AcDbEntity
  8
Velddata
100
AcDbLine
 10
212805.4753748864
 20
60421.86197707546
 30
429.92
 11
212807.6887763122
 21
60424.81404615544
 31
429.92
  0
LINE
  5
10150
330
1F
100
AcDbEntity
  8
Velddata
100
AcDbLine
 10
212807.6887763122
 20
60424.81404615544
 30
429.92
 11
212807.3445612686
 21
60425.07213160249
 31
429.92
  0
LINE
  5
10151
330
1F
100
AcDbEntity
  8
Velddata
100
AcDbLine
 10
212807.3445612686
 20
60425.07213160249
 30
429.92
 11
212807.3445612686
 21
60425.07213160249
 31
429.92
  0
LINE
  5
10152
330
1F
100
AcDbEntity
  8
Velddata
100
AcDbLine
 10
212807.3445612686
 20
60425.07213160249
 30
429.92
 11
212809.3066922655
 21
60427.68907499922
 31
429.92
  0
LINE
  5
10153
330
1F
100
AcDbEntity
  8
Velddata
100
AcDbLine
 10
212809.3066922655
 20
60427.68907499922
 30
429.92
 11
212809.3066922655
 21
60427.68907499922
 31
429.92
  0
LINE
  5
10154
330
1F
100
AcDbEntity
  8
Velddata
100
AcDbLine
 10
212809.3066922655
 20
60427.68907499922
 30
429.92
 11
212809.5763429638
 21
60427.48689638342
 31
429.92
  0
LINE
  5
10155
330
1F
100
AcDbEntity
  8
Velddata
100
AcDbLine
 10
212809.5763429638
 20
60427.48689638342
 30
429.92
 11
212815.5334324974
 21
60428.67409911515
 31
430.7785876157624
  0
LINE
  5
10156
330
1F
100
AcDbEntity
  8
Velddata
100
AcDbLine
 10
212815.5334324974
 20
60428.67409911515
 30
430.7785876157624
 11
212816.8419016857
 21
60430.6003556634
 31
430.8017711436744
  0
LINE
  5
10157
330
1F
100
AcDbEntity
  8
Velddata
100
AcDbLine
 10
212816.8419016857
 20
60430.6003556634
 30
430.8017711436744
 11
212816.8419016857
 21
60430.6003556634
 31
430.8017711436744
  0
LINE
  5
10158
330
1F
100
AcDbEntity
  8
Velddata
100
AcDbLine
 10
212816.8419016857
 20
60430.6003556634
 30
430.8017711436744
 11
212819.2440903099
 21
60433.97253098566
 31
430.9627790956123
  0
LINE
  5
10159
330
1F
100
AcDbEntity
  8
Velddata
100
AcDbLine
 10
212819.2440903099
 20
60433.97253098566
 30
430.9627790956123
 11
212821.1901928595
 21
60420.03997736826
 31
430.4661697245669
  0
LINE
  5
1015A
330
1F
100
AcDbEntity
  8
Velddata
100
AcDbLine
 10
212821.1901928595
 20
60420.03997736826
 30
430.4661697245669
 11
212821.0854356685
 21
60420.79619301634
 31
429.92
  0
LINE
  5
1015B
330
1F
100
AcDbEntity
  8
Velddata
100
AcDbLine
 10
212821.0854356685
 20
60420.79619301634
 30
429.92
 11
212817.0699554335
 21
60414.84286064035
 31
430.2786038717195
  0
LINE
  5
1015C
330
1F
100
AcDbEntity
  8
Velddata
100
AcDbLine
 10
212817.0699554335
 20
60414.84286064035
 30
430.2786038717195
 11
212817.0042358838
 21
60415.35299434818
 31
429.92
  0
LINE
  5
1015D
330
1F
100
AcDbEntity
  8
Velddata
100
AcDbLine
 10
212817.0042358838
 20
60415.35299434818
 30
429.92
 11
212815.5542305113
 21
60415.98143095171
 31
430.2879604175558
  0
LINE
  5
1015E
330
1F
100
AcDbEntity
  8
Velddata
100
AcDbLine
 10
212815.5542305113
 20
60415.98143095171
 30
430.2879604175558
 11
212815.484139618
 21
60416.49273164795
 31
429.92
  0
LINE
  5
1015F
330
1F
100
AcDbEntity
  8
Velddata
100
AcDbLine
 10
212815.484139618
 20
60416.49273164795
 30
429.92
 11
212815.13956738
 21
60415.45176458801
 31
430.2830861131973
  0
LINE
  5
10160
330
1F
100
AcDbEntity
  8
Velddata
100
AcDbLine
 10
212815.13956738
 20
60415.45176458801
 30
430.2830861131973
 11
212814.6485869733
 21
60415.3783340974
 31
429.92
  0
LINE
  5
10161
330
1F
100
AcDbEntity
  8
Velddata
100
AcDbLine
 10
212814.6485869733
 20
60415.3783340974
 30
429.92
 11
212816.1686832389
 21
60414.23859679763
 31
429.92
  0
LINE
  5
10162
330
1F
100
AcDbEntity
  8
Velddata
100
AcDbLine
 10
212816.1686832389
 20
60414.23859679763
 30
429.92
 11
212816.7269559747
 21
60414.32526168523
 31
430.3217456911488
  0
LINE
  5
10163
330
1F
100
AcDbEntity
  8
Velddata
100
AcDbLine
 10
212816.7269559747
 20
60414.32526168523
 30
430.3217456911488
 11
212810.3351212085
 21
60406.19408616298
 31
430.0714999363573
  0
LINE
  5
10164
330
1F
100
AcDbEntity
  8
Velddata
100
AcDbLine
 10
212810.3351212085
 20
60406.19408616298
 30
430.0714999363573
 11
212810.2992261504
 21
60406.41035444411
 31
429.92
  0
LINE
  5
10165
330
1F
100
AcDbEntity
  8
Velddata
100
AcDbLine
 10
212810.2992261504
 20
60406.41035444411
 30
429.92
 11
212796.5110594154
 21
60416.73964172172
 31
429.9129592247661
  0
LINE
  5
10166
330
1F
100
AcDbEntity
  8
Velddata
100
AcDbLine
 10
212796.5110594154
 20
60416.73964172172
 30
429.9129592247661
 11
212796.5210863734
 21
60416.74092375063
 31
429.92
  0
LINE
  5
10167
330
1F
100
AcDbEntity
  8
Velddata
100
AcDbLine
 10
212796.5210863734
 20
60416.74092375063
 30
429.92
 11
212801.1424922338
 21
60423.41577715864
 31
430.2395810948871
  0
LINE
  5
10168
330
1F
100
AcDbEntity
  8
Velddata
100
AcDbLine
 10
212801.1424922338
 20
60423.41577715864
 30
430.2395810948871
 11
212801.1961699261
 21
60422.97620011784
 31
429.92
  0
LINE
  5
10169
330
1F
100
AcDbEntity
  8
Velddata
100
AcDbLine
 10
212819.2440903099
 20
60433.97253098566
 30
430.9627790956123
 11
212823.4913861046
 21
60430.71542744484
 31
430.9047190072859
  0
LINE
  5
1016A
330
1F
100
AcDbEntity
  8
Velddata
100
AcDbLine
 10
212823.4913861046
 20
60430.71542744484
 30
430.9047190072859
 11
212823.4913861046
 21
60430.71542744484
 31
430.9047190072859
  0
LINE
  5
1016B
330
1F
100
AcDbEntity
  8
Velddata
100
AcDbLine
 10
212823.4913861046
 20
60430.71542744484
 30
430.9047190072859
 11
212826.975828288
 21
60428.0790978537
 31
430.8857044948222
  0
LINE
  5
1016C
330
1F
100
AcDbEntity
  8
Velddata
100
AcDbLine
 10
212826.975828288
 20
60428.0790978537
 30
430.8857044948222
 11
212826.975828288
 21
60428.0790978537
 31
430.8857044948222
  0
LINE
  5
1016D
330
1F
100
AcDbEntity
  8
Velddata
100
AcDbLine
 10
212826.975828288
 20
60428.0790978537
 30
430.8857044948222
 11
212830.4331431716
 21
60425.40658790147
 31
430.8214693131509
  0
LINE
  5
1016E
330
1F
100
AcDbEntity
  8
Velddata
100
AcDbLine
 10
212830.4331431716
 20
60425.40658790147
 30
430.8214693131509
 11
212830.4331431716
 21
60425.40658790147
 31
430.8214693131509
  0
LINE
  5
1016F
330
1F
100
AcDbEntity
  8
Velddata
100
AcDbLine
 10
212830.4331431716
 20
60425.40658790147
 30
430.8214693131509
 11
212833.8858471005
 21
60422.72792820317
 31
430.7495477617645
  0
LINE
  5
10170
330
1F
100
AcDbEntity
  8
Velddata
100
AcDbLine
 10
212802.7429703686
 20
60422.22196174138
 30
430.2439947228023
 11
212802.7891359123
 21
60421.7818265819
 31
429.92
  0
LINE
  5
10171
330
1F
100
AcDbEntity
  8
Velddata
100
AcDbLine
 10
212833.8858471005
 20
60422.72792820317
 30
430.7495477617645
 11
212837.7898775978
 21
60419.57637805652
 31
430.5700188671883
  0
LINE
  5
10172
330
1F
100
AcDbEntity
  8
Velddata
100
AcDbLine
 10
212802.9085732659
 20
60421.94112318055
 30
429.92
 11
212802.8648983277
 21
60422.38542338684
 31
430.2479385009512
  0
LINE
  5
10173
330
1F
100
AcDbEntity
  8
Velddata
100
AcDbLine
 10
212802.8648983277
 20
60422.38542338684
 30
430.2479385009512
 11
212804.373732242
 21
60420.84257674438
 31
429.92
  0
LINE
  5
10174
330
1F
100
AcDbEntity
  8
Velddata
100
AcDbLine
 10
212804.373732242
 20
60420.84257674438
 30
429.92
 11
212804.307237481
 21
60421.29036990792
 31
430.2450882970434
  0
LINE
  5
10175
330
1F
100
AcDbEntity
  8
Velddata
100
AcDbLine
 10
212804.307237481
 20
60421.29036990792
 30
430.2450882970434
 11
212805.2594463535
 21
60422.02387590289
 31
429.92
  0
LINE
  5
10176
330
1F
100
AcDbEntity
  8
Velddata
100
AcDbLine
 10
212805.2594463535
 20
60422.02387590289
 30
429.92
 11
212805.1700800386
 21
60422.53996502303
 31
430.303884837193
  0
LINE
  5
10177
330
1F
100
AcDbEntity
  8
Velddata
100
AcDbLine
 10
212805.1700800386
 20
60422.53996502303
 30
430.303884837193
 11
212805.3923515308
 21
60422.38324213369
 31
430.303884837193
  0
LINE
  5
10178
330
1F
100
AcDbEntity
  8
Velddata
100
AcDbLine
 10
212805.3923515308
 20
60422.38324213369
 30
430.303884837193
 11
212805.4753748864
 21
60421.86197707546
 31
429.92
  0
LINE
  5
10179
330
1F
100
AcDbEntity
  8
Velddata
100
AcDbLine
 10
212805.4753748864
 20
60421.86197707546
 30
429.92
 11
212807.6887763122
 21
60424.81404615544
 31
429.92
  0
LINE
  5
1017A
330
1F
100
AcDbEntity
  8
Velddata
100
AcDbLine
 10
212807.6887763122
 20
60424.81404615544
 30
429.92
 11
212807.0419224432
 21
60424.72273823262
 31
430.33290616854
  0
LINE
  5
1017B
330
1F
100
AcDbEntity
  8
Velddata
100
AcDbLine
 10
212807.0419224432
 20
60424.72273823262
 30
430.33290616854
 11
212806.6817473847
 21
60424.97669646754
 31
430.33290616854
  0
LINE
  5
1017C
330
1F
100
AcDbEntity
  8
Velddata
100
AcDbLine
 10
212806.6817473847
 20
60424.97669646754
 30
430.33290616854
 11
212807.3445612686
 21
60425.07213160249
 31
429.92
  0
LINE
  5
1017D
330
1F
100
AcDbEntity
  8
Velddata
100
AcDbLine
 10
212807.3445612686
 20
60425.07213160249
 30
429.92
 11
212809.3066922655
 21
60427.68907499922
 31
429.92
  0
LINE
  5
1017E
330
1F
100
AcDbEntity
  8
Velddata
100
AcDbLine
 10
212809.3066922655
 20
60427.68907499922
 30
429.92
 11
212809.1770208472
 21
60428.40546250345
 31
430.4851577905355
  0
LINE
  5
1017F
330
1F
100
AcDbEntity
  8
Velddata
100
AcDbLine
 10
212809.1770208472
 20
60428.40546250345
 30
430.4851577905355
 11
212809.4335893462
 21
60428.23800572824
 31
430.4851577905355
  0
LINE
  5
10180
330
1F
100
AcDbEntity
  8
Velddata
100
AcDbLine
 10
212809.4335893462
 20
60428.23800572824
 30
430.4851577905355
 11
212809.5763429638
 21
60427.48689638342
 31
429.92
  0
LINE
  5
10181
330
1F
100
AcDbEntity
  8
Velddata
100
AcDbLine
 10
212809.5763429638
 20
60427.48689638342
 30
429.92
 11
212811.6502175341
 21
60431.6342073236
 31
430.7059028110038
  0
LINE
  5
10182
330
1F
100
AcDbEntity
  8
Velddata
100
AcDbLine
 10
212811.6502175341
 20
60431.6342073236
 30
430.7059028110038
 11
212811.8303854198
 21
60430.49316933974
 31
429.92
  0
LINE
  5
10183
330
1F
100
AcDbEntity
  8
Velddata
100
AcDbLine
 10
212811.8303854198
 20
60430.49316933974
 30
429.92
 11
212815.5334324974
 21
60428.67409911515
 31
430.7785876157624
  0
LINE
  5
10184
330
1F
100
AcDbEntity
  8
Velddata
100
AcDbLine
 10
212815.5334324974
 20
60428.67409911515
 30
430.7785876157624
 11
212815.6899693504
 21
60427.59409961297
 31
429.92
  0
LINE
  5
10185
330
1F
100
AcDbEntity
  8
Velddata
100
AcDbLine
 10
212815.6899693504
 20
60427.59409961297
 30
429.92
 11
212819.4048170497
 21
60432.54868530248
 31
429.92
  0
LINE
  5
10186
330
1F
100
AcDbEntity
  8
Velddata
100
AcDbLine
 10
212819.4048170497
 20
60432.54868530248
 30
429.92
 11
212819.2440903099
 21
60433.97253098566
 31
430.9627790956123
  0
LINE
  5
10187
330
1F
100
AcDbEntity
  8
Velddata
100
AcDbLine
 10
212836.8840607778
 20
60419.44310344001
 30
429.92
 11
212837.7898775978
 21
60419.57637805652
 31
430.5700188671883
  0
LINE
  5
10188
330
1F
100
AcDbEntity
  8
Velddata
100
AcDbLine
 10
212837.7898775978
 20
60419.57637805652
 30
430.5700188671883
 11
212831.8481239441
 21
60412.72654798759
 31
429.92
  0
LINE
  5
10189
330
1F
100
AcDbEntity
  8
Velddata
100
AcDbLine
 10
212831.8481239441
 20
60412.72654798759
 30
429.92
 11
212831.9104936196
 21
60412.29264662309
 31
430.2297430316097
  0
LINE
  5
1018A
330
1F
100
AcDbEntity
  8
Velddata
100
AcDbLine
 10
212831.9104936196
 20
60412.29264662309
 30
430.2297430316097
 11
212837.7898775978
 21
60419.57637805652
 31
430.5700188671883
  0
LINE
  5
1018B
330
1F
100
AcDbEntity
  8
Velddata
100
AcDbLine
 10
212837.7898775978
 20
60419.57637805652
 30
430.5700188671883
 11
212834.7758519641
 21
60415.77759628747
 31
430.4321453434191
  0
LINE
  5
1018C
330
1F
100
AcDbEntity
  8
Velddata
100
AcDbLine
 10
212834.7758519641
 20
60415.77759628747
 30
430.4321453434191
 11
212834.7758519641
 21
60415.77759628747
 31
430.4321453434191
  0
LINE
  5
1018D
330
1F
100
AcDbEntity
  8
Velddata
100
AcDbLine
 10
212834.7758519641
 20
60415.77759628747
 30
430.4321453434191
 11
212831.9104936196
 21
60412.29264662309
 31
430.2297430316097
  0
LINE
  5
1018E
330
1F
100
AcDbEntity
  8
Velddata
100
AcDbLine
 10
212831.9104936196
 20
60412.29264662309
 30
430.2297430316097
 11
212831.9104936196
 21
60412.29264662309
 31
430.2297430316097
  0
LINE
  5
1018F
330
1F
100
AcDbEntity
  8
Velddata
100
AcDbLine
 10
212831.9104936196
 20
60412.29264662309
 30
430.2297430316097
 11
212827.9967400163
 21
60415.06456474352
 31
430.359784642171
  0
LINE
  5
10190
330
1F
100
AcDbEntity
  8
Velddata
100
AcDbLine
 10
212827.9967400163
 20
60415.06456474352
 30
430.359784642171
 11
212827.9967400163
 21
60415.06456474352
 31
430.359784642171
  0
LINE
  5
10191
330
1F
100
AcDbEntity
  8
Velddata
100
AcDbLine
 10
212827.9967400163
 20
60415.06456474352
 30
430.359784642171
 11
212824.3448307742
 21
60417.66862589835
 31
430.4670489504941
  0
LINE
  5
10192
330
1F
100
AcDbEntity
  8
Velddata
100
AcDbLine
 10
212824.3448307742
 20
60417.66862589835
 30
430.4670489504941
 11
212824.3448307742
 21
60417.66862589835
 31
430.4670489504941
  0
LINE
  5
10193
330
1F
100
AcDbEntity
  8
Velddata
100
AcDbLine
 10
212824.3448307742
 20
60417.66862589835
 30
430.4670489504941
 11
212821.1901928595
 21
60420.03997736826
 31
430.4661697245669
  0
LINE
  5
10194
330
1F
100
AcDbEntity
  8
Velddata
100
AcDbLine
 10
212821.1901928595
 20
60420.03997736826
 30
430.4661697245669
 11
212821.1901928595
 21
60420.03997736826
 31
430.4661697245669
  0
LINE
  5
10195
330
1F
100
AcDbEntity
  8
Velddata
100
AcDbLine
 10
212821.1901928595
 20
60420.03997736826
 30
430.4661697245669
 11
212819.4166861666
 21
60417.79578781348
 31
430.3847638382775
  0
LINE
  5
10196
330
1F
100
AcDbEntity
  8
Velddata
100
AcDbLine
 10
212819.4166861666
 20
60417.79578781348
 30
430.3847638382775
 11
212819.4166861666
 21
60417.79578781348
 31
430.3847638382775
  0
LINE
  5
10197
330
1F
100
AcDbEntity
  8
Velddata
100
AcDbLine
 10
212819.4166861666
 20
60417.79578781348
 30
430.3847638382775
 11
212817.0699554335
 21
60414.84286064035
 31
430.2786038717195
  0
LINE
  5
10198
330
1F
100
AcDbEntity
  8
Velddata
100
AcDbLine
 10
212817.0699554335
 20
60414.84286064035
 30
430.2786038717195
 11
212817.0699554335
 21
60414.84286064035
 31
430.2786038717195
  0
LINE
  5
10199
330
1F
100
AcDbEntity
  8
Velddata
100
AcDbLine
 10
212817.0699554335
 20
60414.84286064035
 30
430.2786038717195
 11
212815.5542305113
 21
60415.98143095171
 31
430.2879604175558
  0
LINE
  5
1019A
330
1F
100
AcDbEntity
  8
Velddata
100
AcDbLine
 10
212815.5542305113
 20
60415.98143095171
 30
430.2879604175558
 11
212815.5542305113
 21
60415.98143095171
 31
430.2879604175558
  0
LINE
  5
1019B
330
1F
100
AcDbEntity
  8
Velddata
100
AcDbLine
 10
212815.5542305113
 20
60415.98143095171
 30
430.2879604175558
 11
212815.13956738
 21
60415.45176458801
 31
430.2830861131973
  0
LINE
  5
1019C
330
1F
100
AcDbEntity
  8
Velddata
100
AcDbLine
 10
212815.13956738
 20
60415.45176458801
 30
430.2830861131973
 11
212815.13956738
 21
60415.45176458801
 31
430.2830861131973
  0
LINE
  5
1019D
330
1F
100
AcDbEntity
  8
Velddata
100
AcDbLine
 10
212815.13956738
 20
60415.45176458801
 30
430.2830861131973
 11
212816.7269559747
 21
60414.32526168523
 31
430.3217456911488
  0
LINE
  5
1019E
330
1F
100
AcDbEntity
  8
Velddata
100
AcDbLine
 10
212816.7269559747
 20
60414.32526168523
 30
430.3217456911488
 11
212816.7269559747
 21
60414.32526168523
 31
430.3217456911488
  0
LINE
  5
1019F
330
1F
100
AcDbEntity
  8
Velddata
100
AcDbLine
 10
212816.7269559747
 20
60414.32526168523
 30
430.3217456911488
 11
212813.5087409794
 21
60410.11844644673
 31
430.2634465357428
  0
LINE
  5
101A0
330
1F
100
AcDbEntity
  8
Velddata
100
AcDbLine
 10
212813.5087409794
 20
60410.11844644673
 30
430.2634465357428
 11
212813.5087409794
 21
60410.11844644673
 31
430.2634465357428
  0
LINE
  5
101A1
330
1F
100
AcDbEntity
  8
Velddata
100
AcDbLine
 10
212813.5087409794
 20
60410.11844644673
 30
430.2634465357428
 11
212810.3351212085
 21
60406.19408616298
 31
430.0714999363573
  0
LINE
  5
101A2
330
1F
100
AcDbEntity
  8
Velddata
100
AcDbLine
 10
212810.3351212085
 20
60406.19408616298
 30
430.0714999363573
 11
212810.3351212085
 21
60406.19408616298
 31
430.0714999363573
  0
LINE
  5
101A3
330
1F
100
AcDbEntity
  8
Velddata
100
AcDbLine
 10
212810.3351212085
 20
60406.19408616298
 30
430.0714999363573
 11
212806.8090521748
 21
60408.93212684819
 31
429.9960793576141
  0
LINE
  5
101A4
330
1F
100
AcDbEntity
  8
Velddata
100
AcDbLine
 10
212806.8090521748
 20
60408.93212684819
 30
429.9960793576141
 11
212806.8090521748
 21
60408.93212684819
 31
429.9960793576141
  0
LINE
  5
101A5
330
1F
100
AcDbEntity
  8
Velddata
100
AcDbLine
 10
212806.8090521748
 20
60408.93212684819
 30
429.9960793576141
 11
212803.3551297012
 21
60411.50224879122
 31
430.011728182219
  0
LINE
  5
101A6
330
1F
100
AcDbEntity
  8
Velddata
100
AcDbLine
 10
212803.3551297012
 20
60411.50224879122
 30
430.011728182219
 11
212803.3551297012
 21
60411.50224879122
 31
430.011728182219
  0
LINE
  5
101A7
330
1F
100
AcDbEntity
  8
Velddata
100
AcDbLine
 10
212803.3551297012
 20
60411.50224879122
 30
430.011728182219
 11
212799.9157314847
 21
60414.09174210052
 31
430.0031653594063
  0
LINE
  5
101A8
330
1F
100
AcDbEntity
  8
Velddata
100
AcDbLine
 10
212799.9157314847
 20
60414.09174210052
 30
430.0031653594063
 11
212799.9157314847
 21
60414.09174210052
 31
430.0031653594063
  0
LINE
  5
101A9
330
1F
100
AcDbEntity
  8
Velddata
100
AcDbLine
 10
212799.9157314847
 20
60414.09174210052
 30
430.0031653594063
 11
212796.6918666576
 21
60416.61287616291
 31
429.92
  0
LINE
  5
101AA
330
1F
100
AcDbEntity
  8
Velddata
100
AcDbLine
 10
212796.6918666576
 20
60416.61287616291
 30
429.92
 11
212796.6918666576
 21
60416.61287616291
 31
429.92
  0
LINE
  5
101AB
330
1F
100
AcDbEntity
  8
Velddata
100
AcDbLine
 10
212796.6918666576
 20
60416.61287616291
 30
429.92
 11
212796.5110594154
 21
60416.73964172172
 31
429.9129592247661
  0
LINE
  5
101AC
330
1F
100
AcDbEntity
  8
Velddata
100
AcDbLine
 10
212796.5110594154
 20
60416.73964172172
 30
429.9129592247661
 11
212796.5110594154
 21
60416.73964172172
 31
429.9129592247661
  0
LINE
  5
101AD
330
1F
100
AcDbEntity
  8
Velddata
100
AcDbLine
 10
212796.5110594154
 20
60416.73964172172
 30
429.9129592247661
 11
212796.6578119226
 21
60416.92327804992
 31
429.92
  0
LINE
  5
101AE
330
1F
100
AcDbEntity
  8
Velddata
100
AcDbLine
 10
212796.6578119226
 20
60416.92327804992
 30
429.92
 11
212796.6578119226
 21
60416.92327804992
 31
429.92
  0
LINE
  5
101AF
330
1F
100
AcDbEntity
  8
Velddata
100
AcDbLine
 10
212796.6578119226
 20
60416.92327804992
 30
429.92
 11
212798.753913492
 21
60419.93707485738
 31
430.0508794813968
  0
LINE
  5
101B0
330
1F
100
AcDbEntity
  8
Velddata
100
AcDbLine
 10
212798.753913492
 20
60419.93707485738
 30
430.0508794813968
 11
212798.753913492
 21
60419.93707485738
 31
430.0508794813968
  0
LINE
  5
101B1
330
1F
100
AcDbEntity
  8
Velddata
100
AcDbLine
 10
212798.753913492
 20
60419.93707485738
 30
430.0508794813968
 11
212801.1424922338
 21
60423.41577715864
 31
430.2395810948871
  0
LINE
  5
101B2
330
1F
100
AcDbEntity
  8
Velddata
100
AcDbLine
 10
212801.1424922338
 20
60423.41577715864
 30
430.2395810948871
 11
212807.0419224432
 21
60424.72273823262
 31
430.33290616854
  0
LINE
  5
101B3
330
1F
100
AcDbEntity
  8
Velddata
100
AcDbLine
 10
212807.0419224432
 20
60424.72273823262
 30
430.33290616854
 11
212806.6817473847
 21
60424.97669646754
 31
430.33290616854
  0
LINE
  5
101B4
330
1F
100
AcDbEntity
  8
Velddata
100
AcDbLine
 10
212806.6817473847
 20
60424.97669646754
 30
430.33290616854
 11
212809.4335893462
 21
60428.23800572824
 31
430.4851577905355
  0
LINE
  5
101B5
330
1F
100
AcDbEntity
  8
Velddata
100
AcDbLine
 10
212809.4335893462
 20
60428.23800572824
 30
430.4851577905355
 11
212809.1770208472
 21
60428.40546250345
 31
430.4851577905355
  0
LINE
  5
101B6
330
1F
100
AcDbEntity
  8
Velddata
100
AcDbLine
 10
212809.1770208472
 20
60428.40546250345
 30
430.4851577905355
 11
212801.1424922338
 21
60423.41577715864
 31
430.2395810948871
  0
LINE
  5
101B7
330
1F
100
AcDbEntity
  8
Velddata
100
AcDbLine
 10
212801.1424922338
 20
60423.41577715864
 30
430.2395810948871
 11
212802.7429703686
 21
60422.22196174138
 31
430.2439947228023
  0
LINE
  5
101B8
330
1F
100
AcDbEntity
  8
Velddata
100
AcDbLine
 10
212802.7429703686
 20
60422.22196174138
 30
430.2439947228023
 11
212802.7429703686
 21
60422.22196174138
 31
430.2439947228023
  0
LINE
  5
101B9
330
1F
100
AcDbEntity
  8
Velddata
100
AcDbLine
 10
212802.7429703686
 20
60422.22196174138
 30
430.2439947228023
 11
212802.8648983277
 21
60422.38542338684
 31
430.2479385009512
  0
LINE
  5
101BA
330
1F
100
AcDbEntity
  8
Velddata
100
AcDbLine
 10
212802.8648983277
 20
60422.38542338684
 30
430.2479385009512
 11
212802.8648983277
 21
60422.38542338684
 31
430.2479385009512
  0
LINE
  5
101BB
330
1F
100
AcDbEntity
  8
Velddata
100
AcDbLine
 10
212802.8648983277
 20
60422.38542338684
 30
430.2479385009512
 11
212804.307237481
 21
60421.29036990792
 31
430.2450882970434
  0
LINE
  5
101BC
330
1F
100
AcDbEntity
  8
Velddata
100
AcDbLine
 10
212804.307237481
 20
60421.29036990792
 30
430.2450882970434
 11
212804.307237481
 21
60421.29036990792
 31
430.2450882970434
  0
LINE
  5
101BD
330
1F
100
AcDbEntity
  8
Velddata
100
AcDbLine
 10
212804.307237481
 20
60421.29036990792
 30
430.2450882970434
 11
212805.1700800386
 21
60422.53996502303
 31
430.303884837193
  0
LINE
  5
101BE
330
1F
100
AcDbEntity
  8
Velddata
100
AcDbLine
 10
212805.1700800386
 20
60422.53996502303
 30
430.303884837193
 11
212805.3923515308
 21
60422.38324213369
 31
430.303884837193
  0
LINE
  5
101BF
330
1F
100
AcDbEntity
  8
Velddata
100
AcDbLine
 10
212805.3923515308
 20
60422.38324213369
 30
430.303884837193
 11
212805.1700800386
 21
60422.53996502303
 31
430.303884837193
  0
LINE
  5
101C0
330
1F
100
AcDbEntity
  8
Velddata
100
AcDbLine
 10
212805.1700800386
 20
60422.53996502303
 30
430.303884837193
 11
212805.3923515308
 21
60422.38324213369
 31
430.303884837193
  0
LINE
  5
101C1
330
1F
100
AcDbEntity
  8
Velddata
100
AcDbLine
 10
212805.3923515308
 20
60422.38324213369
 30
430.303884837193
 11
212807.0419224432
 21
60424.72273823262
 31
430.33290616854
  0
LINE
  5
101C2
330
1F
100
AcDbEntity
  8
Velddata
100
AcDbLine
 10
212807.0419224432
 20
60424.72273823262
 30
430.33290616854
 11
212806.6817473847
 21
60424.97669646754
 31
430.33290616854
  0
LINE
  5
101C3
330
1F
100
AcDbEntity
  8
Velddata
100
AcDbLine
 10
212806.6817473847
 20
60424.97669646754
 30
430.33290616854
 11
212809.1770208472
 21
60428.40546250345
 31
430.4851577905355
  0
LINE
  5
101C4
330
1F
100
AcDbEntity
  8
Velddata
100
AcDbLine
 10
212809.1770208472
 20
60428.40546250345
 30
430.4851577905355
 11
212809.4335893462
 21
60428.23800572824
 31
430.4851577905355
  0
LINE
  5
101C5
330
1F
100
AcDbEntity
  8
Velddata
100
AcDbLine
 10
212809.4335893462
 20
60428.23800572824
 30
430.4851577905355
 11
212811.6502175341
 21
60431.6342073236
 31
430.7059028110038
  0
LINE
  5
101C6
330
1F
100
AcDbEntity
  8
Velddata
100
AcDbLine
 10
212811.6502175341
 20
60431.6342073236
 30
430.7059028110038
 11
212811.6502175341
 21
60431.6342073236
 31
430.7059028110038
  0
LINE
  5
101C7
330
1F
100
AcDbEntity
  8
Velddata
100
AcDbLine
 10
212811.6502175341
 20
60431.6342073236
 30
430.7059028110038
 11
212815.5334324974
 21
60428.67409911515
 31
430.7785876157624
  0
ENDSEC
  0
SECTION
  2
OBJECTS
  0
DICTIONARY
  5
C
330
0
100
AcDbDictionary
281
     1
  3
ACAD_DETAILVIEWSTYLE
350
26B
  3
ACAD_GROUP
350
D
  3
ACAD_LAYOUT
350
1A
  3
ACAD_MATERIAL
350
43
  3
ACAD_MLEADERSTYLE
350
5B
  3
ACAD_MLINESTYLE
350
17
  3
ACAD_PLOTSETTINGS
350
19
  3
ACAD_PLOTSTYLENAME
350
E
  3
ACAD_SCALELIST
350
47
  3
ACAD_SECTIONVIEWSTYLE
350
26C
  3
ACAD_TABLESTYLE
350
59
  3
ACAD_VISUALSTYLE
350
2A
  3
ACDB_RECOMPOSE_DATA
350
268
  3
AcDbVariableDictionary
350
234
  0
SUN
  5
5D
330
29
100
AcDbSun
 90
        1
290
     0
 63
     7
421
 16777215
 40
1.0
291
     1
 91
  2455826
 92
 54000000
292
     0
 70
     2
 71
   256
280
     1
  0
DICTIONARY
  5
26B
102
{ACAD_REACTORS
330
C
102
}
330
C
100
AcDbDictionary
281
     1
  0
DICTIONARY
  5
D
102
{ACAD_REACTORS
330
C
102
}
330
C
100
AcDbDictionary
281
     1
  3
*A1
350
B7
  0
DICTIONARY
  5
1A
102
{ACAD_REACTORS
330
C
102
}
330
C
100
AcDbDictionary
281
     1
  3
Model
350
22
  3
Planblad_1
350
1E
  0
DICTIONARY
  5
43
102
{ACAD_REACTORS
330
C
102
}
330
C
100
AcDbDictionary
281
     1
  3
ByBlock
350
45
  3
ByLayer
350
44
  3
Global
350
46
  0
DICTIONARY
  5
5B
102
{ACAD_REACTORS
330
C
102
}
330
C
100
AcDbDictionary
281
     1
  3
Standard
350
5C
  0
DICTIONARY
  5
17
102
{ACAD_REACTORS
330
C
102
}
330
C
100
AcDbDictionary
281
     1
  3
Standard
350
18
  0
DICTIONARY
  5
19
102
{ACAD_REACTORS
330
C
102
}
330
C
100
AcDbDictionary
281
     1
  0
ACDBDICTIONARYWDFLT
  5
E
102
{ACAD_REACTORS
330
C
102
}
330
C
100
AcDbDictionary
281
     1
  3
Normal
350
F
100
AcDbDictionaryWithDefault
340
F
  0
DICTIONARY
  5
47
102
{ACAD_REACTORS
330
C
102
}
330
C
100
AcDbDictionary
281
     1
  3
A0
350
48
  3
A1
350
49
  3
A2
350
4A
  3
A3
350
4B
  3
A4
350
4C
  3
A5
350
4D
  3
A6
350
4E
  3
A7
350
4F
  3
A8
350
50
  3
A9
350
51
  3
B1
350
52
  3
B2
350
53
  3
B3
350
54
  3
B4
350
55
  3
B5
350
56
  3
B6
350
57
  3
B7
350
58
  0
DICTIONARY
  5
26C
102
{ACAD_REACTORS
330
C
102
}
330
C
100
AcDbDictionary
281
     1
  0
DICTIONARY
  5
59
102
{ACAD_REACTORS
330
C
102
}
330
C
100
AcDbDictionary
281
     1
  3
Standard
350
5A
  0
DICTIONARY
  5
2A
102
{ACAD_REACTORS
330
C
102
}
330
C
100
AcDbDictionary
281
     1
  3
2dWireframe
350
2F
  3
Basic
350
32
  3
Brighten
350
36
  3
ColorChange
350
3A
  3
Conceptual
350
34
  3
Dim
350
35
  3
EdgeColorOff
350
3D
  3
Facepattern
350
39
  3
Flat
350
2B
  3
FlatWithEdges
350
2C
  3
Gouraud
350
2D
  3
GouraudWithEdges
350
2E
  3
Hidden
350
31
  3
JitterOff
350
3B
  3
Linepattern
350
38
  3
OverhangOff
350
3C
  3
Realistic
350
33
  3
Shaded
350
42
  3
Shaded with edges
350
41
  3
Shades of Gray
350
3E
  3
Sketchy
350
3F
  3
Thicken
350
37
  3
Wireframe
350
30
  3
X-Ray
350
40
  0
XRECORD
  5
268
102
{ACAD_REACTORS
330
C
102
}
330
C
100
AcDbXrecord
280
     1
 90
        1
330
5A
  0
DICTIONARY
  5
234
102
{ACAD_REACTORS
330
C
102
}
330
C
100
AcDbDictionary
281
     1
  3
CANNOSCALE
350
235
  3
CMLEADERSTYLE
350
26A
  3
CTABLESTYLE
350
269
  0
GROUP
  5
B7
102
{ACAD_REACTORS
330
D
102
}
330
D
100
AcDbGroup
300

 70
     0
 71
     1
340
B6
340
B8
340
B9
340
BA
340
BB
340
BC
340
BD
340
BE
340
BF
340
C0
340
C1
340
C2
340
C3
340
C4
340
C5
340
C6
340
C7
340
116
340
117
340
118
340
119
340
11A
340
187
340
19A
340
19B
340
19C
340
19D
340
19E
340
1A1
340
1A2
340
1A3
340
1A4
340
1A5
340
1A6
340
1A7
340
1A8
340
1A9
340
1AA
340
1AB
340
1E0
340
1E1
340
1E2
340
20E
340
20F
  0
LAYOUT
  5
22
102
{ACAD_REACTORS
330
1A
102
}
330
1A
100
AcDbPlotSettings
  1

  2
none_device
  4
Letter_(8.50_x_11.00_Inches)
  6

 40
6.35
 41
6.35
 42
6.35000508
 43
6.35000508
 44
215.9
 45
279.4
 46
0.0
 47
0.0
 48
0.0
 49
0.0
140
0.0
141
0.0
142
1.0
143
1.0
 70
  1712
 72
     0
 73
     0
 74
     0
  7

 75
     0
 76
     0
 77
     2
 78
   300
147
1.0
148
0.0
149
0.0
100
AcDbLayout
  1
Model
 70
     1
 71
     0
 10
212791.408171929
 20
60399.87948250247
 11
212847.5580877701
 21
60450.05296431089
 12
0.0
 22
0.0
 32
0.0
 14
212791.408171929
 24
60399.87948250247
 34
0.0
 15
212847.5580877701
 25
60450.05296431089
 35
0.0
146
0.0
 13
0.0
 23
0.0
 33
0.0
 16
1.0
 26
0.0
 36
0.0
 17
0.0
 27
1.0
 37
0.0
 76
     0
330
1F
331
29
  0
LAYOUT
  5
1E
102
{ACAD_REACTORS
330
1A
102
}
330
1A
100
AcDbPlotSettings
  1

  2
none_device
  4
ISO_A4_(210.00_x_297.00_MM)
  6

 40
7.5
 41
20.0
 42
7.5
 43
20.0
 44
210.0
 45
297.0
 46
-7.5
 47
-20.0
 48
0.0
 49
0.0
140
0.0
141
0.0
142
1.0
143
0.001
 70
   672
 72
     1
 73
     0
 74
     5
  7

 75
    16
 76
     0
 77
     2
 78
   300
147
1.0
148
0.0
149
0.0
100
AcDbLayout
  1
Planblad_1
 70
     0
 71
     1
 10
0.0
 20
0.0
 11
12.0
 21
9.0
 12
0.0
 22
0.0
 32
0.0
 14
1.000000000000000E+20
 24
1.000000000000000E+20
 34
1.000000000000000E+20
 15
-1.000000000000000E+20
 25
-1.000000000000000E+20
 35
-1.000000000000000E+20
146
0.0
 13
0.0
 23
0.0
 33
0.0
 16
1.0
 26
0.0
 36
0.0
 17
0.0
 27
1.0
 37
0.0
 76
     0
330
1B
331
5E
  0
MATERIAL
  5
45
102
{ACAD_REACTORS
330
43
102
}
330
43
100
AcDbMaterial
  1
ByBlock
 72
     1
 94
      127
  0
MATERIAL
  5
44
102
{ACAD_REACTORS
330
43
102
}
330
43
100
AcDbMaterial
  1
ByLayer
 72
     1
 94
      127
  0
MATERIAL
  5
46
102
{ACAD_REACTORS
330
43
102
}
330
43
100
AcDbMaterial
  1
Global
 72
     1
 94
      127
  0
MLEADERSTYLE
  5
5C
102
{ACAD_REACTORS
330
5B
102
}
330
5B
100
AcDbMLeaderStyle
179
     2
170
     2
171
     1
172
     0
 90
        2
 40
0.0
 41
0.0
173
     1
 91
-1056964608
340
14
 92
       -2
290
     1
 42
0.09
291
     1
 43
0.36
  3
Standard
341
0
 44
0.18
300

342
11
174
     1
178
     6
175
     1
176
     0
 93
-1056964608
 45
0.18
292
     0
297
     0
 46
0.18
343
0
 94
-1056964608
 47
1.0
 49
1.0
140
1.0
293
     1
141
0.0
294
     1
177
     0
142
1.0
295
     0
296
     0
143
0.125
271
     0
272
     9
273
     9
  0
MLINESTYLE
  5
18
102
{ACAD_REACTORS
330
17
102
}
330
17
100
AcDbMlineStyle
  2
Standard
 70
     0
  3

 62
   256
 51
90.0
 52
90.0
 71
     2
 49
0.5
 62
   256
  6
BYLAYER
 49
-0.5
 62
   256
  6
BYLAYER
  0
ACDBPLACEHOLDER
  5
F
102
{ACAD_REACTORS
330
E
102
}
330
E
  0
SCALE
  5
48
102
{ACAD_REACTORS
330
47
102
}
330
47
100
AcDbScale
 70
     0
300
1:1
140
1.0
141
1.0
290
     1
  0
SCALE
  5
49
102
{ACAD_REACTORS
330
47
102
}
330
47
100
AcDbScale
 70
     0
300
1/128" = 1'-0"
140
0.0078125
141
12.0
290
     0
  0
SCALE
  5
4A
102
{ACAD_REACTORS
330
47
102
}
330
47
100
AcDbScale
 70
     0
300
1/64" = 1'-0"
140
0.015625
141
12.0
290
     0
  0
SCALE
  5
4B
102
{ACAD_REACTORS
330
47
102
}
330
47
100
AcDbScale
 70
     0
300
1/32" = 1'-0"
140
0.03125
141
12.0
290
     0
  0
SCALE
  5
4C
102
{ACAD_REACTORS
330
47
102
}
330
47
100
AcDbScale
 70
     0
300
1/16" = 1'-0"
140
0.0625
141
12.0
290
     0
  0
SCALE
  5
4D
102
{ACAD_REACTORS
330
47
102
}
330
47
100
AcDbScale
 70
     0
300
3/32" = 1'-0"
140
0.09375
141
12.0
290
     0
  0
SCALE
  5
4E
102
{ACAD_REACTORS
330
47
102
}
330
47
100
AcDbScale
 70
     0
300
1/8" = 1'-0"
140
0.125
141
12.0
290
     0
  0
SCALE
  5
4F
102
{ACAD_REACTORS
330
47
102
}
330
47
100
AcDbScale
 70
     0
300
3/16" = 1'-0"
140
0.1875
141
12.0
290
     0
  0
SCALE
  5
50
102
{ACAD_REACTORS
330
47
102
}
330
47
100
AcDbScale
 70
     0
300
1/4" = 1'-0"
140
0.25
141
12.0
290
     0
  0
SCALE
  5
51
102
{ACAD_REACTORS
330
47
102
}
330
47
100
AcDbScale
 70
     0
300
3/8" = 1'-0"
140
0.375
141
12.0
290
     0
  0
SCALE
  5
52
102
{ACAD_REACTORS
330
47
102
}
330
47
100
AcDbScale
 70
     0
300
1/2" = 1'-0"
140
0.5
141
12.0
290
     0
  0
SCALE
  5
53
102
{ACAD_REACTORS
330
47
102
}
330
47
100
AcDbScale
 70
     0
300
3/4" = 1'-0"
140
0.75
141
12.0
290
     0
  0
SCALE
  5
54
102
{ACAD_REACTORS
330
47
102
}
330
47
100
AcDbScale
 70
     0
300
1" = 1'-0"
140
1.0
141
12.0
290
     0
  0
SCALE
  5
55
102
{ACAD_REACTORS
330
47
102
}
330
47
100
AcDbScale
 70
     0
300
1-1/2" = 1'-0"
140
1.5
141
12.0
290
     0
  0
SCALE
  5
56
102
{ACAD_REACTORS
330
47
102
}
330
47
100
AcDbScale
 70
     0
300
3" = 1'-0"
140
3.0
141
12.0
290
     0
  0
SCALE
  5
57
102
{ACAD_REACTORS
330
47
102
}
330
47
100
AcDbScale
 70
     0
300
6" = 1'-0"
140
6.0
141
12.0
290
     0
  0
SCALE
  5
58
102
{ACAD_REACTORS
330
47
102
}
330
47
100
AcDbScale
 70
     0
300
1'-0" = 1'-0"
140
12.0
141
12.0
290
     0
  0
TABLESTYLE
  5
5A
102
{ACAD_REACTORS
330
59
102
}
102
{ACAD_XDICTIONARY
360
266
102
}
330
59
100
AcDbTableStyle
  3
Standard
 70
     0
 71
     0
 40
0.06
 41
0.06
280
     0
281
     0
  7
Standard
140
0.18
170
     2
 62
     0
 63
   257
283
     0
 90
        4
 91
        0
  1

274
    -2
284
     1
 64
     0
275
    -2
285
     1
 65
     0
276
    -2
286
     1
 66
     0
277
    -2
287
     1
 67
     0
278
    -2
288
     1
 68
     0
279
    -2
289
     1
 69
     0
  7
Standard
140
0.25
170
     5
 62
     0
 63
   257
283
     0
 90
        4
 91
        0
  1

274
    -2
284
     1
 64
     0
275
    -2
285
     1
 65
     0
276
    -2
286
     1
 66
     0
277
    -2
287
     1
 67
     0
278
    -2
288
     1
 68
     0
279
    -2
289
     1
 69
     0
  7
Standard
140
0.18
170
     5
 62
     0
 63
   257
283
     0
 90
        4
 91
        0
  1

274
    -2
284
     1
 64
     0
275
    -2
285
     1
 65
     0
276
    -2
286
     1
 66
     0
277
    -2
287
     1
 67
     0
278
    -2
288
     1
 68
     0
279
    -2
289
     1
 69
     0
  0
VISUALSTYLE
  5
2F
102
{ACAD_REACTORS
330
2A
102
}
102
{ACAD_XDICTIONARY
360
23E
102
}
330
2A
100
AcDbVisualStyle
  2
2dWireframe
 70
     4
177
     2
291
     0
 71
     0
176
     1
 72
     2
176
     1
 73
     0
176
     1
 90
        0
176
     1
 40
0.6
176
     1
 41
30.0
176
     1
 62
     5
 63
     7
421
 16777215
176
     1
 74
     1
176
     1
 91
        4
176
     1
 64
     7
176
     1
 65
   257
176
     1
 75
     1
176
     1
175
     1
176
     1
 42
1.0
176
     1
 92
        0
176
     1
 66
   257
176
     1
 43
1.0
176
     1
 76
     1
176
     1
 77
     6
176
     1
 78
     2
176
     1
 67
     7
176
     1
 79
     5
176
     1
170
     0
176
     1
171
     0
176
     1
290
     0
176
     1
 93
        1
176
     1
 44
0.0
176
     1
173
     0
176
     1
  0
VISUALSTYLE
  5
32
102
{ACAD_REACTORS
330
2A
102
}
102
{ACAD_XDICTIONARY
360
244
102
}
330
2A
100
AcDbVisualStyle
  2
Basic
 70
     7
177
     2
291
     1
 71
     1
176
     1
 72
     0
176
     1
 73
     1
176
     1
 90
        0
176
     1
 40
0.6
176
     1
 41
30.0
176
     1
 62
     5
 63
     7
421
 16777215
176
     1
 74
     0
176
     1
 91
        4
176
     1
 64
     7
176
     1
 65
   257
176
     1
 75
     1
176
     1
175
     1
176
     1
 42
1.0
176
     1
 92
        8
176
     1
 66
     7
176
     1
 43
1.0
176
     1
 76
     1
176
     1
 77
     6
176
     1
 78
     2
176
     1
 67
     7
176
     1
 79
     5
176
     1
170
     0
176
     1
171
     0
176
     1
290
     0
176
     1
 93
        1
176
     1
 44
0.0
176
     1
173
     0
176
     1
  0
VISUALSTYLE
  5
36
102
{ACAD_REACTORS
330
2A
102
}
102
{ACAD_XDICTIONARY
360
24C
102
}
330
2A
100
AcDbVisualStyle
  2
Brighten
 70
    12
177
     2
291
     1
 71
     2
176
     1
 72
     2
176
     1
 73
     0
176
     1
 90
        0
176
     1
 40
0.6
176
     1
 41
30.0
176
     1
 62
     5
 63
     7
421
 16777215
176
     1
 74
     1
176
     1
 91
        4
176
     1
 64
     7
176
     1
 65
   257
176
     1
 75
     1
176
     1
175
     1
176
     1
 42
1.0
176
     1
 92
        8
176
     1
 66
     7
176
     1
 43
1.0
176
     1
 76
     1
176
     1
 77
     6
176
     1
 78
     2
176
     1
 67
     7
176
     1
 79
     5
176
     1
170
     0
176
     1
171
     0
176
     1
290
     0
176
     1
 93
        1
176
     1
 44
50.0
176
     1
173
     0
176
     1
  0
VISUALSTYLE
  5
3A
102
{ACAD_REACTORS
330
2A
102
}
102
{ACAD_XDICTIONARY
360
254
102
}
330
2A
100
AcDbVisualStyle
  2
ColorChange
 70
    16
177
     2
291
     1
 71
     2
176
     1
 72
     2
176
     1
 73
     3
176
     1
 90
        0
176
     1
 40
0.6
176
     1
 41
30.0
176
     1
 62
     5
 63
     8
421
  8421504
176
     1
 74
     1
176
     1
 91
        4
176
     1
 64
     7
176
     1
 65
   257
176
     1
 75
     1
176
     1
175
     1
176
     1
 42
1.0
176
     1
 92
        8
176
     1
 66
     8
424
  8421504
176
     1
 43
1.0
176
     1
 76
     1
176
     1
 77
     6
176
     1
 78
     2
176
     1
 67
     7
176
     1
 79
     5
176
     1
170
     0
176
     1
171
     0
176
     1
290
     0
176
     1
 93
        1
176
     1
 44
0.0
176
     1
173
     0
176
     1
  0
VISUALSTYLE
  5
34
102
{ACAD_REACTORS
330
2A
102
}
102
{ACAD_XDICTIONARY
360
248
102
}
330
2A
100
AcDbVisualStyle
  2
Conceptual
 70
     9
177
     2
291
     0
 71
     3
176
     1
 72
     2
176
     1
 73
     0
176
     1
 90
        0
176
     1
 40
0.6
176
     1
 41
30.0
176
     1
 62
     5
 63
     7
421
 16777215
176
     1
 74
     2
176
     1
 91
        2
176
     1
 64
     7
176
     1
 65
   257
176
     1
 75
     1
176
     1
175
     1
176
     1
 42
179.0
176
     1
 92
        8
176
     1
 66
     7
176
     1
 43
1.0
176
     1
 76
     1
176
     1
 77
     6
176
     1
 78
     2
176
     1
 67
     7
176
     1
 79
     3
176
     1
170
     0
176
     1
171
     0
176
     1
290
     0
176
     1
 93
        1
176
     1
 44
0.0
176
     1
173
     0
176
     1
  0
VISUALSTYLE
  5
35
102
{ACAD_REACTORS
330
2A
102
}
102
{ACAD_XDICTIONARY
360
24A
102
}
330
2A
100
AcDbVisualStyle
  2
Dim
 70
    11
177
     2
291
     1
 71
     2
176
     1
 72
     2
176
     1
 73
     0
176
     1
 90
        0
176
     1
 40
0.6
176
     1
 41
30.0
176
     1
 62
     5
 63
     7
421
 16777215
176
     1
 74
     1
176
     1
 91
        4
176
     1
 64
     7
176
     1
 65
   257
176
     1
 75
     1
176
     1
175
     1
176
     1
 42
1.0
176
     1
 92
        8
176
     1
 66
     7
176
     1
 43
1.0
176
     1
 76
     1
176
     1
 77
     6
176
     1
 78
     2
176
     1
 67
     7
176
     1
 79
     5
176
     1
170
     0
176
     1
171
     0
176
     1
290
     0
176
     1
 93
        1
176
     1
 44
-50.0
176
     1
173
     0
176
     1
  0
VISUALSTYLE
  5
3D
102
{ACAD_REACTORS
330
2A
102
}
102
{ACAD_XDICTIONARY
360
25A
102
}
330
2A
100
AcDbVisualStyle
  2
EdgeColorOff
 70
    22
177
     2
291
     1
 71
     2
176
     0
 72
     2
176
     0
 73
     0
176
     0
 90
        0
176
     0
 40
0.6
176
     0
 41
30.0
176
     0
 62
     5
 63
     7
421
 16777215
176
     0
 74
     1
176
     0
 91
        4
176
     0
 64
     7
176
     0
 65
   257
176
     0
 75
     1
176
     0
175
     1
176
     0
 42
1.0
176
     0
 92
        8
176
     2
 66
     7
176
     0
 43
1.0
176
     0
 76
     1
176
     0
 77
     6
176
     0
 78
     2
176
     0
 67
     7
176
     0
 79
     5
176
     0
170
     0
176
     0
171
     0
176
     0
290
     0
176
     0
 93
        1
176
     0
 44
0.0
176
     0
173
     0
176
     0
  0
VISUALSTYLE
  5
39
102
{ACAD_REACTORS
330
2A
102
}
102
{ACAD_XDICTIONARY
360
252
102
}
330
2A
100
AcDbVisualStyle
  2
Facepattern
 70
    15
177
     2
291
     1
 71
     2
176
     1
 72
     2
176
     1
 73
     0
176
     1
 90
        0
176
     1
 40
0.6
176
     1
 41
30.0
176
     1
 62
     5
 63
     7
421
 16777215
176
     1
 74
     1
176
     1
 91
        4
176
     1
 64
     7
176
     1
 65
   257
176
     1
 75
     1
176
     1
175
     1
176
     1
 42
1.0
176
     1
 92
        8
176
     1
 66
     7
176
     1
 43
1.0
176
     1
 76
     1
176
     1
 77
     6
176
     1
 78
     2
176
     1
 67
     7
176
     1
 79
     5
176
     1
170
     0
176
     1
171
     0
176
     1
290
     0
176
     1
 93
        1
176
     1
 44
0.0
176
     1
173
     0
176
     1
  0
VISUALSTYLE
  5
2B
102
{ACAD_REACTORS
330
2A
102
}
102
{ACAD_XDICTIONARY
360
236
102
}
330
2A
100
AcDbVisualStyle
  2
Flat
 70
     0
177
     2
291
     1
 71
     2
176
     1
 72
     1
176
     1
 73
     1
176
     1
 90
        2
176
     1
 40
0.6
176
     1
 41
30.0
176
     1
 62
     5
 63
     7
421
 16777215
176
     1
 74
     0
176
     1
 91
        0
176
     1
 64
     7
176
     1
 65
   257
176
     1
 75
     1
176
     1
175
     1
176
     1
 42
1.0
176
     1
 92
        8
176
     1
 66
     7
176
     1
 43
1.0
176
     1
 76
     1
176
     1
 77
     6
176
     1
 78
     2
176
     1
 67
     7
176
     1
 79
     5
176
     1
170
     0
176
     1
171
     0
176
     1
290
     0
176
     1
 93
       13
176
     1
 44
0.0
176
     1
173
     0
176
     1
  0
VISUALSTYLE
  5
2C
102
{ACAD_REACTORS
330
2A
102
}
102
{ACAD_XDICTIONARY
360
238
102
}
330
2A
100
AcDbVisualStyle
  2
FlatWithEdges
 70
     1
177
     2
291
     1
 71
     2
176
     1
 72
     1
176
     1
 73
     1
176
     1
 90
        2
176
     1
 40
0.6
176
     1
 41
30.0
176
     1
 62
     5
 63
     7
421
 16777215
176
     1
 74
     1
176
     1
 91
        0
176
     1
 64
     7
176
     1
 65
   257
176
     1
 75
     1
176
     1
175
     1
176
     1
 42
1.0
176
     1
 92
        0
176
     1
 66
   257
176
     1
 43
1.0
176
     1
 76
     1
176
     1
 77
     6
176
     1
 78
     2
176
     1
 67
     7
176
     1
 79
     5
176
     1
170
     0
176
     1
171
     0
176
     1
290
     0
176
     1
 93
       13
176
     1
 44
0.0
176
     1
173
     0
176
     1
  0
VISUALSTYLE
  5
2D
102
{ACAD_REACTORS
330
2A
102
}
102
{ACAD_XDICTIONARY
360
23A
102
}
330
2A
100
AcDbVisualStyle
  2
Gouraud
 70
     2
177
     2
291
     1
 71
     2
176
     1
 72
     2
176
     1
 73
     1
176
     1
 90
        2
176
     1
 40
0.6
176
     1
 41
30.0
176
     1
 62
     5
 63
     7
421
 16777215
176
     1
 74
     0
176
     1
 91
        0
176
     1
 64
     7
176
     1
 65
   257
176
     1
 75
     1
176
     1
175
     1
176
     1
 42
1.0
176
     1
 92
        0
176
     1
 66
     7
176
     1
 43
1.0
176
     1
 76
     1
176
     1
 77
     6
176
     1
 78
     2
176
     1
 67
     7
176
     1
 79
     5
176
     1
170
     0
176
     1
171
     0
176
     1
290
     0
176
     1
 93
       13
176
     1
 44
0.0
176
     1
173
     0
176
     1
  0
VISUALSTYLE
  5
2E
102
{ACAD_REACTORS
330
2A
102
}
102
{ACAD_XDICTIONARY
360
23C
102
}
330
2A
100
AcDbVisualStyle
  2
GouraudWithEdges
 70
     3
177
     2
291
     1
 71
     2
176
     1
 72
     2
176
     1
 73
     1
176
     1
 90
        2
176
     1
 40
0.6
176
     1
 41
30.0
176
     1
 62
     5
 63
     7
421
 16777215
176
     1
 74
     1
176
     1
 91
        0
176
     1
 64
     7
176
     1
 65
   257
176
     1
 75
     1
176
     1
175
     1
176
     1
 42
1.0
176
     1
 92
        0
176
     1
 66
   257
176
     1
 43
1.0
176
     1
 76
     1
176
     1
 77
     6
176
     1
 78
     2
176
     1
 67
     7
176
     1
 79
     5
176
     1
170
     0
176
     1
171
     0
176
     1
290
     0
176
     1
 93
       13
176
     1
 44
0.0
176
     1
173
     0
176
     1
  0
VISUALSTYLE
  5
31
102
{ACAD_REACTORS
330
2A
102
}
102
{ACAD_XDICTIONARY
360
242
102
}
330
2A
100
AcDbVisualStyle
  2
Hidden
 70
     6
177
     2
291
     0
 71
     1
176
     1
 72
     2
176
     1
 73
     2
176
     1
 90
        0
176
     1
 40
0.6
176
     1
 41
30.0
176
     1
 62
     5
 63
     7
421
 16777215
176
     1
 74
     2
176
     1
 91
        2
176
     1
 64
     7
176
     1
 65
   257
176
     1
 75
     2
176
     1
175
     1
176
     1
 42
40.0
176
     1
 92
        0
176
     1
 66
   257
176
     1
 43
1.0
176
     1
 76
     1
176
     1
 77
     6
176
     1
 78
     2
176
     1
 67
     7
176
     1
 79
     3
176
     1
170
     0
176
     1
171
     0
176
     1
290
     0
176
     1
 93
        1
176
     1
 44
0.0
176
     1
173
     0
176
     1
  0
VISUALSTYLE
  5
3B
102
{ACAD_REACTORS
330
2A
102
}
102
{ACAD_XDICTIONARY
360
256
102
}
330
2A
100
AcDbVisualStyle
  2
JitterOff
 70
    20
177
     2
291
     1
 71
     2
176
     0
 72
     2
176
     0
 73
     0
176
     0
 90
        0
176
     0
 40
0.6
176
     0
 41
30.0
176
     0
 62
     5
 63
     7
421
 16777215
176
     0
 74
     1
176
     0
 91
        4
176
     0
 64
     7
176
     0
 65
   257
176
     0
 75
     1
176
     0
175
     1
176
     0
 42
1.0
176
     0
 92
       10
176
     2
 66
     7
176
     0
 43
1.0
176
     0
 76
     1
176
     0
 77
     6
176
     0
 78
     2
176
     0
 67
     7
176
     0
 79
     5
176
     0
170
     0
176
     0
171
     0
176
     0
290
     0
176
     0
 93
        1
176
     0
 44
0.0
176
     0
173
     0
176
     0
  0
VISUALSTYLE
  5
38
102
{ACAD_REACTORS
330
2A
102
}
102
{ACAD_XDICTIONARY
360
250
102
}
330
2A
100
AcDbVisualStyle
  2
Linepattern
 70
    14
177
     2
291
     1
 71
     2
176
     1
 72
     2
176
     1
 73
     0
176
     1
 90
        0
176
     1
 40
0.6
176
     1
 41
30.0
176
     1
 62
     5
 63
     7
421
 16777215
176
     1
 74
     1
176
     1
 91
        4
176
     1
 64
     7
176
     1
 65
   257
176
     1
 75
     7
176
     1
175
     7
176
     1
 42
1.0
176
     1
 92
        8
176
     1
 66
     7
176
     1
 43
1.0
176
     1
 76
     1
176
     1
 77
     6
176
     1
 78
     2
176
     1
 67
     7
176
     1
 79
     5
176
     1
170
     0
176
     1
171
     0
176
     1
290
     0
176
     1
 93
        1
176
     1
 44
0.0
176
     1
173
     0
176
     1
  0
VISUALSTYLE
  5
3C
102
{ACAD_REACTORS
330
2A
102
}
102
{ACAD_XDICTIONARY
360
258
102
}
330
2A
100
AcDbVisualStyle
  2
OverhangOff
 70
    21
177
     2
291
     1
 71
     2
176
     0
 72
     2
176
     0
 73
     0
176
     0
 90
        0
176
     0
 40
0.6
176
     0
 41
30.0
176
     0
 62
     5
 63
     7
421
 16777215
176
     0
 74
     1
176
     0
 91
        4
176
     0
 64
     7
176
     0
 65
   257
176
     0
 75
     1
176
     0
175
     1
176
     0
 42
1.0
176
     0
 92
        9
176
     2
 66
     7
176
     0
 43
1.0
176
     0
 76
     1
176
     0
 77
     6
176
     0
 78
     2
176
     0
 67
     7
176
     0
 79
     5
176
     0
170
     0
176
     0
171
     0
176
     0
290
     0
176
     0
 93
        1
176
     0
 44
0.0
176
     0
173
     0
176
     0
  0
VISUALSTYLE
  5
33
102
{ACAD_REACTORS
330
2A
102
}
102
{ACAD_XDICTIONARY
360
246
102
}
330
2A
100
AcDbVisualStyle
  2
Realistic
 70
     8
177
     2
291
     0
 71
     2
176
     1
 72
     3
176
     1
 73
     0
176
     1
 90
        2
176
     1
 40
0.6
176
     1
 41
30.0
176
     1
 62
     5
 63
     7
421
 16777215
176
     1
 74
     0
176
     1
 91
        0
176
     1
 64
     7
176
     1
 65
   257
176
     1
 75
     1
176
     1
175
     1
176
     1
 42
1.0
176
     1
 92
        8
176
     1
 66
   257
176
     1
 43
1.0
176
     1
 76
     1
176
     1
 77
     6
176
     1
 78
     2
176
     1
 67
     7
176
     1
 79
     3
176
     1
170
     0
176
     1
171
     0
176
     1
290
     0
176
     1
 93
       13
176
     1
 44
0.0
176
     1
173
     0
176
     1
  0
VISUALSTYLE
  5
42
102
{ACAD_REACTORS
330
2A
102
}
102
{ACAD_XDICTIONARY
360
264
102
}
330
2A
100
AcDbVisualStyle
  2
Shaded
 70
    27
177
     2
291
     0
 71
     2
176
     1
 72
     2
176
     1
 73
     1
176
     1
 90
        2
176
     1
 40
0.6
176
     1
 41
30.0
176
     1
 62
     5
 63
     7
421
 16777215
176
     1
 74
     0
176
     1
 91
        4
176
     1
 64
     7
176
     1
 65
   257
176
     1
 75
     1
176
     1
175
     1
176
     1
 42
1.0
176
     1
 92
        8
176
     1
 66
   257
176
     1
 43
1.0
176
     1
 76
     1
176
     1
 77
     6
176
     1
 78
     2
176
     1
 67
     8
425
  7895160
176
     1
 79
     3
176
     1
170
     0
176
     1
171
     0
176
     1
290
     0
176
     1
 93
        5
176
     1
 44
0.0
176
     1
173
     0
176
     1
  0
VISUALSTYLE
  5
41
102
{ACAD_REACTORS
330
2A
102
}
102
{ACAD_XDICTIONARY
360
262
102
}
330
2A
100
AcDbVisualStyle
  2
Shaded with edges
 70
    26
177
     2
291
     0
 71
     2
176
     1
 72
     2
176
     1
 73
     1
176
     1
 90
        2
176
     1
 40
0.6
176
     1
 41
30.0
176
     1
 62
     5
 63
     7
421
 16777215
176
     1
 74
     1
176
     1
 91
       10
176
     1
 64
     7
176
     1
 65
   257
176
     1
 75
     2
176
     1
175
     1
176
     1
 42
1.0
176
     1
 92
        8
176
     1
 66
   257
176
     1
 43
1.0
176
     1
 76
     1
176
     1
 77
     6
176
     1
 78
     2
176
     1
 67
     7
176
     1
 79
     3
176
     1
170
     0
176
     1
171
     0
176
     1
290
     0
176
     1
 93
        5
176
     1
 44
0.0
176
     1
173
     0
176
     1
  0
VISUALSTYLE
  5
3E
102
{ACAD_REACTORS
330
2A
102
}
102
{ACAD_XDICTIONARY
360
25C
102
}
330
2A
100
AcDbVisualStyle
  2
Shades of Gray
 70
    23
177
     2
291
     0
 71
     2
176
     1
 72
     2
176
     1
 73
     3
176
     1
 90
        0
176
     1
 40
0.6
176
     1
 41
30.0
176
     1
 62
     5
 63
     7
421
 16777215
176
     1
 74
     2
176
     1
 91
        2
176
     1
 64
     7
176
     1
 65
     7
176
     1
 75
     1
176
     1
175
     1
176
     1
 42
40.0
176
     1
 92
        8
176
     1
 66
     7
176
     1
 43
1.0
176
     1
 76
     1
176
     1
 77
     6
176
     1
 78
     2
176
     1
 67
     7
176
     1
 79
     3
176
     1
170
     0
176
     1
171
     0
176
     1
290
     0
176
     1
 93
        1
176
     1
 44
0.0
176
     1
173
     0
176
     1
  0
VISUALSTYLE
  5
3F
102
{ACAD_REACTORS
330
2A
102
}
102
{ACAD_XDICTIONARY
360
25E
102
}
330
2A
100
AcDbVisualStyle
  2
Sketchy
 70
    24
177
     2
291
     0
 71
     1
176
     1
 72
     2
176
     1
 73
     2
176
     1
 90
        0
176
     1
 40
0.6
176
     1
 41
30.0
176
     1
 62
     5
 63
     7
421
 16777215
176
     1
 74
     2
176
     1
 91
        2
176
     1
 64
     7
176
     1
 65
     7
176
     1
 75
     1
176
     1
175
     1
176
     1
 42
40.0
176
     1
 92
       11
176
     1
 66
     7
176
     1
 43
1.0
176
     1
 76
     1
176
     1
 77
     6
176
     1
 78
     2
176
     1
 67
     7
176
     1
 79
     6
176
     1
170
     0
176
     1
171
     0
176
     1
290
     0
176
     1
 93
        1
176
     1
 44
0.0
176
     1
173
     0
176
     1
  0
VISUALSTYLE
  5
37
102
{ACAD_REACTORS
330
2A
102
}
102
{ACAD_XDICTIONARY
360
24E
102
}
330
2A
100
AcDbVisualStyle
  2
Thicken
 70
    13
177
     2
291
     1
 71
     2
176
     1
 72
     2
176
     1
 73
     0
176
     1
 90
        0
176
     1
 40
0.6
176
     1
 41
30.0
176
     1
 62
     5
 63
     7
421
 16777215
176
     1
 74
     1
176
     1
 91
        4
176
     1
 64
     7
176
     1
 65
   257
176
     1
 75
     1
176
     1
175
     1
176
     1
 42
1.0
176
     1
 92
       12
176
     1
 66
     7
176
     1
 43
1.0
176
     1
 76
     1
176
     1
 77
     6
176
     1
 78
     2
176
     1
 67
     7
176
     1
 79
     5
176
     1
170
     0
176
     1
171
     0
176
     1
290
     0
176
     1
 93
        1
176
     1
 44
0.0
176
     1
173
     0
176
     1
  0
VISUALSTYLE
  5
30
102
{ACAD_REACTORS
330
2A
102
}
102
{ACAD_XDICTIONARY
360
240
102
}
330
2A
100
AcDbVisualStyle
  2
Wireframe
 70
     5
177
     2
291
     0
 71
     0
176
     1
 72
     2
176
     1
 73
     0
176
     1
 90
        0
176
     1
 40
0.6
176
     1
 41
30.0
176
     1
 62
     5
 63
     7
421
 16777215
176
     1
 74
     1
176
     1
 91
        4
176
     1
 64
     7
176
     1
 65
   257
176
     1
 75
     1
176
     1
175
     1
176
     1
 42
1.0
176
     1
 92
        0
176
     1
 66
   257
176
     1
 43
1.0
176
     1
 76
     1
176
     1
 77
     6
176
     1
 78
     2
176
     1
 67
     7
176
     1
 79
     3
176
     1
170
     0
176
     1
171
     0
176
     1
290
     0
176
     1
 93
        1
176
     1
 44
0.0
176
     1
173
     0
176
     1
  0
VISUALSTYLE
  5
40
102
{ACAD_REACTORS
330
2A
102
}
102
{ACAD_XDICTIONARY
360
260
102
}
330
2A
100
AcDbVisualStyle
  2
X-Ray
 70
    25
177
     2
291
     0
 71
     2
176
     1
 72
     2
176
     1
 73
     1
176
     1
 90
        1
176
     1
 40
0.5
176
     1
 41
30.0
176
     1
 62
     5
 63
     7
421
 16777215
176
     1
 74
     1
176
     1
 91
        0
176
     1
 64
     7
176
     1
 65
   257
176
     1
 75
     1
176
     1
175
     1
176
     1
 42
1.0
176
     1
 92
        8
176
     1
 66
     7
176
     1
 43
1.0
176
     1
 76
     1
176
     1
 77
     6
176
     1
 78
     2
176
     1
 67
     7
176
     1
 79
     3
176
     1
170
     0
176
     1
171
     0
176
     1
290
     0
176
     1
 93
       13
176
     1
 44
0.0
176
     1
173
     0
176
     1
  0
DICTIONARYVAR
  5
235
102
{ACAD_REACTORS
330
234
102
}
330
234
100
DictionaryVariables
280
     0
  1
1:1
  0
DICTIONARYVAR
  5
26A
102
{ACAD_REACTORS
330
234
102
}
330
234
100
DictionaryVariables
280
     0
  1
Standard
  0
DICTIONARYVAR
  5
269
102
{ACAD_REACTORS
330
234
102
}
330
234
100
DictionaryVariables
280
     0
  1
Standard
  0
DICTIONARY
  5
266
330
5A
100
AcDbDictionary
280
     1
281
     1
  3
ACAD_ROUNDTRIP_2008_TABLESTYLE_CELLSTYLEMAP
360
267
  0
DICTIONARY
  5
23E
330
2F
100
AcDbDictionary
280
     1
281
     1
  3
ACAD_XREC_ROUNDTRIP
360
23F
  0
DICTIONARY
  5
244
330
32
100
AcDbDictionary
280
     1
281
     1
  3
ACAD_XREC_ROUNDTRIP
360
245
  0
DICTIONARY
  5
24C
330
36
100
AcDbDictionary
280
     1
281
     1
  3
ACAD_XREC_ROUNDTRIP
360
24D
  0
DICTIONARY
  5
254
330
3A
100
AcDbDictionary
280
     1
281
     1
  3
ACAD_XREC_ROUNDTRIP
360
255
  0
DICTIONARY
  5
248
330
34
100
AcDbDictionary
280
     1
281
     1
  3
ACAD_XREC_ROUNDTRIP
360
249
  0
DICTIONARY
  5
24A
330
35
100
AcDbDictionary
280
     1
281
     1
  3
ACAD_XREC_ROUNDTRIP
360
24B
  0
DICTIONARY
  5
25A
330
3D
100
AcDbDictionary
280
     1
281
     1
  3
ACAD_XREC_ROUNDTRIP
360
25B
  0
DICTIONARY
  5
252
330
39
100
AcDbDictionary
280
     1
281
     1
  3
ACAD_XREC_ROUNDTRIP
360
253
  0
DICTIONARY
  5
236
330
2B
100
AcDbDictionary
280
     1
281
     1
  3
ACAD_XREC_ROUNDTRIP
360
237
  0
DICTIONARY
  5
238
330
2C
100
AcDbDictionary
280
     1
281
     1
  3
ACAD_XREC_ROUNDTRIP
360
239
  0
DICTIONARY
  5
23A
330
2D
100
AcDbDictionary
280
     1
281
     1
  3
ACAD_XREC_ROUNDTRIP
360
23B
  0
DICTIONARY
  5
23C
330
2E
100
AcDbDictionary
280
     1
281
     1
  3
ACAD_XREC_ROUNDTRIP
360
23D
  0
DICTIONARY
  5
242
330
31
100
AcDbDictionary
280
     1
281
     1
  3
ACAD_XREC_ROUNDTRIP
360
243
  0
DICTIONARY
  5
256
330
3B
100
AcDbDictionary
280
     1
281
     1
  3
ACAD_XREC_ROUNDTRIP
360
257
  0
DICTIONARY
  5
250
330
38
100
AcDbDictionary
280
     1
281
     1
  3
ACAD_XREC_ROUNDTRIP
360
251
  0
DICTIONARY
  5
258
330
3C
100
AcDbDictionary
280
     1
281
     1
  3
ACAD_XREC_ROUNDTRIP
360
259
  0
DICTIONARY
  5
246
330
33
100
AcDbDictionary
280
     1
281
     1
  3
ACAD_XREC_ROUNDTRIP
360
247
  0
DICTIONARY
  5
264
330
42
100
AcDbDictionary
280
     1
281
     1
  3
ACAD_XREC_ROUNDTRIP
360
265
  0
DICTIONARY
  5
262
330
41
100
AcDbDictionary
280
     1
281
     1
  3
ACAD_XREC_ROUNDTRIP
360
263
  0
DICTIONARY
  5
25C
330
3E
100
AcDbDictionary
280
     1
281
     1
  3
ACAD_XREC_ROUNDTRIP
360
25D
  0
DICTIONARY
  5
25E
330
3F
100
AcDbDictionary
280
     1
281
     1
  3
ACAD_XREC_ROUNDTRIP
360
25F
  0
DICTIONARY
  5
24E
330
37
100
AcDbDictionary
280
     1
281
     1
  3
ACAD_XREC_ROUNDTRIP
360
24F
  0
DICTIONARY
  5
240
330
30
100
AcDbDictionary
280
     1
281
     1
  3
ACAD_XREC_ROUNDTRIP
360
241
  0
DICTIONARY
  5
260
330
40
100
AcDbDictionary
280
     1
281
     1
  3
ACAD_XREC_ROUNDTRIP
360
261
  0
CELLSTYLEMAP
  5
267
102
{ACAD_REACTORS
330
266
102
}
330
266
100
AcDbCellStyleMap
 90
        3
300
CELLSTYLE
  1
TABLEFORMAT_BEGIN
 90
        5
170
     1
 91
        0
 92
    32768
 62
   257
 93
        1
300
CONTENTFORMAT
  1
CONTENTFORMAT_BEGIN
 90
        0
 91
        0
 92
        4
 93
        0
300

 40
0.0
140
1.0
 94
        5
 62
     0
340
11
144
0.25
309
CONTENTFORMAT_END
171
     1
301
MARGIN
  1
CELLMARGIN_BEGIN
 40
0.06
 40
0.06
 40
0.06
 40
0.06
 40
0.06
 40
0.06
309
CELLMARGIN_END
 94
        6
 95
        1
302
GRIDFORMAT
  1
GRIDFORMAT_BEGIN
 90
        0
 91
        1
 62
     0
 92
       -2
340
14
 93
        0
 40
0.045
309
GRIDFORMAT_END
 95
        2
302
GRIDFORMAT
  1
GRIDFORMAT_BEGIN
 90
        0
 91
        1
 62
     0
 92
       -2
340
14
 93
        0
 40
0.045
309
GRIDFORMAT_END
 95
        4
302
GRIDFORMAT
  1
GRIDFORMAT_BEGIN
 90
        0
 91
        1
 62
     0
 92
       -2
340
14
 93
        0
 40
0.045
309
GRIDFORMAT_END
 95
        8
302
GRIDFORMAT
  1
GRIDFORMAT_BEGIN
 90
        0
 91
        1
 62
     0
 92
       -2
340
14
 93
        0
 40
0.045
309
GRIDFORMAT_END
 95
       16
302
GRIDFORMAT
  1
GRIDFORMAT_BEGIN
 90
        0
 91
        1
 62
     0
 92
       -2
340
14
 93
        0
 40
0.045
309
GRIDFORMAT_END
 95
       32
302
GRIDFORMAT
  1
GRIDFORMAT_BEGIN
 90
        0
 91
        1
 62
     0
 92
       -2
340
14
 93
        0
 40
0.045
309
GRIDFORMAT_END
309
TABLEFORMAT_END
  1
CELLSTYLE_BEGIN
 90
        1
 91
        1
300
_TITLE
309
CELLSTYLE_END
300
CELLSTYLE
  1
TABLEFORMAT_BEGIN
 90
        5
170
     1
 91
        0
 92
        0
 62
   257
 93
        1
300
CONTENTFORMAT
  1
CONTENTFORMAT_BEGIN
 90
        0
 91
        0
 92
        4
 93
        0
300

 40
0.0
140
1.0
 94
        5
 62
     0
340
11
144
0.18
309
CONTENTFORMAT_END
171
     1
301
MARGIN
  1
CELLMARGIN_BEGIN
 40
0.06
 40
0.06
 40
0.06
 40
0.06
 40
0.06
 40
0.06
309
CELLMARGIN_END
 94
        6
 95
        1
302
GRIDFORMAT
  1
GRIDFORMAT_BEGIN
 90
        0
 91
        1
 62
     0
 92
       -2
340
14
 93
        0
 40
0.045
309
GRIDFORMAT_END
 95
        2
302
GRIDFORMAT
  1
GRIDFORMAT_BEGIN
 90
        0
 91
        1
 62
     0
 92
       -2
340
14
 93
        0
 40
0.045
309
GRIDFORMAT_END
 95
        4
302
GRIDFORMAT
  1
GRIDFORMAT_BEGIN
 90
        0
 91
        1
 62
     0
 92
       -2
340
14
 93
        0
 40
0.045
309
GRIDFORMAT_END
 95
        8
302
GRIDFORMAT
  1
GRIDFORMAT_BEGIN
 90
        0
 91
        1
 62
     0
 92
       -2
340
14
 93
        0
 40
0.045
309
GRIDFORMAT_END
 95
       16
302
GRIDFORMAT
  1
GRIDFORMAT_BEGIN
 90
        0
 91
        1
 62
     0
 92
       -2
340
14
 93
        0
 40
0.045
309
GRIDFORMAT_END
 95
       32
302
GRIDFORMAT
  1
GRIDFORMAT_BEGIN
 90
        0
 91
        1
 62
     0
 92
       -2
340
14
 93
        0
 40
0.045
309
GRIDFORMAT_END
309
TABLEFORMAT_END
  1
CELLSTYLE_BEGIN
 90
        2
 91
        1
300
_HEADER
309
CELLSTYLE_END
300
CELLSTYLE
  1
TABLEFORMAT_BEGIN
 90
        5
170
     1
 91
        0
 92
        0
 62
   257
 93
        1
300
CONTENTFORMAT
  1
CONTENTFORMAT_BEGIN
 90
        0
 91
        0
 92
        4
 93
        0
300

 40
0.0
140
1.0
 94
        2
 62
     0
340
11
144
0.18
309
CONTENTFORMAT_END
171
     1
301
MARGIN
  1
CELLMARGIN_BEGIN
 40
0.06
 40
0.06
 40
0.06
 40
0.06
 40
0.06
 40
0.06
309
CELLMARGIN_END
 94
        6
 95
        1
302
GRIDFORMAT
  1
GRIDFORMAT_BEGIN
 90
        0
 91
        1
 62
     0
 92
       -2
340
14
 93
        0
 40
0.045
309
GRIDFORMAT_END
 95
        2
302
GRIDFORMAT
  1
GRIDFORMAT_BEGIN
 90
        0
 91
        1
 62
     0
 92
       -2
340
14
 93
        0
 40
0.045
309
GRIDFORMAT_END
 95
        4
302
GRIDFORMAT
  1
GRIDFORMAT_BEGIN
 90
        0
 91
        1
 62
     0
 92
       -2
340
14
 93
        0
 40
0.045
309
GRIDFORMAT_END
 95
        8
302
GRIDFORMAT
  1
GRIDFORMAT_BEGIN
 90
        0
 91
        1
 62
     0
 92
       -2
340
14
 93
        0
 40
0.045
309
GRIDFORMAT_END
 95
       16
302
GRIDFORMAT
  1
GRIDFORMAT_BEGIN
 90
        0
 91
        1
 62
     0
 92
       -2
340
14
 93
        0
 40
0.045
309
GRIDFORMAT_END
 95
       32
302
GRIDFORMAT
  1
GRIDFORMAT_BEGIN
 90
        0
 91
        1
 62
     0
 92
       -2
340
14
 93
        0
 40
0.045
309
GRIDFORMAT_END
309
TABLEFORMAT_END
  1
CELLSTYLE_BEGIN
 90
        3
 91
        2
300
_DATA
309
CELLSTYLE_END
  0
XRECORD
  5
23F
102
{ACAD_REACTORS
330
23E
102
}
330
23E
100
AcDbXrecord
280
     1
102
RTVSPost2010Prop28
280
     1
102
RTVSPost2010PropOp28
 70
     1
102
RTVSPost2010Prop29
280
     1
102
RTVSPost2010PropOp29
 70
     1
102
RTVSPost2010Prop30
280
     0
102
RTVSPost2010PropOp30
 70
     1
102
RTVSPost2010Prop31
280
     0
102
RTVSPost2010PropOp31
 70
     1
102
RTVSPost2010Prop32
280
     0
102
RTVSPost2010PropOp32
 70
     1
102
RTVSPost2010Prop33
280
     0
102
RTVSPost2010PropOp33
 70
     1
102
RTVSPost2010Prop34
280
     0
102
RTVSPost2010PropOp34
 70
     1
102
RTVSPost2010Prop35
280
     0
102
RTVSPost2010PropOp35
 70
     1
102
RTVSPost2010Prop36
280
     0
102
RTVSPost2010PropOp36
 70
     1
102
RTVSPost2010Prop37
 90
       50
102
RTVSPost2010PropOp37
 70
     1
102
RTVSPost2010Prop38
140
0.0
102
RTVSPost2010PropOp38
 70
     1
102
RTVSPost2010Prop39
140
1.0
102
RTVSPost2010PropOp39
 70
     1
102
RTVSPost2010Prop40
 90
        0
102
RTVSPost2010PropOp40
 70
     1
102
RTVSPost2010Prop41ColorIndex
 90
       18
102
RTVSPost2010Prop41ColorRGB
 90
        0
102
RTVSPost2010PropOp41
 70
     1
102
RTVSPost2010Prop42
 90
       50
102
RTVSPost2010PropOp42
 70
     1
102
RTVSPost2010Prop43
 90
        3
102
RTVSPost2010PropOp43
 70
     1
102
RTVSPost2010Prop44ColorIndex
 90
        5
102
RTVSPost2010Prop44ColorRGB
 90
      255
102
RTVSPost2010PropOp44
 70
     1
102
RTVSPost2010Prop45
280
     0
102
RTVSPost2010PropOp45
 70
     1
102
RTVSPost2010Prop46
 90
       50
102
RTVSPost2010PropOp46
 70
     1
102
RTVSPost2010Prop47
 90
       50
102
RTVSPost2010PropOp47
 70
     1
102
RTVSPost2010Prop48
 90
       50
102
RTVSPost2010PropOp48
 70
     1
102
RTVSPost2010Prop49
280
     0
102
RTVSPost2010PropOp49
 70
     1
102
RTVSPost2010Prop50
 90
       50
102
RTVSPost2010PropOp50
 70
     1
102
RTVSPost2010Prop51ColorIndex
 90
      256
102
RTVSPost2010Prop51ColorRGB
 90
-16777216
102
RTVSPost2010PropOp51
 70
     0
102
RTVSPost2010Prop52
140
1.0
102
RTVSPost2010PropOp52
 70
     0
102
RTVSPost2010Prop53
 90
        2
102
RTVSPost2010PropOp53
 70
     1
102
RTVSPost2010Prop54
  1
strokes_ogs.tif
102
RTVSPost2010PropOp54
 70
     1
102
RTVSPost2010Prop55
280
     0
102
RTVSPost2010PropOp55
 70
     1
102
RTVSPost2010Prop56
140
1.0
102
RTVSPost2010PropOp56
 70
     1
102
RTVSPost2010Prop57
140
1.0
102
RTVSPost2010PropOp57
 70
     1
  0
XRECORD
  5
245
102
{ACAD_REACTORS
330
244
102
}
330
244
100
AcDbXrecord
280
     1
102
RTVSPost2010Prop28
280
     0
102
RTVSPost2010PropOp28
 70
     1
102
RTVSPost2010Prop29
280
     1
102
RTVSPost2010PropOp29
 70
     1
102
RTVSPost2010Prop30
280
     1
102
RTVSPost2010PropOp30
 70
     1
102
RTVSPost2010Prop31
280
     0
102
RTVSPost2010PropOp31
 70
     1
102
RTVSPost2010Prop32
280
     0
102
RTVSPost2010PropOp32
 70
     1
102
RTVSPost2010Prop33
280
     0
102
RTVSPost2010PropOp33
 70
     1
102
RTVSPost2010Prop34
280
     0
102
RTVSPost2010PropOp34
 70
     1
102
RTVSPost2010Prop35
280
     0
102
RTVSPost2010PropOp35
 70
     1
102
RTVSPost2010Prop36
280
     0
102
RTVSPost2010PropOp36
 70
     1
102
RTVSPost2010Prop37
 90
       50
102
RTVSPost2010PropOp37
 70
     1
102
RTVSPost2010Prop38
140
0.0
102
RTVSPost2010PropOp38
 70
     1
102
RTVSPost2010Prop39
140
1.0
102
RTVSPost2010PropOp39
 70
     1
102
RTVSPost2010Prop40
 90
        0
102
RTVSPost2010PropOp40
 70
     1
102
RTVSPost2010Prop41ColorIndex
 90
       18
102
RTVSPost2010Prop41ColorRGB
 90
        0
102
RTVSPost2010PropOp41
 70
     1
102
RTVSPost2010Prop42
 90
       50
102
RTVSPost2010PropOp42
 70
     1
102
RTVSPost2010Prop43
 90
        3
102
RTVSPost2010PropOp43
 70
     1
102
RTVSPost2010Prop44ColorIndex
 90
        5
102
RTVSPost2010Prop44ColorRGB
 90
      255
102
RTVSPost2010PropOp44
 70
     1
102
RTVSPost2010Prop45
280
     0
102
RTVSPost2010PropOp45
 70
     1
102
RTVSPost2010Prop46
 90
       50
102
RTVSPost2010PropOp46
 70
     1
102
RTVSPost2010Prop47
 90
       50
102
RTVSPost2010PropOp47
 70
     1
102
RTVSPost2010Prop48
 90
       50
102
RTVSPost2010PropOp48
 70
     1
102
RTVSPost2010Prop49
280
     0
102
RTVSPost2010PropOp49
 70
     1
102
RTVSPost2010Prop50
 90
       50
102
RTVSPost2010PropOp50
 70
     1
102
RTVSPost2010Prop51ColorIndex
 90
      256
102
RTVSPost2010Prop51ColorRGB
 90
-16777216
102
RTVSPost2010PropOp51
 70
     0
102
RTVSPost2010Prop52
140
1.0
102
RTVSPost2010PropOp52
 70
     0
102
RTVSPost2010Prop53
 90
        2
102
RTVSPost2010PropOp53
 70
     1
102
RTVSPost2010Prop54
  1
strokes_ogs.tif
102
RTVSPost2010PropOp54
 70
     1
102
RTVSPost2010Prop55
280
     0
102
RTVSPost2010PropOp55
 70
     1
102
RTVSPost2010Prop56
140
1.0
102
RTVSPost2010PropOp56
 70
     1
102
RTVSPost2010Prop57
140
1.0
102
RTVSPost2010PropOp57
 70
     1
  0
XRECORD
  5
24D
102
{ACAD_REACTORS
330
24C
102
}
330
24C
100
AcDbXrecord
280
     1
102
RTVSPost2010Prop28
280
     0
102
RTVSPost2010PropOp28
 70
     1
102
RTVSPost2010Prop29
280
     1
102
RTVSPost2010PropOp29
 70
     1
102
RTVSPost2010Prop30
280
     1
102
RTVSPost2010PropOp30
 70
     1
102
RTVSPost2010Prop31
280
     0
102
RTVSPost2010PropOp31
 70
     1
102
RTVSPost2010Prop32
280
     0
102
RTVSPost2010PropOp32
 70
     1
102
RTVSPost2010Prop33
280
     0
102
RTVSPost2010PropOp33
 70
     1
102
RTVSPost2010Prop34
280
     0
102
RTVSPost2010PropOp34
 70
     1
102
RTVSPost2010Prop35
280
     0
102
RTVSPost2010PropOp35
 70
     1
102
RTVSPost2010Prop36
280
     0
102
RTVSPost2010PropOp36
 70
     1
102
RTVSPost2010Prop37
 90
       50
102
RTVSPost2010PropOp37
 70
     1
102
RTVSPost2010Prop38
140
0.0
102
RTVSPost2010PropOp38
 70
     1
102
RTVSPost2010Prop39
140
1.0
102
RTVSPost2010PropOp39
 70
     1
102
RTVSPost2010Prop40
 90
        0
102
RTVSPost2010PropOp40
 70
     1
102
RTVSPost2010Prop41ColorIndex
 90
       18
102
RTVSPost2010Prop41ColorRGB
 90
        0
102
RTVSPost2010PropOp41
 70
     1
102
RTVSPost2010Prop42
 90
       50
102
RTVSPost2010PropOp42
 70
     1
102
RTVSPost2010Prop43
 90
        3
102
RTVSPost2010PropOp43
 70
     1
102
RTVSPost2010Prop44ColorIndex
 90
        5
102
RTVSPost2010Prop44ColorRGB
 90
      255
102
RTVSPost2010PropOp44
 70
     1
102
RTVSPost2010Prop45
280
     0
102
RTVSPost2010PropOp45
 70
     1
102
RTVSPost2010Prop46
 90
       50
102
RTVSPost2010PropOp46
 70
     1
102
RTVSPost2010Prop47
 90
       50
102
RTVSPost2010PropOp47
 70
     1
102
RTVSPost2010Prop48
 90
       50
102
RTVSPost2010PropOp48
 70
     1
102
RTVSPost2010Prop49
280
     0
102
RTVSPost2010PropOp49
 70
     1
102
RTVSPost2010Prop50
 90
       50
102
RTVSPost2010PropOp50
 70
     1
102
RTVSPost2010Prop51ColorIndex
 90
      256
102
RTVSPost2010Prop51ColorRGB
 90
-16777216
102
RTVSPost2010PropOp51
 70
     0
102
RTVSPost2010Prop52
140
1.0
102
RTVSPost2010PropOp52
 70
     0
102
RTVSPost2010Prop53
 90
        2
102
RTVSPost2010PropOp53
 70
     1
102
RTVSPost2010Prop54
  1
strokes_ogs.tif
102
RTVSPost2010PropOp54
 70
     1
102
RTVSPost2010Prop55
280
     0
102
RTVSPost2010PropOp55
 70
     1
102
RTVSPost2010Prop56
140
1.0
102
RTVSPost2010PropOp56
 70
     1
102
RTVSPost2010Prop57
140
1.0
102
RTVSPost2010PropOp57
 70
     1
  0
XRECORD
  5
255
102
{ACAD_REACTORS
330
254
102
}
330
254
100
AcDbXrecord
280
     1
102
RTVSPost2010Prop28
280
     0
102
RTVSPost2010PropOp28
 70
     1
102
RTVSPost2010Prop29
280
     1
102
RTVSPost2010PropOp29
 70
     1
102
RTVSPost2010Prop30
280
     1
102
RTVSPost2010PropOp30
 70
     1
102
RTVSPost2010Prop31
280
     0
102
RTVSPost2010PropOp31
 70
     1
102
RTVSPost2010Prop32
280
     0
102
RTVSPost2010PropOp32
 70
     1
102
RTVSPost2010Prop33
280
     0
102
RTVSPost2010PropOp33
 70
     1
102
RTVSPost2010Prop34
280
     0
102
RTVSPost2010PropOp34
 70
     1
102
RTVSPost2010Prop35
280
     0
102
RTVSPost2010PropOp35
 70
     1
102
RTVSPost2010Prop36
280
     0
102
RTVSPost2010PropOp36
 70
     1
102
RTVSPost2010Prop37
 90
       50
102
RTVSPost2010PropOp37
 70
     1
102
RTVSPost2010Prop38
140
0.0
102
RTVSPost2010PropOp38
 70
     1
102
RTVSPost2010Prop39
140
1.0
102
RTVSPost2010PropOp39
 70
     1
102
RTVSPost2010Prop40
 90
        0
102
RTVSPost2010PropOp40
 70
     1
102
RTVSPost2010Prop41ColorIndex
 90
       18
102
RTVSPost2010Prop41ColorRGB
 90
        0
102
RTVSPost2010PropOp41
 70
     1
102
RTVSPost2010Prop42
 90
       50
102
RTVSPost2010PropOp42
 70
     1
102
RTVSPost2010Prop43
 90
        3
102
RTVSPost2010PropOp43
 70
     1
102
RTVSPost2010Prop44ColorIndex
 90
        5
102
RTVSPost2010Prop44ColorRGB
 90
      255
102
RTVSPost2010PropOp44
 70
     1
102
RTVSPost2010Prop45
280
     0
102
RTVSPost2010PropOp45
 70
     1
102
RTVSPost2010Prop46
 90
       50
102
RTVSPost2010PropOp46
 70
     1
102
RTVSPost2010Prop47
 90
       50
102
RTVSPost2010PropOp47
 70
     1
102
RTVSPost2010Prop48
 90
       50
102
RTVSPost2010PropOp48
 70
     1
102
RTVSPost2010Prop49
280
     0
102
RTVSPost2010PropOp49
 70
     1
102
RTVSPost2010Prop50
 90
       50
102
RTVSPost2010PropOp50
 70
     1
102
RTVSPost2010Prop51ColorIndex
 90
      256
102
RTVSPost2010Prop51ColorRGB
 90
-16777216
102
RTVSPost2010PropOp51
 70
     0
102
RTVSPost2010Prop52
140
1.0
102
RTVSPost2010PropOp52
 70
     0
102
RTVSPost2010Prop53
 90
        2
102
RTVSPost2010PropOp53
 70
     1
102
RTVSPost2010Prop54
  1
strokes_ogs.tif
102
RTVSPost2010PropOp54
 70
     1
102
RTVSPost2010Prop55
280
     0
102
RTVSPost2010PropOp55
 70
     1
102
RTVSPost2010Prop56
140
1.0
102
RTVSPost2010PropOp56
 70
     1
102
RTVSPost2010Prop57
140
1.0
102
RTVSPost2010PropOp57
 70
     1
  0
XRECORD
  5
249
102
{ACAD_REACTORS
330
248
102
}
330
248
100
AcDbXrecord
280
     1
102
RTVSPost2010Prop28
280
     0
102
RTVSPost2010PropOp28
 70
     1
102
RTVSPost2010Prop29
280
     1
102
RTVSPost2010PropOp29
 70
     1
102
RTVSPost2010Prop30
280
     1
102
RTVSPost2010PropOp30
 70
     1
102
RTVSPost2010Prop31
280
     0
102
RTVSPost2010PropOp31
 70
     1
102
RTVSPost2010Prop32
280
     0
102
RTVSPost2010PropOp32
 70
     1
102
RTVSPost2010Prop33
280
     0
102
RTVSPost2010PropOp33
 70
     1
102
RTVSPost2010Prop34
280
     0
102
RTVSPost2010PropOp34
 70
     1
102
RTVSPost2010Prop35
280
     0
102
RTVSPost2010PropOp35
 70
     1
102
RTVSPost2010Prop36
280
     0
102
RTVSPost2010PropOp36
 70
     1
102
RTVSPost2010Prop37
 90
       50
102
RTVSPost2010PropOp37
 70
     1
102
RTVSPost2010Prop38
140
0.0
102
RTVSPost2010PropOp38
 70
     1
102
RTVSPost2010Prop39
140
1.0
102
RTVSPost2010PropOp39
 70
     1
102
RTVSPost2010Prop40
 90
        0
102
RTVSPost2010PropOp40
 70
     1
102
RTVSPost2010Prop41ColorIndex
 90
       18
102
RTVSPost2010Prop41ColorRGB
 90
        0
102
RTVSPost2010PropOp41
 70
     1
102
RTVSPost2010Prop42
 90
       50
102
RTVSPost2010PropOp42
 70
     1
102
RTVSPost2010Prop43
 90
        3
102
RTVSPost2010PropOp43
 70
     1
102
RTVSPost2010Prop44ColorIndex
 90
        5
102
RTVSPost2010Prop44ColorRGB
 90
      255
102
RTVSPost2010PropOp44
 70
     1
102
RTVSPost2010Prop45
280
     0
102
RTVSPost2010PropOp45
 70
     1
102
RTVSPost2010Prop46
 90
       50
102
RTVSPost2010PropOp46
 70
     1
102
RTVSPost2010Prop47
 90
       50
102
RTVSPost2010PropOp47
 70
     1
102
RTVSPost2010Prop48
 90
       50
102
RTVSPost2010PropOp48
 70
     1
102
RTVSPost2010Prop49
280
     0
102
RTVSPost2010PropOp49
 70
     1
102
RTVSPost2010Prop50
 90
       50
102
RTVSPost2010PropOp50
 70
     1
102
RTVSPost2010Prop51ColorIndex
 90
      256
102
RTVSPost2010Prop51ColorRGB
 90
-16777216
102
RTVSPost2010PropOp51
 70
     0
102
RTVSPost2010Prop52
140
1.0
102
RTVSPost2010PropOp52
 70
     0
102
RTVSPost2010Prop53
 90
        2
102
RTVSPost2010PropOp53
 70
     1
102
RTVSPost2010Prop54
  1
strokes_ogs.tif
102
RTVSPost2010PropOp54
 70
     1
102
RTVSPost2010Prop55
280
     0
102
RTVSPost2010PropOp55
 70
     1
102
RTVSPost2010Prop56
140
1.0
102
RTVSPost2010PropOp56
 70
     1
102
RTVSPost2010Prop57
140
1.0
102
RTVSPost2010PropOp57
 70
     1
  0
XRECORD
  5
24B
102
{ACAD_REACTORS
330
24A
102
}
330
24A
100
AcDbXrecord
280
     1
102
RTVSPost2010Prop28
280
     0
102
RTVSPost2010PropOp28
 70
     1
102
RTVSPost2010Prop29
280
     1
102
RTVSPost2010PropOp29
 70
     1
102
RTVSPost2010Prop30
280
     1
102
RTVSPost2010PropOp30
 70
     1
102
RTVSPost2010Prop31
280
     0
102
RTVSPost2010PropOp31
 70
     1
102
RTVSPost2010Prop32
280
     0
102
RTVSPost2010PropOp32
 70
     1
102
RTVSPost2010Prop33
280
     0
102
RTVSPost2010PropOp33
 70
     1
102
RTVSPost2010Prop34
280
     0
102
RTVSPost2010PropOp34
 70
     1
102
RTVSPost2010Prop35
280
     0
102
RTVSPost2010PropOp35
 70
     1
102
RTVSPost2010Prop36
280
     0
102
RTVSPost2010PropOp36
 70
     1
102
RTVSPost2010Prop37
 90
       50
102
RTVSPost2010PropOp37
 70
     1
102
RTVSPost2010Prop38
140
0.0
102
RTVSPost2010PropOp38
 70
     1
102
RTVSPost2010Prop39
140
1.0
102
RTVSPost2010PropOp39
 70
     1
102
RTVSPost2010Prop40
 90
        0
102
RTVSPost2010PropOp40
 70
     1
102
RTVSPost2010Prop41ColorIndex
 90
       18
102
RTVSPost2010Prop41ColorRGB
 90
        0
102
RTVSPost2010PropOp41
 70
     1
102
RTVSPost2010Prop42
 90
       50
102
RTVSPost2010PropOp42
 70
     1
102
RTVSPost2010Prop43
 90
        3
102
RTVSPost2010PropOp43
 70
     1
102
RTVSPost2010Prop44ColorIndex
 90
        5
102
RTVSPost2010Prop44ColorRGB
 90
      255
102
RTVSPost2010PropOp44
 70
     1
102
RTVSPost2010Prop45
280
     0
102
RTVSPost2010PropOp45
 70
     1
102
RTVSPost2010Prop46
 90
       50
102
RTVSPost2010PropOp46
 70
     1
102
RTVSPost2010Prop47
 90
       50
102
RTVSPost2010PropOp47
 70
     1
102
RTVSPost2010Prop48
 90
       50
102
RTVSPost2010PropOp48
 70
     1
102
RTVSPost2010Prop49
280
     0
102
RTVSPost2010PropOp49
 70
     1
102
RTVSPost2010Prop50
 90
       50
102
RTVSPost2010PropOp50
 70
     1
102
RTVSPost2010Prop51ColorIndex
 90
      256
102
RTVSPost2010Prop51ColorRGB
 90
-16777216
102
RTVSPost2010PropOp51
 70
     0
102
RTVSPost2010Prop52
140
1.0
102
RTVSPost2010PropOp52
 70
     0
102
RTVSPost2010Prop53
 90
        2
102
RTVSPost2010PropOp53
 70
     1
102
RTVSPost2010Prop54
  1
strokes_ogs.tif
102
RTVSPost2010PropOp54
 70
     1
102
RTVSPost2010Prop55
280
     0
102
RTVSPost2010PropOp55
 70
     1
102
RTVSPost2010Prop56
140
1.0
102
RTVSPost2010PropOp56
 70
     1
102
RTVSPost2010Prop57
140
1.0
102
RTVSPost2010PropOp57
 70
     1
  0
XRECORD
  5
25B
102
{ACAD_REACTORS
330
25A
102
}
330
25A
100
AcDbXrecord
280
     1
102
RTVSPost2010Prop28
280
     0
102
RTVSPost2010PropOp28
 70
     0
102
RTVSPost2010Prop29
280
     1
102
RTVSPost2010PropOp29
 70
     0
102
RTVSPost2010Prop30
280
     1
102
RTVSPost2010PropOp30
 70
     0
102
RTVSPost2010Prop31
280
     0
102
RTVSPost2010PropOp31
 70
     0
102
RTVSPost2010Prop32
280
     0
102
RTVSPost2010PropOp32
 70
     0
102
RTVSPost2010Prop33
280
     0
102
RTVSPost2010PropOp33
 70
     0
102
RTVSPost2010Prop34
280
     0
102
RTVSPost2010PropOp34
 70
     0
102
RTVSPost2010Prop35
280
     0
102
RTVSPost2010PropOp35
 70
     0
102
RTVSPost2010Prop36
280
     0
102
RTVSPost2010PropOp36
 70
     0
102
RTVSPost2010Prop37
 90
       50
102
RTVSPost2010PropOp37
 70
     0
102
RTVSPost2010Prop38
140
0.0
102
RTVSPost2010PropOp38
 70
     0
102
RTVSPost2010Prop39
140
1.0
102
RTVSPost2010PropOp39
 70
     0
102
RTVSPost2010Prop40
 90
        0
102
RTVSPost2010PropOp40
 70
     0
102
RTVSPost2010Prop41ColorIndex
 90
       18
102
RTVSPost2010Prop41ColorRGB
 90
        0
102
RTVSPost2010PropOp41
 70
     0
102
RTVSPost2010Prop42
 90
       50
102
RTVSPost2010PropOp42
 70
     0
102
RTVSPost2010Prop43
 90
        3
102
RTVSPost2010PropOp43
 70
     0
102
RTVSPost2010Prop44ColorIndex
 90
        5
102
RTVSPost2010Prop44ColorRGB
 90
      255
102
RTVSPost2010PropOp44
 70
     0
102
RTVSPost2010Prop45
280
     0
102
RTVSPost2010PropOp45
 70
     0
102
RTVSPost2010Prop46
 90
       50
102
RTVSPost2010PropOp46
 70
     0
102
RTVSPost2010Prop47
 90
       50
102
RTVSPost2010PropOp47
 70
     0
102
RTVSPost2010Prop48
 90
       50
102
RTVSPost2010PropOp48
 70
     0
102
RTVSPost2010Prop49
280
     0
102
RTVSPost2010PropOp49
 70
     0
102
RTVSPost2010Prop50
 90
       50
102
RTVSPost2010PropOp50
 70
     0
102
RTVSPost2010Prop51ColorIndex
 90
      256
102
RTVSPost2010Prop51ColorRGB
 90
-16777216
102
RTVSPost2010PropOp51
 70
     0
102
RTVSPost2010Prop52
140
1.0
102
RTVSPost2010PropOp52
 70
     0
102
RTVSPost2010Prop53
 90
        2
102
RTVSPost2010PropOp53
 70
     0
102
RTVSPost2010Prop54
  1
strokes_ogs.tif
102
RTVSPost2010PropOp54
 70
     0
102
RTVSPost2010Prop55
280
     0
102
RTVSPost2010PropOp55
 70
     0
102
RTVSPost2010Prop56
140
1.0
102
RTVSPost2010PropOp56
 70
     0
102
RTVSPost2010Prop57
140
1.0
102
RTVSPost2010PropOp57
 70
     0
  0
XRECORD
  5
253
102
{ACAD_REACTORS
330
252
102
}
330
252
100
AcDbXrecord
280
     1
102
RTVSPost2010Prop28
280
     0
102
RTVSPost2010PropOp28
 70
     1
102
RTVSPost2010Prop29
280
     1
102
RTVSPost2010PropOp29
 70
     1
102
RTVSPost2010Prop30
280
     1
102
RTVSPost2010PropOp30
 70
     1
102
RTVSPost2010Prop31
280
     0
102
RTVSPost2010PropOp31
 70
     1
102
RTVSPost2010Prop32
280
     0
102
RTVSPost2010PropOp32
 70
     1
102
RTVSPost2010Prop33
280
     0
102
RTVSPost2010PropOp33
 70
     1
102
RTVSPost2010Prop34
280
     0
102
RTVSPost2010PropOp34
 70
     1
102
RTVSPost2010Prop35
280
     0
102
RTVSPost2010PropOp35
 70
     1
102
RTVSPost2010Prop36
280
     0
102
RTVSPost2010PropOp36
 70
     1
102
RTVSPost2010Prop37
 90
       50
102
RTVSPost2010PropOp37
 70
     1
102
RTVSPost2010Prop38
140
0.0
102
RTVSPost2010PropOp38
 70
     1
102
RTVSPost2010Prop39
140
1.0
102
RTVSPost2010PropOp39
 70
     1
102
RTVSPost2010Prop40
 90
        0
102
RTVSPost2010PropOp40
 70
     1
102
RTVSPost2010Prop41ColorIndex
 90
       18
102
RTVSPost2010Prop41ColorRGB
 90
        0
102
RTVSPost2010PropOp41
 70
     1
102
RTVSPost2010Prop42
 90
       50
102
RTVSPost2010PropOp42
 70
     1
102
RTVSPost2010Prop43
 90
        3
102
RTVSPost2010PropOp43
 70
     1
102
RTVSPost2010Prop44ColorIndex
 90
        5
102
RTVSPost2010Prop44ColorRGB
 90
      255
102
RTVSPost2010PropOp44
 70
     1
102
RTVSPost2010Prop45
280
     0
102
RTVSPost2010PropOp45
 70
     1
102
RTVSPost2010Prop46
 90
       50
102
RTVSPost2010PropOp46
 70
     1
102
RTVSPost2010Prop47
 90
       50
102
RTVSPost2010PropOp47
 70
     1
102
RTVSPost2010Prop48
 90
       50
102
RTVSPost2010PropOp48
 70
     1
102
RTVSPost2010Prop49
280
     0
102
RTVSPost2010PropOp49
 70
     1
102
RTVSPost2010Prop50
 90
       50
102
RTVSPost2010PropOp50
 70
     1
102
RTVSPost2010Prop51ColorIndex
 90
      256
102
RTVSPost2010Prop51ColorRGB
 90
-16777216
102
RTVSPost2010PropOp51
 70
     0
102
RTVSPost2010Prop52
140
1.0
102
RTVSPost2010PropOp52
 70
     0
102
RTVSPost2010Prop53
 90
        2
102
RTVSPost2010PropOp53
 70
     1
102
RTVSPost2010Prop54
  1
strokes_ogs.tif
102
RTVSPost2010PropOp54
 70
     1
102
RTVSPost2010Prop55
280
     0
102
RTVSPost2010PropOp55
 70
     1
102
RTVSPost2010Prop56
140
1.0
102
RTVSPost2010PropOp56
 70
     1
102
RTVSPost2010Prop57
140
1.0
102
RTVSPost2010PropOp57
 70
     1
  0
XRECORD
  5
237
102
{ACAD_REACTORS
330
236
102
}
330
236
100
AcDbXrecord
280
     1
102
RTVSPost2010Prop28
280
     0
102
RTVSPost2010PropOp28
 70
     1
102
RTVSPost2010Prop29
280
     1
102
RTVSPost2010PropOp29
 70
     1
102
RTVSPost2010Prop30
280
     1
102
RTVSPost2010PropOp30
 70
     1
102
RTVSPost2010Prop31
280
     0
102
RTVSPost2010PropOp31
 70
     1
102
RTVSPost2010Prop32
280
     0
102
RTVSPost2010PropOp32
 70
     1
102
RTVSPost2010Prop33
280
     0
102
RTVSPost2010PropOp33
 70
     1
102
RTVSPost2010Prop34
280
     0
102
RTVSPost2010PropOp34
 70
     1
102
RTVSPost2010Prop35
280
     0
102
RTVSPost2010PropOp35
 70
     1
102
RTVSPost2010Prop36
280
     0
102
RTVSPost2010PropOp36
 70
     1
102
RTVSPost2010Prop37
 90
       50
102
RTVSPost2010PropOp37
 70
     1
102
RTVSPost2010Prop38
140
0.0
102
RTVSPost2010PropOp38
 70
     1
102
RTVSPost2010Prop39
140
1.0
102
RTVSPost2010PropOp39
 70
     1
102
RTVSPost2010Prop40
 90
        0
102
RTVSPost2010PropOp40
 70
     1
102
RTVSPost2010Prop41ColorIndex
 90
       18
102
RTVSPost2010Prop41ColorRGB
 90
        0
102
RTVSPost2010PropOp41
 70
     1
102
RTVSPost2010Prop42
 90
       50
102
RTVSPost2010PropOp42
 70
     1
102
RTVSPost2010Prop43
 90
        3
102
RTVSPost2010PropOp43
 70
     1
102
RTVSPost2010Prop44ColorIndex
 90
        5
102
RTVSPost2010Prop44ColorRGB
 90
      255
102
RTVSPost2010PropOp44
 70
     1
102
RTVSPost2010Prop45
280
     0
102
RTVSPost2010PropOp45
 70
     1
102
RTVSPost2010Prop46
 90
       50
102
RTVSPost2010PropOp46
 70
     1
102
RTVSPost2010Prop47
 90
       50
102
RTVSPost2010PropOp47
 70
     1
102
RTVSPost2010Prop48
 90
       50
102
RTVSPost2010PropOp48
 70
     1
102
RTVSPost2010Prop49
280
     0
102
RTVSPost2010PropOp49
 70
     1
102
RTVSPost2010Prop50
 90
       50
102
RTVSPost2010PropOp50
 70
     1
102
RTVSPost2010Prop51ColorIndex
 90
      256
102
RTVSPost2010Prop51ColorRGB
 90
-16777216
102
RTVSPost2010PropOp51
 70
     0
102
RTVSPost2010Prop52
140
1.0
102
RTVSPost2010PropOp52
 70
     0
102
RTVSPost2010Prop53
 90
        2
102
RTVSPost2010PropOp53
 70
     1
102
RTVSPost2010Prop54
  1
strokes_ogs.tif
102
RTVSPost2010PropOp54
 70
     1
102
RTVSPost2010Prop55
280
     0
102
RTVSPost2010PropOp55
 70
     1
102
RTVSPost2010Prop56
140
1.0
102
RTVSPost2010PropOp56
 70
     1
102
RTVSPost2010Prop57
140
1.0
102
RTVSPost2010PropOp57
 70
     1
  0
XRECORD
  5
239
102
{ACAD_REACTORS
330
238
102
}
330
238
100
AcDbXrecord
280
     1
102
RTVSPost2010Prop28
280
     0
102
RTVSPost2010PropOp28
 70
     1
102
RTVSPost2010Prop29
280
     1
102
RTVSPost2010PropOp29
 70
     1
102
RTVSPost2010Prop30
280
     1
102
RTVSPost2010PropOp30
 70
     1
102
RTVSPost2010Prop31
280
     0
102
RTVSPost2010PropOp31
 70
     1
102
RTVSPost2010Prop32
280
     0
102
RTVSPost2010PropOp32
 70
     1
102
RTVSPost2010Prop33
280
     0
102
RTVSPost2010PropOp33
 70
     1
102
RTVSPost2010Prop34
280
     0
102
RTVSPost2010PropOp34
 70
     1
102
RTVSPost2010Prop35
280
     0
102
RTVSPost2010PropOp35
 70
     1
102
RTVSPost2010Prop36
280
     0
102
RTVSPost2010PropOp36
 70
     1
102
RTVSPost2010Prop37
 90
       50
102
RTVSPost2010PropOp37
 70
     1
102
RTVSPost2010Prop38
140
0.0
102
RTVSPost2010PropOp38
 70
     1
102
RTVSPost2010Prop39
140
1.0
102
RTVSPost2010PropOp39
 70
     1
102
RTVSPost2010Prop40
 90
        0
102
RTVSPost2010PropOp40
 70
     1
102
RTVSPost2010Prop41ColorIndex
 90
       18
102
RTVSPost2010Prop41ColorRGB
 90
        0
102
RTVSPost2010PropOp41
 70
     1
102
RTVSPost2010Prop42
 90
       50
102
RTVSPost2010PropOp42
 70
     1
102
RTVSPost2010Prop43
 90
        3
102
RTVSPost2010PropOp43
 70
     1
102
RTVSPost2010Prop44ColorIndex
 90
        5
102
RTVSPost2010Prop44ColorRGB
 90
      255
102
RTVSPost2010PropOp44
 70
     1
102
RTVSPost2010Prop45
280
     0
102
RTVSPost2010PropOp45
 70
     1
102
RTVSPost2010Prop46
 90
       50
102
RTVSPost2010PropOp46
 70
     1
102
RTVSPost2010Prop47
 90
       50
102
RTVSPost2010PropOp47
 70
     1
102
RTVSPost2010Prop48
 90
       50
102
RTVSPost2010PropOp48
 70
     1
102
RTVSPost2010Prop49
280
     0
102
RTVSPost2010PropOp49
 70
     1
102
RTVSPost2010Prop50
 90
       50
102
RTVSPost2010PropOp50
 70
     1
102
RTVSPost2010Prop51ColorIndex
 90
      256
102
RTVSPost2010Prop51ColorRGB
 90
-16777216
102
RTVSPost2010PropOp51
 70
     0
102
RTVSPost2010Prop52
140
1.0
102
RTVSPost2010PropOp52
 70
     0
102
RTVSPost2010Prop53
 90
        2
102
RTVSPost2010PropOp53
 70
     1
102
RTVSPost2010Prop54
  1
strokes_ogs.tif
102
RTVSPost2010PropOp54
 70
     1
102
RTVSPost2010Prop55
280
     0
102
RTVSPost2010PropOp55
 70
     1
102
RTVSPost2010Prop56
140
1.0
102
RTVSPost2010PropOp56
 70
     1
102
RTVSPost2010Prop57
140
1.0
102
RTVSPost2010PropOp57
 70
     1
  0
XRECORD
  5
23B
102
{ACAD_REACTORS
330
23A
102
}
330
23A
100
AcDbXrecord
280
     1
102
RTVSPost2010Prop28
280
     0
102
RTVSPost2010PropOp28
 70
     1
102
RTVSPost2010Prop29
280
     1
102
RTVSPost2010PropOp29
 70
     1
102
RTVSPost2010Prop30
280
     1
102
RTVSPost2010PropOp30
 70
     1
102
RTVSPost2010Prop31
280
     0
102
RTVSPost2010PropOp31
 70
     1
102
RTVSPost2010Prop32
280
     0
102
RTVSPost2010PropOp32
 70
     1
102
RTVSPost2010Prop33
280
     0
102
RTVSPost2010PropOp33
 70
     1
102
RTVSPost2010Prop34
280
     0
102
RTVSPost2010PropOp34
 70
     1
102
RTVSPost2010Prop35
280
     0
102
RTVSPost2010PropOp35
 70
     1
102
RTVSPost2010Prop36
280
     0
102
RTVSPost2010PropOp36
 70
     1
102
RTVSPost2010Prop37
 90
       50
102
RTVSPost2010PropOp37
 70
     1
102
RTVSPost2010Prop38
140
0.0
102
RTVSPost2010PropOp38
 70
     1
102
RTVSPost2010Prop39
140
1.0
102
RTVSPost2010PropOp39
 70
     1
102
RTVSPost2010Prop40
 90
        0
102
RTVSPost2010PropOp40
 70
     1
102
RTVSPost2010Prop41ColorIndex
 90
       18
102
RTVSPost2010Prop41ColorRGB
 90
        0
102
RTVSPost2010PropOp41
 70
     1
102
RTVSPost2010Prop42
 90
       50
102
RTVSPost2010PropOp42
 70
     1
102
RTVSPost2010Prop43
 90
        3
102
RTVSPost2010PropOp43
 70
     1
102
RTVSPost2010Prop44ColorIndex
 90
        5
102
RTVSPost2010Prop44ColorRGB
 90
      255
102
RTVSPost2010PropOp44
 70
     1
102
RTVSPost2010Prop45
280
     0
102
RTVSPost2010PropOp45
 70
     1
102
RTVSPost2010Prop46
 90
       50
102
RTVSPost2010PropOp46
 70
     1
102
RTVSPost2010Prop47
 90
       50
102
RTVSPost2010PropOp47
 70
     1
102
RTVSPost2010Prop48
 90
       50
102
RTVSPost2010PropOp48
 70
     1
102
RTVSPost2010Prop49
280
     0
102
RTVSPost2010PropOp49
 70
     1
102
RTVSPost2010Prop50
 90
       50
102
RTVSPost2010PropOp50
 70
     1
102
RTVSPost2010Prop51ColorIndex
 90
      256
102
RTVSPost2010Prop51ColorRGB
 90
-16777216
102
RTVSPost2010PropOp51
 70
     0
102
RTVSPost2010Prop52
140
1.0
102
RTVSPost2010PropOp52
 70
     0
102
RTVSPost2010Prop53
 90
        2
102
RTVSPost2010PropOp53
 70
     1
102
RTVSPost2010Prop54
  1
strokes_ogs.tif
102
RTVSPost2010PropOp54
 70
     1
102
RTVSPost2010Prop55
280
     0
102
RTVSPost2010PropOp55
 70
     1
102
RTVSPost2010Prop56
140
1.0
102
RTVSPost2010PropOp56
 70
     1
102
RTVSPost2010Prop57
140
1.0
102
RTVSPost2010PropOp57
 70
     1
  0
XRECORD
  5
23D
102
{ACAD_REACTORS
330
23C
102
}
330
23C
100
AcDbXrecord
280
     1
102
RTVSPost2010Prop28
280
     0
102
RTVSPost2010PropOp28
 70
     1
102
RTVSPost2010Prop29
280
     1
102
RTVSPost2010PropOp29
 70
     1
102
RTVSPost2010Prop30
280
     1
102
RTVSPost2010PropOp30
 70
     1
102
RTVSPost2010Prop31
280
     0
102
RTVSPost2010PropOp31
 70
     1
102
RTVSPost2010Prop32
280
     0
102
RTVSPost2010PropOp32
 70
     1
102
RTVSPost2010Prop33
280
     0
102
RTVSPost2010PropOp33
 70
     1
102
RTVSPost2010Prop34
280
     0
102
RTVSPost2010PropOp34
 70
     1
102
RTVSPost2010Prop35
280
     0
102
RTVSPost2010PropOp35
 70
     1
102
RTVSPost2010Prop36
280
     0
102
RTVSPost2010PropOp36
 70
     1
102
RTVSPost2010Prop37
 90
       50
102
RTVSPost2010PropOp37
 70
     1
102
RTVSPost2010Prop38
140
0.0
102
RTVSPost2010PropOp38
 70
     1
102
RTVSPost2010Prop39
140
1.0
102
RTVSPost2010PropOp39
 70
     1
102
RTVSPost2010Prop40
 90
        0
102
RTVSPost2010PropOp40
 70
     1
102
RTVSPost2010Prop41ColorIndex
 90
       18
102
RTVSPost2010Prop41ColorRGB
 90
        0
102
RTVSPost2010PropOp41
 70
     1
102
RTVSPost2010Prop42
 90
       50
102
RTVSPost2010PropOp42
 70
     1
102
RTVSPost2010Prop43
 90
        3
102
RTVSPost2010PropOp43
 70
     1
102
RTVSPost2010Prop44ColorIndex
 90
        5
102
RTVSPost2010Prop44ColorRGB
 90
      255
102
RTVSPost2010PropOp44
 70
     1
102
RTVSPost2010Prop45
280
     0
102
RTVSPost2010PropOp45
 70
     1
102
RTVSPost2010Prop46
 90
       50
102
RTVSPost2010PropOp46
 70
     1
102
RTVSPost2010Prop47
 90
       50
102
RTVSPost2010PropOp47
 70
     1
102
RTVSPost2010Prop48
 90
       50
102
RTVSPost2010PropOp48
 70
     1
102
RTVSPost2010Prop49
280
     0
102
RTVSPost2010PropOp49
 70
     1
102
RTVSPost2010Prop50
 90
       50
102
RTVSPost2010PropOp50
 70
     1
102
RTVSPost2010Prop51ColorIndex
 90
      256
102
RTVSPost2010Prop51ColorRGB
 90
-16777216
102
RTVSPost2010PropOp51
 70
     0
102
RTVSPost2010Prop52
140
1.0
102
RTVSPost2010PropOp52
 70
     0
102
RTVSPost2010Prop53
 90
        2
102
RTVSPost2010PropOp53
 70
     1
102
RTVSPost2010Prop54
  1
strokes_ogs.tif
102
RTVSPost2010PropOp54
 70
     1
102
RTVSPost2010Prop55
280
     0
102
RTVSPost2010PropOp55
 70
     1
102
RTVSPost2010Prop56
140
1.0
102
RTVSPost2010PropOp56
 70
     1
102
RTVSPost2010Prop57
140
1.0
102
RTVSPost2010PropOp57
 70
     1
  0
XRECORD
  5
243
102
{ACAD_REACTORS
330
242
102
}
330
242
100
AcDbXrecord
280
     1
102
RTVSPost2010Prop28
280
     0
102
RTVSPost2010PropOp28
 70
     1
102
RTVSPost2010Prop29
280
     1
102
RTVSPost2010PropOp29
 70
     1
102
RTVSPost2010Prop30
280
     1
102
RTVSPost2010PropOp30
 70
     1
102
RTVSPost2010Prop31
280
     0
102
RTVSPost2010PropOp31
 70
     1
102
RTVSPost2010Prop32
280
     0
102
RTVSPost2010PropOp32
 70
     1
102
RTVSPost2010Prop33
280
     0
102
RTVSPost2010PropOp33
 70
     1
102
RTVSPost2010Prop34
280
     0
102
RTVSPost2010PropOp34
 70
     1
102
RTVSPost2010Prop35
280
     0
102
RTVSPost2010PropOp35
 70
     1
102
RTVSPost2010Prop36
280
     0
102
RTVSPost2010PropOp36
 70
     1
102
RTVSPost2010Prop37
 90
       50
102
RTVSPost2010PropOp37
 70
     1
102
RTVSPost2010Prop38
140
0.0
102
RTVSPost2010PropOp38
 70
     1
102
RTVSPost2010Prop39
140
1.0
102
RTVSPost2010PropOp39
 70
     1
102
RTVSPost2010Prop40
 90
        0
102
RTVSPost2010PropOp40
 70
     1
102
RTVSPost2010Prop41ColorIndex
 90
       18
102
RTVSPost2010Prop41ColorRGB
 90
        0
102
RTVSPost2010PropOp41
 70
     1
102
RTVSPost2010Prop42
 90
       50
102
RTVSPost2010PropOp42
 70
     1
102
RTVSPost2010Prop43
 90
        3
102
RTVSPost2010PropOp43
 70
     1
102
RTVSPost2010Prop44ColorIndex
 90
        5
102
RTVSPost2010Prop44ColorRGB
 90
      255
102
RTVSPost2010PropOp44
 70
     1
102
RTVSPost2010Prop45
280
     0
102
RTVSPost2010PropOp45
 70
     1
102
RTVSPost2010Prop46
 90
       50
102
RTVSPost2010PropOp46
 70
     1
102
RTVSPost2010Prop47
 90
       50
102
RTVSPost2010PropOp47
 70
     1
102
RTVSPost2010Prop48
 90
       50
102
RTVSPost2010PropOp48
 70
     1
102
RTVSPost2010Prop49
280
     0
102
RTVSPost2010PropOp49
 70
     1
102
RTVSPost2010Prop50
 90
       50
102
RTVSPost2010PropOp50
 70
     1
102
RTVSPost2010Prop51ColorIndex
 90
      256
102
RTVSPost2010Prop51ColorRGB
 90
-16777216
102
RTVSPost2010PropOp51
 70
     0
102
RTVSPost2010Prop52
140
1.0
102
RTVSPost2010PropOp52
 70
     0
102
RTVSPost2010Prop53
 90
        2
102
RTVSPost2010PropOp53
 70
     1
102
RTVSPost2010Prop54
  1
strokes_ogs.tif
102
RTVSPost2010PropOp54
 70
     1
102
RTVSPost2010Prop55
280
     0
102
RTVSPost2010PropOp55
 70
     1
102
RTVSPost2010Prop56
140
1.0
102
RTVSPost2010PropOp56
 70
     1
102
RTVSPost2010Prop57
140
1.0
102
RTVSPost2010PropOp57
 70
     1
  0
XRECORD
  5
257
102
{ACAD_REACTORS
330
256
102
}
330
256
100
AcDbXrecord
280
     1
102
RTVSPost2010Prop28
280
     0
102
RTVSPost2010PropOp28
 70
     0
102
RTVSPost2010Prop29
280
     1
102
RTVSPost2010PropOp29
 70
     0
102
RTVSPost2010Prop30
280
     1
102
RTVSPost2010PropOp30
 70
     0
102
RTVSPost2010Prop31
280
     0
102
RTVSPost2010PropOp31
 70
     0
102
RTVSPost2010Prop32
280
     0
102
RTVSPost2010PropOp32
 70
     0
102
RTVSPost2010Prop33
280
     0
102
RTVSPost2010PropOp33
 70
     0
102
RTVSPost2010Prop34
280
     0
102
RTVSPost2010PropOp34
 70
     0
102
RTVSPost2010Prop35
280
     0
102
RTVSPost2010PropOp35
 70
     0
102
RTVSPost2010Prop36
280
     0
102
RTVSPost2010PropOp36
 70
     0
102
RTVSPost2010Prop37
 90
       50
102
RTVSPost2010PropOp37
 70
     0
102
RTVSPost2010Prop38
140
0.0
102
RTVSPost2010PropOp38
 70
     0
102
RTVSPost2010Prop39
140
1.0
102
RTVSPost2010PropOp39
 70
     0
102
RTVSPost2010Prop40
 90
        0
102
RTVSPost2010PropOp40
 70
     0
102
RTVSPost2010Prop41ColorIndex
 90
       18
102
RTVSPost2010Prop41ColorRGB
 90
        0
102
RTVSPost2010PropOp41
 70
     0
102
RTVSPost2010Prop42
 90
       50
102
RTVSPost2010PropOp42
 70
     0
102
RTVSPost2010Prop43
 90
        3
102
RTVSPost2010PropOp43
 70
     0
102
RTVSPost2010Prop44ColorIndex
 90
        5
102
RTVSPost2010Prop44ColorRGB
 90
      255
102
RTVSPost2010PropOp44
 70
     0
102
RTVSPost2010Prop45
280
     0
102
RTVSPost2010PropOp45
 70
     0
102
RTVSPost2010Prop46
 90
       50
102
RTVSPost2010PropOp46
 70
     0
102
RTVSPost2010Prop47
 90
       50
102
RTVSPost2010PropOp47
 70
     0
102
RTVSPost2010Prop48
 90
       50
102
RTVSPost2010PropOp48
 70
     0
102
RTVSPost2010Prop49
280
     0
102
RTVSPost2010PropOp49
 70
     0
102
RTVSPost2010Prop50
 90
       50
102
RTVSPost2010PropOp50
 70
     0
102
RTVSPost2010Prop51ColorIndex
 90
      256
102
RTVSPost2010Prop51ColorRGB
 90
-16777216
102
RTVSPost2010PropOp51
 70
     0
102
RTVSPost2010Prop52
140
1.0
102
RTVSPost2010PropOp52
 70
     0
102
RTVSPost2010Prop53
 90
        2
102
RTVSPost2010PropOp53
 70
     0
102
RTVSPost2010Prop54
  1
strokes_ogs.tif
102
RTVSPost2010PropOp54
 70
     0
102
RTVSPost2010Prop55
280
     0
102
RTVSPost2010PropOp55
 70
     0
102
RTVSPost2010Prop56
140
1.0
102
RTVSPost2010PropOp56
 70
     0
102
RTVSPost2010Prop57
140
1.0
102
RTVSPost2010PropOp57
 70
     0
  0
XRECORD
  5
251
102
{ACAD_REACTORS
330
250
102
}
330
250
100
AcDbXrecord
280
     1
102
RTVSPost2010Prop28
280
     0
102
RTVSPost2010PropOp28
 70
     1
102
RTVSPost2010Prop29
280
     1
102
RTVSPost2010PropOp29
 70
     1
102
RTVSPost2010Prop30
280
     1
102
RTVSPost2010PropOp30
 70
     1
102
RTVSPost2010Prop31
280
     0
102
RTVSPost2010PropOp31
 70
     1
102
RTVSPost2010Prop32
280
     0
102
RTVSPost2010PropOp32
 70
     1
102
RTVSPost2010Prop33
280
     0
102
RTVSPost2010PropOp33
 70
     1
102
RTVSPost2010Prop34
280
     0
102
RTVSPost2010PropOp34
 70
     1
102
RTVSPost2010Prop35
280
     0
102
RTVSPost2010PropOp35
 70
     1
102
RTVSPost2010Prop36
280
     0
102
RTVSPost2010PropOp36
 70
     1
102
RTVSPost2010Prop37
 90
       50
102
RTVSPost2010PropOp37
 70
     1
102
RTVSPost2010Prop38
140
0.0
102
RTVSPost2010PropOp38
 70
     1
102
RTVSPost2010Prop39
140
1.0
102
RTVSPost2010PropOp39
 70
     1
102
RTVSPost2010Prop40
 90
        0
102
RTVSPost2010PropOp40
 70
     1
102
RTVSPost2010Prop41ColorIndex
 90
       18
102
RTVSPost2010Prop41ColorRGB
 90
        0
102
RTVSPost2010PropOp41
 70
     1
102
RTVSPost2010Prop42
 90
       50
102
RTVSPost2010PropOp42
 70
     1
102
RTVSPost2010Prop43
 90
        3
102
RTVSPost2010PropOp43
 70
     1
102
RTVSPost2010Prop44ColorIndex
 90
        5
102
RTVSPost2010Prop44ColorRGB
 90
      255
102
RTVSPost2010PropOp44
 70
     1
102
RTVSPost2010Prop45
280
     0
102
RTVSPost2010PropOp45
 70
     1
102
RTVSPost2010Prop46
 90
       50
102
RTVSPost2010PropOp46
 70
     1
102
RTVSPost2010Prop47
 90
       50
102
RTVSPost2010PropOp47
 70
     1
102
RTVSPost2010Prop48
 90
       50
102
RTVSPost2010PropOp48
 70
     1
102
RTVSPost2010Prop49
280
     0
102
RTVSPost2010PropOp49
 70
     1
102
RTVSPost2010Prop50
 90
       50
102
RTVSPost2010PropOp50
 70
     1
102
RTVSPost2010Prop51ColorIndex
 90
      256
102
RTVSPost2010Prop51ColorRGB
 90
-16777216
102
RTVSPost2010PropOp51
 70
     0
102
RTVSPost2010Prop52
140
1.0
102
RTVSPost2010PropOp52
 70
     0
102
RTVSPost2010Prop53
 90
        2
102
RTVSPost2010PropOp53
 70
     1
102
RTVSPost2010Prop54
  1
strokes_ogs.tif
102
RTVSPost2010PropOp54
 70
     1
102
RTVSPost2010Prop55
280
     0
102
RTVSPost2010PropOp55
 70
     1
102
RTVSPost2010Prop56
140
1.0
102
RTVSPost2010PropOp56
 70
     1
102
RTVSPost2010Prop57
140
1.0
102
RTVSPost2010PropOp57
 70
     1
  0
XRECORD
  5
259
102
{ACAD_REACTORS
330
258
102
}
330
258
100
AcDbXrecord
280
     1
102
RTVSPost2010Prop28
280
     0
102
RTVSPost2010PropOp28
 70
     0
102
RTVSPost2010Prop29
280
     1
102
RTVSPost2010PropOp29
 70
     0
102
RTVSPost2010Prop30
280
     1
102
RTVSPost2010PropOp30
 70
     0
102
RTVSPost2010Prop31
280
     0
102
RTVSPost2010PropOp31
 70
     0
102
RTVSPost2010Prop32
280
     0
102
RTVSPost2010PropOp32
 70
     0
102
RTVSPost2010Prop33
280
     0
102
RTVSPost2010PropOp33
 70
     0
102
RTVSPost2010Prop34
280
     0
102
RTVSPost2010PropOp34
 70
     0
102
RTVSPost2010Prop35
280
     0
102
RTVSPost2010PropOp35
 70
     0
102
RTVSPost2010Prop36
280
     0
102
RTVSPost2010PropOp36
 70
     0
102
RTVSPost2010Prop37
 90
       50
102
RTVSPost2010PropOp37
 70
     0
102
RTVSPost2010Prop38
140
0.0
102
RTVSPost2010PropOp38
 70
     0
102
RTVSPost2010Prop39
140
1.0
102
RTVSPost2010PropOp39
 70
     0
102
RTVSPost2010Prop40
 90
        0
102
RTVSPost2010PropOp40
 70
     0
102
RTVSPost2010Prop41ColorIndex
 90
       18
102
RTVSPost2010Prop41ColorRGB
 90
        0
102
RTVSPost2010PropOp41
 70
     0
102
RTVSPost2010Prop42
 90
       50
102
RTVSPost2010PropOp42
 70
     0
102
RTVSPost2010Prop43
 90
        3
102
RTVSPost2010PropOp43
 70
     0
102
RTVSPost2010Prop44ColorIndex
 90
        5
102
RTVSPost2010Prop44ColorRGB
 90
      255
102
RTVSPost2010PropOp44
 70
     0
102
RTVSPost2010Prop45
280
     0
102
RTVSPost2010PropOp45
 70
     0
102
RTVSPost2010Prop46
 90
       50
102
RTVSPost2010PropOp46
 70
     0
102
RTVSPost2010Prop47
 90
       50
102
RTVSPost2010PropOp47
 70
     0
102
RTVSPost2010Prop48
 90
       50
102
RTVSPost2010PropOp48
 70
     0
102
RTVSPost2010Prop49
280
     0
102
RTVSPost2010PropOp49
 70
     0
102
RTVSPost2010Prop50
 90
       50
102
RTVSPost2010PropOp50
 70
     0
102
RTVSPost2010Prop51ColorIndex
 90
      256
102
RTVSPost2010Prop51ColorRGB
 90
-16777216
102
RTVSPost2010PropOp51
 70
     0
102
RTVSPost2010Prop52
140
1.0
102
RTVSPost2010PropOp52
 70
     0
102
RTVSPost2010Prop53
 90
        2
102
RTVSPost2010PropOp53
 70
     0
102
RTVSPost2010Prop54
  1
strokes_ogs.tif
102
RTVSPost2010PropOp54
 70
     0
102
RTVSPost2010Prop55
280
     0
102
RTVSPost2010PropOp55
 70
     0
102
RTVSPost2010Prop56
140
1.0
102
RTVSPost2010PropOp56
 70
     0
102
RTVSPost2010Prop57
140
1.0
102
RTVSPost2010PropOp57
 70
     0
  0
XRECORD
  5
247
102
{ACAD_REACTORS
330
246
102
}
330
246
100
AcDbXrecord
280
     1
102
RTVSPost2010Prop28
280
     0
102
RTVSPost2010PropOp28
 70
     1
102
RTVSPost2010Prop29
280
     1
102
RTVSPost2010PropOp29
 70
     1
102
RTVSPost2010Prop30
280
     1
102
RTVSPost2010PropOp30
 70
     1
102
RTVSPost2010Prop31
280
     0
102
RTVSPost2010PropOp31
 70
     1
102
RTVSPost2010Prop32
280
     0
102
RTVSPost2010PropOp32
 70
     1
102
RTVSPost2010Prop33
280
     0
102
RTVSPost2010PropOp33
 70
     1
102
RTVSPost2010Prop34
280
     0
102
RTVSPost2010PropOp34
 70
     1
102
RTVSPost2010Prop35
280
     0
102
RTVSPost2010PropOp35
 70
     1
102
RTVSPost2010Prop36
280
     0
102
RTVSPost2010PropOp36
 70
     1
102
RTVSPost2010Prop37
 90
       50
102
RTVSPost2010PropOp37
 70
     1
102
RTVSPost2010Prop38
140
0.0
102
RTVSPost2010PropOp38
 70
     1
102
RTVSPost2010Prop39
140
1.0
102
RTVSPost2010PropOp39
 70
     1
102
RTVSPost2010Prop40
 90
        0
102
RTVSPost2010PropOp40
 70
     1
102
RTVSPost2010Prop41ColorIndex
 90
       18
102
RTVSPost2010Prop41ColorRGB
 90
        0
102
RTVSPost2010PropOp41
 70
     1
102
RTVSPost2010Prop42
 90
       50
102
RTVSPost2010PropOp42
 70
     1
102
RTVSPost2010Prop43
 90
        3
102
RTVSPost2010PropOp43
 70
     1
102
RTVSPost2010Prop44ColorIndex
 90
        5
102
RTVSPost2010Prop44ColorRGB
 90
      255
102
RTVSPost2010PropOp44
 70
     1
102
RTVSPost2010Prop45
280
     0
102
RTVSPost2010PropOp45
 70
     1
102
RTVSPost2010Prop46
 90
       50
102
RTVSPost2010PropOp46
 70
     1
102
RTVSPost2010Prop47
 90
       50
102
RTVSPost2010PropOp47
 70
     1
102
RTVSPost2010Prop48
 90
       50
102
RTVSPost2010PropOp48
 70
     1
102
RTVSPost2010Prop49
280
     0
102
RTVSPost2010PropOp49
 70
     1
102
RTVSPost2010Prop50
 90
       50
102
RTVSPost2010PropOp50
 70
     1
102
RTVSPost2010Prop51ColorIndex
 90
      256
102
RTVSPost2010Prop51ColorRGB
 90
-16777216
102
RTVSPost2010PropOp51
 70
     0
102
RTVSPost2010Prop52
140
1.0
102
RTVSPost2010PropOp52
 70
     0
102
RTVSPost2010Prop53
 90
        2
102
RTVSPost2010PropOp53
 70
     1
102
RTVSPost2010Prop54
  1
strokes_ogs.tif
102
RTVSPost2010PropOp54
 70
     1
102
RTVSPost2010Prop55
280
     0
102
RTVSPost2010PropOp55
 70
     1
102
RTVSPost2010Prop56
140
1.0
102
RTVSPost2010PropOp56
 70
     1
102
RTVSPost2010Prop57
140
1.0
102
RTVSPost2010PropOp57
 70
     1
  0
XRECORD
  5
265
102
{ACAD_REACTORS
330
264
102
}
330
264
100
AcDbXrecord
280
     1
102
RTVSPost2010Prop28
280
     0
102
RTVSPost2010PropOp28
 70
     1
102
RTVSPost2010Prop29
280
     1
102
RTVSPost2010PropOp29
 70
     1
102
RTVSPost2010Prop30
280
     1
102
RTVSPost2010PropOp30
 70
     1
102
RTVSPost2010Prop31
280
     0
102
RTVSPost2010PropOp31
 70
     1
102
RTVSPost2010Prop32
280
     0
102
RTVSPost2010PropOp32
 70
     1
102
RTVSPost2010Prop33
280
     0
102
RTVSPost2010PropOp33
 70
     1
102
RTVSPost2010Prop34
280
     0
102
RTVSPost2010PropOp34
 70
     1
102
RTVSPost2010Prop35
280
     0
102
RTVSPost2010PropOp35
 70
     1
102
RTVSPost2010Prop36
280
     0
102
RTVSPost2010PropOp36
 70
     1
102
RTVSPost2010Prop37
 90
       50
102
RTVSPost2010PropOp37
 70
     1
102
RTVSPost2010Prop38
140
0.0
102
RTVSPost2010PropOp38
 70
     1
102
RTVSPost2010Prop39
140
1.0
102
RTVSPost2010PropOp39
 70
     1
102
RTVSPost2010Prop40
 90
        0
102
RTVSPost2010PropOp40
 70
     1
102
RTVSPost2010Prop41ColorIndex
 90
       18
102
RTVSPost2010Prop41ColorRGB
 90
        0
102
RTVSPost2010PropOp41
 70
     1
102
RTVSPost2010Prop42
 90
       50
102
RTVSPost2010PropOp42
 70
     1
102
RTVSPost2010Prop43
 90
        3
102
RTVSPost2010PropOp43
 70
     1
102
RTVSPost2010Prop44ColorIndex
 90
        5
102
RTVSPost2010Prop44ColorRGB
 90
      255
102
RTVSPost2010PropOp44
 70
     1
102
RTVSPost2010Prop45
280
     0
102
RTVSPost2010PropOp45
 70
     1
102
RTVSPost2010Prop46
 90
       50
102
RTVSPost2010PropOp46
 70
     1
102
RTVSPost2010Prop47
 90
       50
102
RTVSPost2010PropOp47
 70
     1
102
RTVSPost2010Prop48
 90
       50
102
RTVSPost2010PropOp48
 70
     1
102
RTVSPost2010Prop49
280
     0
102
RTVSPost2010PropOp49
 70
     1
102
RTVSPost2010Prop50
 90
       50
102
RTVSPost2010PropOp50
 70
     1
102
RTVSPost2010Prop51ColorIndex
 90
      256
102
RTVSPost2010Prop51ColorRGB
 90
-16777216
102
RTVSPost2010PropOp51
 70
     0
102
RTVSPost2010Prop52
140
1.0
102
RTVSPost2010PropOp52
 70
     0
102
RTVSPost2010Prop53
 90
        2
102
RTVSPost2010PropOp53
 70
     1
102
RTVSPost2010Prop54
  1
strokes_ogs.tif
102
RTVSPost2010PropOp54
 70
     1
102
RTVSPost2010Prop55
280
     0
102
RTVSPost2010PropOp55
 70
     1
102
RTVSPost2010Prop56
140
1.0
102
RTVSPost2010PropOp56
 70
     1
102
RTVSPost2010Prop57
140
1.0
102
RTVSPost2010PropOp57
 70
     1
  0
XRECORD
  5
263
102
{ACAD_REACTORS
330
262
102
}
330
262
100
AcDbXrecord
280
     1
102
RTVSPost2010Prop28
280
     0
102
RTVSPost2010PropOp28
 70
     1
102
RTVSPost2010Prop29
280
     1
102
RTVSPost2010PropOp29
 70
     1
102
RTVSPost2010Prop30
280
     1
102
RTVSPost2010PropOp30
 70
     1
102
RTVSPost2010Prop31
280
     0
102
RTVSPost2010PropOp31
 70
     1
102
RTVSPost2010Prop32
280
     0
102
RTVSPost2010PropOp32
 70
     1
102
RTVSPost2010Prop33
280
     0
102
RTVSPost2010PropOp33
 70
     1
102
RTVSPost2010Prop34
280
     0
102
RTVSPost2010PropOp34
 70
     1
102
RTVSPost2010Prop35
280
     0
102
RTVSPost2010PropOp35
 70
     1
102
RTVSPost2010Prop36
280
     0
102
RTVSPost2010PropOp36
 70
     1
102
RTVSPost2010Prop37
 90
       50
102
RTVSPost2010PropOp37
 70
     1
102
RTVSPost2010Prop38
140
0.0
102
RTVSPost2010PropOp38
 70
     1
102
RTVSPost2010Prop39
140
1.0
102
RTVSPost2010PropOp39
 70
     1
102
RTVSPost2010Prop40
 90
        0
102
RTVSPost2010PropOp40
 70
     1
102
RTVSPost2010Prop41ColorIndex
 90
       18
102
RTVSPost2010Prop41ColorRGB
 90
        0
102
RTVSPost2010PropOp41
 70
     1
102
RTVSPost2010Prop42
 90
       50
102
RTVSPost2010PropOp42
 70
     1
102
RTVSPost2010Prop43
 90
        3
102
RTVSPost2010PropOp43
 70
     1
102
RTVSPost2010Prop44ColorIndex
 90
        5
102
RTVSPost2010Prop44ColorRGB
 90
      255
102
RTVSPost2010PropOp44
 70
     1
102
RTVSPost2010Prop45
280
     0
102
RTVSPost2010PropOp45
 70
     1
102
RTVSPost2010Prop46
 90
       50
102
RTVSPost2010PropOp46
 70
     1
102
RTVSPost2010Prop47
 90
       50
102
RTVSPost2010PropOp47
 70
     1
102
RTVSPost2010Prop48
 90
       50
102
RTVSPost2010PropOp48
 70
     1
102
RTVSPost2010Prop49
280
     0
102
RTVSPost2010PropOp49
 70
     1
102
RTVSPost2010Prop50
 90
       50
102
RTVSPost2010PropOp50
 70
     1
102
RTVSPost2010Prop51ColorIndex
 90
      256
102
RTVSPost2010Prop51ColorRGB
 90
-16777216
102
RTVSPost2010PropOp51
 70
     0
102
RTVSPost2010Prop52
140
1.0
102
RTVSPost2010PropOp52
 70
     0
102
RTVSPost2010Prop53
 90
        2
102
RTVSPost2010PropOp53
 70
     1
102
RTVSPost2010Prop54
  1
strokes_ogs.tif
102
RTVSPost2010PropOp54
 70
     1
102
RTVSPost2010Prop55
280
     0
102
RTVSPost2010PropOp55
 70
     1
102
RTVSPost2010Prop56
140
1.0
102
RTVSPost2010PropOp56
 70
     1
102
RTVSPost2010Prop57
140
1.0
102
RTVSPost2010PropOp57
 70
     1
  0
XRECORD
  5
25D
102
{ACAD_REACTORS
330
25C
102
}
330
25C
100
AcDbXrecord
280
     1
102
RTVSPost2010Prop28
280
     0
102
RTVSPost2010PropOp28
 70
     1
102
RTVSPost2010Prop29
280
     1
102
RTVSPost2010PropOp29
 70
     1
102
RTVSPost2010Prop30
280
     1
102
RTVSPost2010PropOp30
 70
     1
102
RTVSPost2010Prop31
280
     0
102
RTVSPost2010PropOp31
 70
     1
102
RTVSPost2010Prop32
280
     0
102
RTVSPost2010PropOp32
 70
     1
102
RTVSPost2010Prop33
280
     0
102
RTVSPost2010PropOp33
 70
     1
102
RTVSPost2010Prop34
280
     0
102
RTVSPost2010PropOp34
 70
     1
102
RTVSPost2010Prop35
280
     0
102
RTVSPost2010PropOp35
 70
     1
102
RTVSPost2010Prop36
280
     0
102
RTVSPost2010PropOp36
 70
     1
102
RTVSPost2010Prop37
 90
       50
102
RTVSPost2010PropOp37
 70
     1
102
RTVSPost2010Prop38
140
0.0
102
RTVSPost2010PropOp38
 70
     1
102
RTVSPost2010Prop39
140
1.0
102
RTVSPost2010PropOp39
 70
     1
102
RTVSPost2010Prop40
 90
        0
102
RTVSPost2010PropOp40
 70
     1
102
RTVSPost2010Prop41ColorIndex
 90
       18
102
RTVSPost2010Prop41ColorRGB
 90
        0
102
RTVSPost2010PropOp41
 70
     1
102
RTVSPost2010Prop42
 90
       50
102
RTVSPost2010PropOp42
 70
     1
102
RTVSPost2010Prop43
 90
        3
102
RTVSPost2010PropOp43
 70
     1
102
RTVSPost2010Prop44ColorIndex
 90
        5
102
RTVSPost2010Prop44ColorRGB
 90
      255
102
RTVSPost2010PropOp44
 70
     1
102
RTVSPost2010Prop45
280
     0
102
RTVSPost2010PropOp45
 70
     1
102
RTVSPost2010Prop46
 90
       50
102
RTVSPost2010PropOp46
 70
     1
102
RTVSPost2010Prop47
 90
       50
102
RTVSPost2010PropOp47
 70
     1
102
RTVSPost2010Prop48
 90
       50
102
RTVSPost2010PropOp48
 70
     1
102
RTVSPost2010Prop49
280
     0
102
RTVSPost2010PropOp49
 70
     1
102
RTVSPost2010Prop50
 90
       50
102
RTVSPost2010PropOp50
 70
     1
102
RTVSPost2010Prop51ColorIndex
 90
      256
102
RTVSPost2010Prop51ColorRGB
 90
-16777216
102
RTVSPost2010PropOp51
 70
     0
102
RTVSPost2010Prop52
140
1.0
102
RTVSPost2010PropOp52
 70
     0
102
RTVSPost2010Prop53
 90
        2
102
RTVSPost2010PropOp53
 70
     1
102
RTVSPost2010Prop54
  1
strokes_ogs.tif
102
RTVSPost2010PropOp54
 70
     1
102
RTVSPost2010Prop55
280
     0
102
RTVSPost2010PropOp55
 70
     1
102
RTVSPost2010Prop56
140
1.0
102
RTVSPost2010PropOp56
 70
     1
102
RTVSPost2010Prop57
140
1.0
102
RTVSPost2010PropOp57
 70
     1
  0
XRECORD
  5
25F
102
{ACAD_REACTORS
330
25E
102
}
330
25E
100
AcDbXrecord
280
     1
102
RTVSPost2010Prop28
280
     0
102
RTVSPost2010PropOp28
 70
     1
102
RTVSPost2010Prop29
280
     1
102
RTVSPost2010PropOp29
 70
     1
102
RTVSPost2010Prop30
280
     1
102
RTVSPost2010PropOp30
 70
     1
102
RTVSPost2010Prop31
280
     0
102
RTVSPost2010PropOp31
 70
     1
102
RTVSPost2010Prop32
280
     0
102
RTVSPost2010PropOp32
 70
     1
102
RTVSPost2010Prop33
280
     0
102
RTVSPost2010PropOp33
 70
     1
102
RTVSPost2010Prop34
280
     0
102
RTVSPost2010PropOp34
 70
     1
102
RTVSPost2010Prop35
280
     0
102
RTVSPost2010PropOp35
 70
     1
102
RTVSPost2010Prop36
280
     0
102
RTVSPost2010PropOp36
 70
     1
102
RTVSPost2010Prop37
 90
       50
102
RTVSPost2010PropOp37
 70
     1
102
RTVSPost2010Prop38
140
0.0
102
RTVSPost2010PropOp38
 70
     1
102
RTVSPost2010Prop39
140
1.0
102
RTVSPost2010PropOp39
 70
     1
102
RTVSPost2010Prop40
 90
        0
102
RTVSPost2010PropOp40
 70
     1
102
RTVSPost2010Prop41ColorIndex
 90
       18
102
RTVSPost2010Prop41ColorRGB
 90
        0
102
RTVSPost2010PropOp41
 70
     1
102
RTVSPost2010Prop42
 90
       50
102
RTVSPost2010PropOp42
 70
     1
102
RTVSPost2010Prop43
 90
        3
102
RTVSPost2010PropOp43
 70
     1
102
RTVSPost2010Prop44ColorIndex
 90
        5
102
RTVSPost2010Prop44ColorRGB
 90
      255
102
RTVSPost2010PropOp44
 70
     1
102
RTVSPost2010Prop45
280
     0
102
RTVSPost2010PropOp45
 70
     1
102
RTVSPost2010Prop46
 90
       50
102
RTVSPost2010PropOp46
 70
     1
102
RTVSPost2010Prop47
 90
       50
102
RTVSPost2010PropOp47
 70
     1
102
RTVSPost2010Prop48
 90
       50
102
RTVSPost2010PropOp48
 70
     1
102
RTVSPost2010Prop49
280
     0
102
RTVSPost2010PropOp49
 70
     1
102
RTVSPost2010Prop50
 90
       50
102
RTVSPost2010PropOp50
 70
     1
102
RTVSPost2010Prop51ColorIndex
 90
      256
102
RTVSPost2010Prop51ColorRGB
 90
-16777216
102
RTVSPost2010PropOp51
 70
     0
102
RTVSPost2010Prop52
140
1.0
102
RTVSPost2010PropOp52
 70
     0
102
RTVSPost2010Prop53
 90
        2
102
RTVSPost2010PropOp53
 70
     1
102
RTVSPost2010Prop54
  1
strokes_ogs.tif
102
RTVSPost2010PropOp54
 70
     1
102
RTVSPost2010Prop55
280
     0
102
RTVSPost2010PropOp55
 70
     1
102
RTVSPost2010Prop56
140
1.0
102
RTVSPost2010PropOp56
 70
     1
102
RTVSPost2010Prop57
140
1.0
102
RTVSPost2010PropOp57
 70
     1
  0
XRECORD
  5
24F
102
{ACAD_REACTORS
330
24E
102
}
330
24E
100
AcDbXrecord
280
     1
102
RTVSPost2010Prop28
280
     0
102
RTVSPost2010PropOp28
 70
     1
102
RTVSPost2010Prop29
280
     1
102
RTVSPost2010PropOp29
 70
     1
102
RTVSPost2010Prop30
280
     1
102
RTVSPost2010PropOp30
 70
     1
102
RTVSPost2010Prop31
280
     0
102
RTVSPost2010PropOp31
 70
     1
102
RTVSPost2010Prop32
280
     0
102
RTVSPost2010PropOp32
 70
     1
102
RTVSPost2010Prop33
280
     0
102
RTVSPost2010PropOp33
 70
     1
102
RTVSPost2010Prop34
280
     0
102
RTVSPost2010PropOp34
 70
     1
102
RTVSPost2010Prop35
280
     0
102
RTVSPost2010PropOp35
 70
     1
102
RTVSPost2010Prop36
280
     0
102
RTVSPost2010PropOp36
 70
     1
102
RTVSPost2010Prop37
 90
       50
102
RTVSPost2010PropOp37
 70
     1
102
RTVSPost2010Prop38
140
0.0
102
RTVSPost2010PropOp38
 70
     1
102
RTVSPost2010Prop39
140
1.0
102
RTVSPost2010PropOp39
 70
     1
102
RTVSPost2010Prop40
 90
        0
102
RTVSPost2010PropOp40
 70
     1
102
RTVSPost2010Prop41ColorIndex
 90
       18
102
RTVSPost2010Prop41ColorRGB
 90
        0
102
RTVSPost2010PropOp41
 70
     1
102
RTVSPost2010Prop42
 90
       50
102
RTVSPost2010PropOp42
 70
     1
102
RTVSPost2010Prop43
 90
        3
102
RTVSPost2010PropOp43
 70
     1
102
RTVSPost2010Prop44ColorIndex
 90
        5
102
RTVSPost2010Prop44ColorRGB
 90
      255
102
RTVSPost2010PropOp44
 70
     1
102
RTVSPost2010Prop45
280
     0
102
RTVSPost2010PropOp45
 70
     1
102
RTVSPost2010Prop46
 90
       50
102
RTVSPost2010PropOp46
 70
     1
102
RTVSPost2010Prop47
 90
       50
102
RTVSPost2010PropOp47
 70
     1
102
RTVSPost2010Prop48
 90
       50
102
RTVSPost2010PropOp48
 70
     1
102
RTVSPost2010Prop49
280
     0
102
RTVSPost2010PropOp49
 70
     1
102
RTVSPost2010Prop50
 90
       50
102
RTVSPost2010PropOp50
 70
     1
102
RTVSPost2010Prop51ColorIndex
 90
      256
102
RTVSPost2010Prop51ColorRGB
 90
-16777216
102
RTVSPost2010PropOp51
 70
     0
102
RTVSPost2010Prop52
140
1.0
102
RTVSPost2010PropOp52
 70
     0
102
RTVSPost2010Prop53
 90
        2
102
RTVSPost2010PropOp53
 70
     1
102
RTVSPost2010Prop54
  1
strokes_ogs.tif
102
RTVSPost2010PropOp54
 70
     1
102
RTVSPost2010Prop55
280
     0
102
RTVSPost2010PropOp55
 70
     1
102
RTVSPost2010Prop56
140
1.0
102
RTVSPost2010PropOp56
 70
     1
102
RTVSPost2010Prop57
140
1.0
102
RTVSPost2010PropOp57
 70
     1
  0
XRECORD
  5
241
102
{ACAD_REACTORS
330
240
102
}
330
240
100
AcDbXrecord
280
     1
102
RTVSPost2010Prop28
280
     0
102
RTVSPost2010PropOp28
 70
     1
102
RTVSPost2010Prop29
280
     1
102
RTVSPost2010PropOp29
 70
     1
102
RTVSPost2010Prop30
280
     1
102
RTVSPost2010PropOp30
 70
     1
102
RTVSPost2010Prop31
280
     0
102
RTVSPost2010PropOp31
 70
     1
102
RTVSPost2010Prop32
280
     0
102
RTVSPost2010PropOp32
 70
     1
102
RTVSPost2010Prop33
280
     0
102
RTVSPost2010PropOp33
 70
     1
102
RTVSPost2010Prop34
280
     0
102
RTVSPost2010PropOp34
 70
     1
102
RTVSPost2010Prop35
280
     0
102
RTVSPost2010PropOp35
 70
     1
102
RTVSPost2010Prop36
280
     0
102
RTVSPost2010PropOp36
 70
     1
102
RTVSPost2010Prop37
 90
       50
102
RTVSPost2010PropOp37
 70
     1
102
RTVSPost2010Prop38
140
0.0
102
RTVSPost2010PropOp38
 70
     1
102
RTVSPost2010Prop39
140
1.0
102
RTVSPost2010PropOp39
 70
     1
102
RTVSPost2010Prop40
 90
        0
102
RTVSPost2010PropOp40
 70
     1
102
RTVSPost2010Prop41ColorIndex
 90
       18
102
RTVSPost2010Prop41ColorRGB
 90
        0
102
RTVSPost2010PropOp41
 70
     1
102
RTVSPost2010Prop42
 90
       50
102
RTVSPost2010PropOp42
 70
     1
102
RTVSPost2010Prop43
 90
        3
102
RTVSPost2010PropOp43
 70
     1
102
RTVSPost2010Prop44ColorIndex
 90
        5
102
RTVSPost2010Prop44ColorRGB
 90
      255
102
RTVSPost2010PropOp44
 70
     1
102
RTVSPost2010Prop45
280
     0
102
RTVSPost2010PropOp45
 70
     1
102
RTVSPost2010Prop46
 90
       50
102
RTVSPost2010PropOp46
 70
     1
102
RTVSPost2010Prop47
 90
       50
102
RTVSPost2010PropOp47
 70
     1
102
RTVSPost2010Prop48
 90
       50
102
RTVSPost2010PropOp48
 70
     1
102
RTVSPost2010Prop49
280
     0
102
RTVSPost2010PropOp49
 70
     1
102
RTVSPost2010Prop50
 90
       50
102
RTVSPost2010PropOp50
 70
     1
102
RTVSPost2010Prop51ColorIndex
 90
      256
102
RTVSPost2010Prop51ColorRGB
 90
-16777216
102
RTVSPost2010PropOp51
 70
     0
102
RTVSPost2010Prop52
140
1.0
102
RTVSPost2010PropOp52
 70
     0
102
RTVSPost2010Prop53
 90
        2
102
RTVSPost2010PropOp53
 70
     1
102
RTVSPost2010Prop54
  1
strokes_ogs.tif
102
RTVSPost2010PropOp54
 70
     1
102
RTVSPost2010Prop55
280
     0
102
RTVSPost2010PropOp55
 70
     1
102
RTVSPost2010Prop56
140
1.0
102
RTVSPost2010PropOp56
 70
     1
102
RTVSPost2010Prop57
140
1.0
102
RTVSPost2010PropOp57
 70
     1
  0
XRECORD
  5
261
102
{ACAD_REACTORS
330
260
102
}
330
260
100
AcDbXrecord
280
     1
102
RTVSPost2010Prop28
280
     0
102
RTVSPost2010PropOp28
 70
     1
102
RTVSPost2010Prop29
280
     1
102
RTVSPost2010PropOp29
 70
     1
102
RTVSPost2010Prop30
280
     1
102
RTVSPost2010PropOp30
 70
     1
102
RTVSPost2010Prop31
280
     0
102
RTVSPost2010PropOp31
 70
     1
102
RTVSPost2010Prop32
280
     0
102
RTVSPost2010PropOp32
 70
     1
102
RTVSPost2010Prop33
280
     0
102
RTVSPost2010PropOp33
 70
     1
102
RTVSPost2010Prop34
280
     0
102
RTVSPost2010PropOp34
 70
     1
102
RTVSPost2010Prop35
280
     0
102
RTVSPost2010PropOp35
 70
     1
102
RTVSPost2010Prop36
280
     0
102
RTVSPost2010PropOp36
 70
     1
102
RTVSPost2010Prop37
 90
       50
102
RTVSPost2010PropOp37
 70
     1
102
RTVSPost2010Prop38
140
0.0
102
RTVSPost2010PropOp38
 70
     1
102
RTVSPost2010Prop39
140
1.0
102
RTVSPost2010PropOp39
 70
     1
102
RTVSPost2010Prop40
 90
        0
102
RTVSPost2010PropOp40
 70
     1
102
RTVSPost2010Prop41ColorIndex
 90
       18
102
RTVSPost2010Prop41ColorRGB
 90
        0
102
RTVSPost2010PropOp41
 70
     1
102
RTVSPost2010Prop42
 90
       50
102
RTVSPost2010PropOp42
 70
     1
102
RTVSPost2010Prop43
 90
        3
102
RTVSPost2010PropOp43
 70
     1
102
RTVSPost2010Prop44ColorIndex
 90
        5
102
RTVSPost2010Prop44ColorRGB
 90
      255
102
RTVSPost2010PropOp44
 70
     1
102
RTVSPost2010Prop45
280
     0
102
RTVSPost2010PropOp45
 70
     1
102
RTVSPost2010Prop46
 90
       50
102
RTVSPost2010PropOp46
 70
     1
102
RTVSPost2010Prop47
 90
       50
102
RTVSPost2010PropOp47
 70
     1
102
RTVSPost2010Prop48
 90
       50
102
RTVSPost2010PropOp48
 70
     1
102
RTVSPost2010Prop49
280
     0
102
RTVSPost2010PropOp49
 70
     1
102
RTVSPost2010Prop50
 90
       50
102
RTVSPost2010PropOp50
 70
     1
102
RTVSPost2010Prop51ColorIndex
 90
      256
102
RTVSPost2010Prop51ColorRGB
 90
-16777216
102
RTVSPost2010PropOp51
 70
     0
102
RTVSPost2010Prop52
140
1.0
102
RTVSPost2010PropOp52
 70
     0
102
RTVSPost2010Prop53
 90
        2
102
RTVSPost2010PropOp53
 70
     1
102
RTVSPost2010Prop54
  1
strokes_ogs.tif
102
RTVSPost2010PropOp54
 70
     1
102
RTVSPost2010Prop55
280
     0
102
RTVSPost2010PropOp55
 70
     1
102
RTVSPost2010Prop56
140
1.0
102
RTVSPost2010PropOp56
 70
     1
102
RTVSPost2010Prop57
140
1.0
102
RTVSPost2010PropOp57
 70
     1
  0
ENDSEC
  0
EOF
